{
.appVersion = "1303";
customParameters = (
{
name = glyphOrder;
value = (
.notdef,
NULL,
CR,
space,
quotesingle,
comma,
hyphen,
period,
zero,
one,
two,
three,
four,
five,
six,
seven,
eight,
nine,
A,
B,
E,
F,
G,
H,
I,
L,
N,
O,
Q,
R,
a,
b,
c,
d,
e,
f,
g,
h,
i,
j,
k,
l,
m,
n,
o,
p,
q,
r,
s,
t,
u,
v,
w,
x,
y,
z,
uni00A0,
iacute,
dotlessi,
emdash,
quoteleft,
quoteright,
quotesinglbase,
t_s,
n.Lx,
o.Rn,
o.Rr,
o.Rx,
zero.alt001,
G.alt001,
e.Rstraight
);
},
{
name = macintoshFONDFamilyID;
value = 128;
},
{
name = openTypeHeadFlags;
value = (
);
},
{
name = description;
value = "";
},
{
name = license;
value = "";
},
{
name = licenseURL;
value = "";
},
{
name = openTypeNameSampleText;
value = "";
},
{
name = uniqueID;
value = "";
},
{
name = versionString;
value = "";
},
{
name = openTypeOS2FamilyClass;
value = (
0,
0
);
},
{
name = openTypeOS2Panose;
value = (
0,
0,
0,
0,
0,
0,
0,
0,
0,
0
);
},
{
name = openTypeOS2Selection;
value = (
);
},
{
name = strikeoutPosition;
value = 250;
},
{
name = strikeoutSize;
value = 50;
},
{
name = openTypeOS2SubscriptXOffset;
value = 0;
},
{
name = openTypeOS2SubscriptXSize;
value = 700;
},
{
name = openTypeOS2SubscriptYOffset;
value = 140;
},
{
name = openTypeOS2SubscriptYSize;
value = 650;
},
{
name = openTypeOS2SuperscriptXOffset;
value = 0;
},
{
name = openTypeOS2SuperscriptXSize;
value = 700;
},
{
name = openTypeOS2SuperscriptYOffset;
value = 477;
},
{
name = openTypeOS2SuperscriptYSize;
value = 650;
},
{
name = fsType;
value = (
2
);
},
{
name = vendorID;
value = pyrs;
},
{
name = blueFuzz;
value = 1;
},
{
name = blueScale;
value = 0.03963;
},
{
name = blueShift;
value = 7;
},
{
name = postscriptForceBold;
value = 0;
},
{
name = postscriptIsFixedPitch;
value = 0;
},
{
name = postscriptUniqueID;
value = -1;
},
{
name = trademark;
value = "";
},
{
name = year;
value = 0;
}
);
date = "2016-06-18 14:41:37 +0000";
disablesAutomaticAlignment = 1;
disablesNiceNames = 1;
familyName = Topos;
features = (
{

glyphs = (
{
color = 0;
glyphname = quotesingle;
lastChange = "2020-03-15 11:43:11 +0000";
layers = (
{
layerId = master01;
paths = (
{
closed = 1;
nodes = (
"404 766 OFFCURVE",
"330 776 OFFCURVE",
"343 710 CURVE SMOOTH",
"358 637 OFFCURVE",
"476 713 OFFCURVE",
"410 737 CURVE",
"396 739 OFFCURVE",
"390 725 OFFCURVE",
"402 717 CURVE",
"402 717 OFFCURVE",
"403 717 OFFCURVE",
"403 716 CURVE SMOOTH",
"402 719 OFFCURVE",
"405 701 OFFCURVE",
"387 702 CURVE SMOOTH",
"372 702 OFFCURVE",
"361 716 OFFCURVE",
"367 731 CURVE SMOOTH",
"375 752 OFFCURVE",
"402 724 OFFCURVE",
"407 716 CURVE",
"416 706 OFFCURVE",
"431 711 OFFCURVE",
"429 724 CURVE"
);
},
{
closed = 1;
nodes = (
"352 631 OFFCURVE",
"317 588 OFFCURVE",
"295 541 CURVE SMOOTH",
"286 521 OFFCURVE",
"282 496 OFFCURVE",
"268 478 CURVE",
"262 464 OFFCURVE",
"279 459 OFFCURVE",
"288 466 CURVE",
"304 486 OFFCURVE",
"307 514 OFFCURVE",
"318 535 CURVE SMOOTH",
"343 583 OFFCURVE",
"376 628 OFFCURVE",
"383 682 CURVE",
"381 696 OFFCURVE",
"365 695 OFFCURVE",
"359 684 CURVE"
);
}
);
userData = {
com.typemytype.robofont.mark = (
1,
0.5675,
0.4681,
1
);
};
width = 361;
}
);
unicode = 0027;
},
{
glyphname = comma;
lastChange = "2020-03-15 11:43:45 +0000";
layers = (
{
layerId = master01;
paths = (
{
closed = 1;
nodes = (
"55 -206 OFFCURVE",
"106 -182 OFFCURVE",
"142 -141 CURVE SMOOTH",
"178 -99 OFFCURVE",
"200 -41 OFFCURVE",
"200 9 CURVE SMOOTH",
"200 49 OFFCURVE",
"180 72 OFFCURVE",
"141 72 CURVE SMOOTH",
"112 72 OFFCURVE",
"93 50 OFFCURVE",
"93 30 CURVE SMOOTH",
"93 9 OFFCURVE",
"109 -5 OFFCURVE",
"136 -5 CURVE SMOOTH",
"149 -5 OFFCURVE",
"164 0 OFFCURVE",
"175 10 CURVE",
"174 -34 OFFCURVE",
"155 -92 OFFCURVE",
"126 -127 CURVE SMOOTH",
"95 -164 OFFCURVE",
"47 -186 OFFCURVE",
"-14 -195 CURVE SMOOTH",
"-28 -197 OFFCURVE",
"-28 -218 OFFCURVE",
"-9 -215 CURVE SMOOTH"
);
}
);
userData = {
com.typemytype.robofont.layerData = {
background = {
anchors = (
);
components = (
);
contours = (
{
points = (
{
segmentType = curve;
smooth = 0;
x = 160;
y = 36;
},
{
smooth = 0;
x = 150;
y = 35;
},
{
smooth = 0;
x = 105;
y = 34;
},
{
segmentType = curve;
smooth = 0;
x = 118;
y = 31;
},
{
smooth = 0;
x = 129;
y = 15;
},
{
smooth = 0;
x = 113;
y = 43;
},
{
segmentType = curve;
smooth = 1;
x = 129;
y = 49;
},
{
smooth = 0;
x = 143;
y = 54;
},
{
smooth = 0;
x = 165;
y = 50;
},
{
segmentType = curve;
smooth = 1;
x = 170;
y = 35;
},
{
smooth = 0;
x = 176;
y = 19;
},
{
smooth = 0;
x = 173;
y = -11;
},
{
segmentType = curve;
smooth = 0;
x = 170;
y = -23;
},
{
smooth = 0;
x = 153;
y = -126;
},
{
smooth = 0;
x = 87;
y = -183;
},
{
segmentType = curve;
smooth = 0;
x = -14;
y = -193;
},
{
smooth = 0;
x = -28;
y = -196;
},
{
smooth = 0;
x = -28;
y = -212;
},
{
segmentType = curve;
smooth = 0;
x = -14;
y = -215;
},
{
smooth = 0;
x = 78;
y = -205;
},
{
smooth = 0;
x = 151;
y = -161;
},
{
segmentType = curve;
smooth = 1;
x = 183;
y = -70;
},
{
smooth = 0;
x = 194;
y = -39;
},
{
smooth = 0;
x = 218;
y = 40;
},
{
segmentType = curve;
smooth = 1;
x = 177;
y = 62;
},
{
smooth = 0;
x = 112;
y = 98;
},
{
smooth = 0;
x = 69;
y = 27;
},
{
segmentType = curve;
smooth = 0;
x = 108;
y = 11;
},
{
smooth = 0;
x = 123;
y = 6;
},
{
smooth = 0;
x = 143;
y = 12;
},
{
segmentType = curve;
smooth = 1;
x = 160;
y = 14;
},
{
smooth = 0;
x = 176;
y = 16;
},
{
smooth = 0;
x = 176;
y = 34;
}
);
}
);
lib = {
};
name = comma;
unicodes = (
);
width = 360;
};
};
};
width = 360;
}
);
unicode = 002C;
},
{
color = 0;
glyphname = hyphen;
lastChange = "2020-03-15 11:43:11 +0000";
layers = (
{
layerId = master01;
paths = (
{
closed = 1;
nodes = (
"172 256 OFFCURVE",
"280 261 OFFCURVE",
"338 262 CURVE SMOOTH",
"351 262 OFFCURVE",
"408 254 OFFCURVE",
"421 271 CURVE SMOOTH",
"431 285 OFFCURVE",
"411 294 OFFCURVE",
"401 283 CURVE SMOOTH",
"400 281 OFFCURVE",
"396 278 OFFCURVE",
"398 278 CURVE",
"402 280 OFFCURVE",
"405 282 OFFCURVE",
"408 285 CURVE",
"409 285 OFFCURVE",
"401 285 OFFCURVE",
"385 285 CURVE SMOOTH",
"306 283 OFFCURVE",
"219 289 OFFCURVE",
"141 272 CURVE SMOOTH",
"125 268 OFFCURVE",
"129 248 OFFCURVE",
"145 250 CURVE"
);
}
);
userData = {
com.typemytype.robofont.mark = (
1,
0.5675,
0.4681,
1
);
};
width = 490;
}
);
unicode = 002D;
},
{
glyphname = period;
lastChange = "2020-03-15 11:43:48 +0000";
layers = (
{
layerId = master01;
paths = (
{
closed = 1;
nodes = (
"122 -8 OFFCURVE",
"139 -8 CURVE SMOOTH",
"156 -8 OFFCURVE",
"179 14 OFFCURVE",
"179 34 CURVE SMOOTH",
"179 48 OFFCURVE",
"166.4 60 OFFCURVE",
"152 60 CURVE SMOOTH",
"136 60 OFFCURVE",
"114 38 OFFCURVE",
"114 18 CURVE SMOOTH",
"114 5 OFFCURVE"
);
}
);
userData = {
com.typemytype.robofont.layerData = {
background = {
anchors = (
);
components = (
);
contours = (
{
points = (
{
segmentType = curve;
smooth = 1;
x = 167;
y = 46;
},
{
smooth = 0;
x = 158;
y = 91;
},
{
smooth = 0;
x = 78;
y = 17;
},
{
segmentType = curve;
smooth = 1;
x = 133;
y = -7;
},
{
smooth = 0;
x = 156;
y = -17;
},
{
smooth = 0;
x = 209;
y = 41;
},
{
segmentType = curve;
smooth = 0;
x = 158;
y = 57;
},
{
smooth = 0;
x = 144;
y = 59;
},
{
smooth = 0;
x = 138;
y = 45;
},
{
segmentType = curve;
smooth = 1;
x = 150;
y = 37;
},
{
smooth = 0;
x = 152;
y = 36;
},
{
smooth = 0;
x = 156;
y = 31;
},
{
segmentType = curve;
smooth = 1;
x = 156;
y = 33;
},
{
smooth = 0;
x = 157;
y = 35;
},
{
smooth = 0;
x = 158;
y = 41;
},
{
segmentType = curve;
smooth = 1;
x = 157;
y = 39;
},
{
smooth = 0;
x = 154;
y = 34;
},
{
smooth = 0;
x = 151;
y = 16;
},
{
segmentType = curve;
smooth = 0;
x = 141;
y = 16;
},
{
smooth = 0;
x = 140;
y = 26;
},
{
smooth = 0;
x = 141;
y = 32;
},
{
segmentType = curve;
smooth = 0;
x = 150;
y = 38;
},
{
smooth = 0;
x = 148;
y = 41;
},
{
smooth = 0;
x = 146;
y = 44;
},
{
segmentType = curve;
smooth = 1;
x = 143;
y = 46;
},
{
smooth = 0;
x = 141;
y = 47;
},
{
smooth = 0;
x = 144;
y = 43;
},
{
segmentType = curve;
smooth = 0;
x = 144;
y = 41;
},
{
smooth = 0;
x = 151;
y = 28;
},
{
smooth = 0;
x = 170;
y = 31;
}
);
}
);
lib = {
};
name = period;
unicodes = (
);
width = 360;
};
};
};
width = 360;
}
);
unicode = 002E;
},
{
glyphname = zero;
lastChange = "2020-03-15 11:43:34 +0000";
layers = (
{
layerId = master01;
paths = (
{
closed = 1;
nodes = (
"442 -17 OFFCURVE",
"590 80 OFFCURVE",
"681 335 CURVE SMOOTH",
"776 601 OFFCURVE",
"746 735 OFFCURVE",
"579 735 CURVE SMOOTH",
"433 735 OFFCURVE",
"309 629 OFFCURVE",
"209 394 CURVE SMOOTH",
"116 174 OFFCURVE",
"183 -17 OFFCURVE",
"341 -17 CURVE SMOOTH"
);
},
{
closed = 1;
nodes = (
"220 5 OFFCURVE",
"136 159 OFFCURVE",
"234 387 CURVE SMOOTH",
"331 613 OFFCURVE",
"443 713 OFFCURVE",
"579 713 CURVE SMOOTH",
"722 713 OFFCURVE",
"744 590 OFFCURVE",
"654 340 CURVE SMOOTH",
"567 96 OFFCURVE",
"432 5 OFFCURVE",
"342 5 CURVE SMOOTH"
);
}
);
userData = {
com.typemytype.robofont.layerData = {
background = {
anchors = (
);
components = (
);
contours = (
{
points = (
{
segmentType = curve;
smooth = 0;
x = 709;
y = 681;
},
{
smooth = 0;
x = 706;
y = 690;
},
{
smooth = 0;
x = 705;
y = 699;
},
{
segmentType = curve;
smooth = 1;
x = 699;
y = 705;
},
{
smooth = 0;
x = 662;
y = 746;
},
{
smooth = 0;
x = 498;
y = 739;
},
{
segmentType = curve;
smooth = 1;
x = 459;
y = 712;
},
{
smooth = 0;
x = 436;
y = 696;
},
{
smooth = 0;
x = 410;
y = 683;
},
{
segmentType = curve;
smooth = 1;
x = 389;
y = 664;
},
{
smooth = 0;
x = 281;
y = 567;
},
{
smooth = 0;
x = 199;
y = 411;
},
{
segmentType = curve;
smooth = 1;
x = 175;
y = 269;
},
{
smooth = 0;
x = 169;
y = 234;
},
{
smooth = 0;
x = 160;
y = 196;
},
{
segmentType = curve;
smooth = 1;
x = 169;
y = 162;
},
{
smooth = 0;
x = 178;
y = 132;
},
{
smooth = 0;
x = 178;
y = 98;
},
{
segmentType = curve;
smooth = 0;
x = 195;
y = 71;
},
{
smooth = 0;
x = 304;
y = -91;
},
{
smooth = 0;
x = 457;
y = -3;
},
{
segmentType = curve;
smooth = 1;
x = 561;
y = 114;
},
{
smooth = 0;
x = 629;
y = 191;
},
{
smooth = 0;
x = 665;
y = 288;
},
{
segmentType = curve;
smooth = 1;
x = 692;
y = 384;
},
{
smooth = 0;
x = 709;
y = 444;
},
{
smooth = 0;
x = 740;
y = 520;
},
{
segmentType = curve;
smooth = 1;
x = 740;
y = 589;
},
{
smooth = 0;
x = 740;
y = 631;
},
{
smooth = 0;
x = 716;
y = 671;
},
{
segmentType = curve;
smooth = 0;
x = 708;
y = 711;
},
{
smooth = 0;
x = 701;
y = 722;
},
{
smooth = 0;
x = 685;
y = 720;
},
{
segmentType = curve;
smooth = 0;
x = 685;
y = 706;
},
{
smooth = 0;
x = 693;
y = 666;
},
{
smooth = 0;
x = 713;
y = 628;
},
{
segmentType = curve;
smooth = 1;
x = 716;
y = 588;
},
{
smooth = 0;
x = 720;
y = 531;
},
{
smooth = 0;
x = 673;
y = 407;
},
{
segmentType = curve;
smooth = 1;
x = 668;
y = 390;
},
{
smooth = 0;
x = 642;
y = 298;
},
{
smooth = 0;
x = 609;
y = 202;
},
{
segmentType = curve;
smooth = 1;
x = 544;
y = 129;
},
{
smooth = 0;
x = 462;
y = 36;
},
{
smooth = 0;
x = 305;
y = -74;
},
{
segmentType = curve;
smooth = 1;
x = 217;
y = 81;
},
{
smooth = 0;
x = 203;
y = 106;
},
{
smooth = 0;
x = 197;
y = 136;
},
{
segmentType = curve;
smooth = 1;
x = 194;
y = 164;
},
{
smooth = 0;
x = 177;
y = 327;
},
{
smooth = 0;
x = 287;
y = 542;
},
{
segmentType = curve;
smooth = 1;
x = 406;
y = 649;
},
{
smooth = 0;
x = 426;
y = 667;
},
{
smooth = 0;
x = 449;
y = 680;
},
{
segmentType = curve;
smooth = 1;
x = 472;
y = 694;
},
{
smooth = 0;
x = 506;
y = 714;
},
{
smooth = 0;
x = 653;
y = 723;
},
{
segmentType = curve;
smooth = 1;
x = 680;
y = 692;
},
{
smooth = 0;
x = 684;
y = 688;
},
{
smooth = 0;
x = 684;
y = 681;
},
{
segmentType = curve;
smooth = 1;
x = 686;
y = 676;
},
{
smooth = 0;
x = 693;
y = 663;
},
{
smooth = 0;
x = 712;
y = 666;
}
);
}
);
lib = {
};
name = zero;
unicodes = (
);
width = 762;
};
};
};
width = 762;
}
);
unicode = 0030;
},
{
color = 0;
glyphname = one;
lastChange = "2020-03-15 11:43:11 +0000";
layers = (
{
layerId = master01;
paths = (
{
closed = 1;
nodes = (
"466 601 OFFCURVE",
"579 632 OFFCURVE",
"658 700 CURVE SMOOTH",
"672 712 OFFCURVE",
"691 721 OFFCURVE",
"699 737 CURVE",
"701 747 OFFCURVE",
"696 751 OFFCURVE",
"687 752 CURVE",
"686 752 OFFCURVE",
"685 752 OFFCURVE",
"684 751 CURVE",
"678 750 OFFCURVE",
"676 748 OFFCURVE",
"673 742 CURVE",
"646 706 OFFCURVE",
"615 671 OFFCURVE",
"593 631 CURVE SMOOTH",
"574 595 OFFCURVE",
"571 553 OFFCURVE",
"555 516 CURVE SMOOTH",
"511 408 OFFCURVE",
"461 303 OFFCURVE",
"413 197 CURVE SMOOTH",
"389 145 OFFCURVE",
"367 90 OFFCURVE",
"345 37 CURVE",
"337 12 LINE",
"337 8 OFFCURVE",
"331 -2 OFFCURVE",
"335 -1 CURVE SMOOTH",
"339 0 OFFCURVE",
"350 9 OFFCURVE",
"345 9 CURVE",
"331 6 OFFCURVE",
"331 -10 OFFCURVE",
"345 -13 CURVE",
"345 -13 OFFCURVE",
"346 -13 OFFCURVE",
"346 -13 CURVE",
"352 -12 OFFCURVE",
"355 -11 OFFCURVE",
"358 -6 CURVE",
"417 171 OFFCURVE",
"508 338 OFFCURVE",
"579 510 CURVE SMOOTH",
"589 534 OFFCURVE",
"593 560 OFFCURVE",
"600 585 CURVE",
"612 620 OFFCURVE",
"629 646 OFFCURVE",
"638 658 CURVE SMOOTH",
"639 659 OFFCURVE",
"713 750 OFFCURVE",
"690 732 CURVE",
"685 736 OFFCURVE",
"681 740 OFFCURVE",
"676 743 CURVE",
"672 734 OFFCURVE",
"656 726 OFFCURVE",
"647 719 CURVE SMOOTH",
"632 708 OFFCURVE",
"620 693 OFFCURVE",
"604 683 CURVE",
"537 646 OFFCURVE",
"439 622 OFFCURVE",
"363 618 CURVE",
"349 615 OFFCURVE",
"349 599 OFFCURVE",
"363 596 CURVE"
);
},
{
closed = 1;
nodes = (
"259 -10 OFFCURVE",
"378 -2 OFFCURVE",
"497 -1 CURVE",
"513 0 OFFCURVE",
"594 -10 OFFCURVE",
"606 11 CURVE",
"608 25 OFFCURVE",
"593 30 OFFCURVE",
"584 20 CURVE",
"582 16 OFFCURVE",
"583 21 OFFCURVE",
"574 21 CURVE SMOOTH",
"548 21 OFFCURVE",
"524 22 OFFCURVE",
"497 21 CURVE",
"378 20 OFFCURVE",
"259 12 OFFCURVE",
"140 11 CURVE",
"126 8 OFFCURVE",
"126 -8 OFFCURVE",
"140 -11 CURVE"
);
}
);
userData = {
com.typemytype.robofont.mark = (
1,
0.5675,
0.4681,
1
);
};
width = 762;
}
);
unicode = 0031;
},
{
color = 0;
glyphname = two;
lastChange = "2020-03-15 11:43:11 +0000";
layers = (
{
layerId = master01;
paths = (
{
closed = 1;
nodes = (
"335 592 OFFCURVE",
"340 593 OFFCURVE",
"345 594 CURVE",
"392 594 OFFCURVE",
"377 554 OFFCURVE",
"351 550 CURVE",
"316 546 OFFCURVE",
"334 620 OFFCURVE",
"337 625 CURVE SMOOTH",
"353 656 OFFCURVE",
"389 682 OFFCURVE",
"418 695 CURVE SMOOTH",
"475 722 OFFCURVE",
"549 734 OFFCURVE",
"608 708 CURVE",
"689 675 OFFCURVE",
"677 639 OFFCURVE",
"658 572 CURVE SMOOTH",
"653 554 OFFCURVE",
"652 534 OFFCURVE",
"641 518 CURVE SMOOTH",
"575 414 OFFCURVE",
"508 383 OFFCURVE",
"400 330 CURVE SMOOTH",
"367 314 OFFCURVE",
"317 292 OFFCURVE",
"287 267 CURVE SMOOTH",
"227 217 OFFCURVE",
"167 158 OFFCURVE",
"122 92 CURVE SMOOTH",
"110 75 OFFCURVE",
"106 55 OFFCURVE",
"95 37 CURVE SMOOTH",
"84 19 OFFCURVE",
"77 7 OFFCURVE",
"74 -16 CURVE",
"98 -19 LINE",
"102 69 OFFCURVE",
"210 111 OFFCURVE",
"285 86 CURVE SMOOTH",
"376 57 OFFCURVE",
"410 -84 OFFCURVE",
"523 -18 CURVE SMOOTH",
"543 -6 OFFCURVE",
"557 10 OFFCURVE",
"570 28 CURVE SMOOTH",
"589 54 OFFCURVE",
"589 88 OFFCURVE",
"599 102 CURVE SMOOTH",
"609 116 OFFCURVE",
"589 125 OFFCURVE",
"579 114 CURVE",
"571 103 OFFCURVE",
"572 90 OFFCURVE",
"568 76 CURVE SMOOTH",
"558 37 OFFCURVE",
"519 -7 OFFCURVE",
"476 -11 CURVE",
"411 -15 OFFCURVE",
"389 49 OFFCURVE",
"341 83 CURVE SMOOTH",
"252 146 OFFCURVE",
"80 110 OFFCURVE",
"74 -16 CURVE",
"74 -31 OFFCURVE",
"96 -33 OFFCURVE",
"98 -18 CURVE SMOOTH",
"113 70 OFFCURVE",
"238 205 OFFCURVE",
"302 250 CURVE SMOOTH",
"338 276 OFFCURVE",
"372 292 OFFCURVE",
"412 311 CURVE",
"507 359 OFFCURVE",
"636 415 OFFCURVE",
"671 528 CURVE SMOOTH",
"683 564 OFFCURVE",
"713 652 OFFCURVE",
"683 684 CURVE SMOOTH",
"608 767 OFFCURVE",
"420 761 OFFCURVE",
"349 676 CURVE SMOOTH",
"337 661 OFFCURVE",
"318 650 OFFCURVE",
"314 632 CURVE SMOOTH",
"310 615 OFFCURVE",
"299 596 OFFCURVE",
"307 581 CURVE SMOOTH",
"315 566 OFFCURVE",
"319 547 OFFCURVE",
"332 535 CURVE SMOOTH",
"373 498 OFFCURVE",
"434 601 OFFCURVE",
"375 612 CURVE SMOOTH",
"355 616 OFFCURVE",
"341 618 OFFCURVE",
"322 611 CURVE",
"310 603 OFFCURVE",
"316 589 OFFCURVE",
"330 590 CURVE"
);
}
);
userData = {
com.typemytype.robofont.mark = (
1,
0.5675,
0.4681,
1
);
};
width = 762;
}
);
unicode = 0032;
},
{
color = 0;
glyphname = three;
lastChange = "2020-03-15 11:43:11 +0000";
layers = (
{
layerId = master01;
paths = (
{
closed = 1;
nodes = (
"414 616 OFFCURVE",
"444 584 OFFCURVE",
"415 570 CURVE SMOOTH",
"384 554 OFFCURVE",
"374 606 OFFCURVE",
"383 615 CURVE SMOOTH",
"384 616 OFFCURVE",
"379 609 OFFCURVE",
"380 610 CURVE SMOOTH",
"399 626 OFFCURVE",
"402 656 OFFCURVE",
"423 669 CURVE SMOOTH",
"500 720 OFFCURVE",
"588 716 OFFCURVE",
"669 677 CURVE SMOOTH",
"683 671 OFFCURVE",
"685 652 OFFCURVE",
"688 640 CURVE SMOOTH",
"691 630 OFFCURVE",
"699 620 OFFCURVE",
"702 610 CURVE SMOOTH",
"712 570 OFFCURVE",
"668 497 OFFCURVE",
"649 472 CURVE SMOOTH",
"589 389 OFFCURVE",
"492 388 OFFCURVE",
"398 388 CURVE",
"384 385 OFFCURVE",
"384 369 OFFCURVE",
"398 366 CURVE",
"445 364 OFFCURVE",
"492 369 OFFCURVE",
"534 343 CURVE SMOOTH",
"631 285 OFFCURVE",
"619 138 OFFCURVE",
"550 62 CURVE SMOOTH",
"473 -22 OFFCURVE",
"329 -11 OFFCURVE",
"244 53 CURVE SMOOTH",
"198 88 OFFCURVE",
"189 111 OFFCURVE",
"166 163 CURVE",
"151 201 OFFCURVE",
"191 231 OFFCURVE",
"198 263 CURVE SMOOTH",
"201 279 OFFCURVE",
"182 282 OFFCURVE",
"175 269 CURVE",
"167 231 OFFCURVE",
"125 202 OFFCURVE",
"143 158 CURVE SMOOTH",
"173 86 OFFCURVE",
"173 92 OFFCURVE",
"228 37 CURVE SMOOTH",
"311 -44 OFFCURVE",
"492 -36 OFFCURVE",
"569 49 CURVE SMOOTH",
"647 135 OFFCURVE",
"655 297 OFFCURVE",
"547 362 CURVE SMOOTH",
"500 390 OFFCURVE",
"448 386 OFFCURVE",
"396 388 CURVE",
"393 366 LINE",
"472 366 OFFCURVE",
"583 361 OFFCURVE",
"641 427 CURVE SMOOTH",
"677 467 OFFCURVE",
"737 549 OFFCURVE",
"727 608 CURVE SMOOTH",
"725 622 OFFCURVE",
"715 632 OFFCURVE",
"711 646 CURVE SMOOTH",
"706 665 OFFCURVE",
"701 686 OFFCURVE",
"681 696 CURVE SMOOTH",
"573 750 OFFCURVE",
"439 747 OFFCURVE",
"371 636 CURVE SMOOTH",
"365 626 OFFCURVE",
"356 621 OFFCURVE",
"355 608 CURVE SMOOTH",
"353 545 OFFCURVE",
"421 516 OFFCURVE",
"451 577 CURVE SMOOTH",
"465 605 OFFCURVE",
"417 644 OFFCURVE",
"392 630 CURVE SMOOTH",
"378 621 OFFCURVE",
"389 605 OFFCURVE",
"403 611 CURVE SMOOTH"
);
}
);
userData = {
com.typemytype.robofont.mark = (
1,
0.5675,
0.4681,
1
);
};
width = 762;
}
);
unicode = 0033;
},
{
color = 0;
glyphname = four;
lastChange = "2020-03-15 11:43:11 +0000";
layers = (
{
layerId = master01;
paths = (
{
closed = 1;
nodes = (
"663 712 OFFCURVE",
"639 697 OFFCURVE",
"623 673 CURVE SMOOTH",
"616 661 OFFCURVE",
"611 641 OFFCURVE",
"607 630 CURVE SMOOTH",
"581 557 OFFCURVE",
"554 483 OFFCURVE",
"521 413 CURVE SMOOTH",
"510 389 OFFCURVE",
"490 369 OFFCURVE",
"480 344 CURVE SMOOTH",
"453 279 OFFCURVE",
"430 212 OFFCURVE",
"404 146 CURVE SMOOTH",
"385 98 OFFCURVE",
"350 54 OFFCURVE",
"337 4 CURVE",
"337 -10 OFFCURVE",
"353 -12 OFFCURVE",
"360 -2 CURVE",
"373 49 OFFCURVE",
"408 93 OFFCURVE",
"427 141 CURVE SMOOTH",
"454 206 OFFCURVE",
"476 273 OFFCURVE",
"503 338 CURVE SMOOTH",
"516 368 OFFCURVE",
"539 391 OFFCURVE",
"550 420 CURVE SMOOTH",
"582 498 OFFCURVE",
"611 575 OFFCURVE",
"640 653 CURVE SMOOTH",
"653 686 OFFCURVE",
"685 700 OFFCURVE",
"691 736 CURVE SMOOTH",
"694 752 OFFCURVE",
"675 755 OFFCURVE",
"668 742 CURVE"
);
},
{
closed = 1;
nodes = (
"575 710 OFFCURVE",
"497 636 OFFCURVE",
"421 570 CURVE SMOOTH",
"343 501 OFFCURVE",
"264 431 OFFCURVE",
"195 352 CURVE SMOOTH",
"156 307 OFFCURVE",
"129 251 OFFCURVE",
"88 207 CURVE SMOOTH",
"81 199 OFFCURVE",
"85 191 OFFCURVE",
"95 188 CURVE",
"132 188 OFFCURVE",
"167 180 OFFCURVE",
"203 180 CURVE SMOOTH",
"370 182 OFFCURVE",
"536 194 OFFCURVE",
"703 196 CURVE",
"719 198 OFFCURVE",
"719 216 OFFCURVE",
"703 218 CURVE",
"536 216 OFFCURVE",
"370 204 OFFCURVE",
"203 202 CURVE SMOOTH",
"167 202 OFFCURVE",
"131 210 OFFCURVE",
"94 210 CURVE",
"103 190 LINE",
"146 236 OFFCURVE",
"174 289 OFFCURVE",
"212 337 CURVE SMOOTH",
"256 392 OFFCURVE",
"310 439 OFFCURVE",
"361 486 CURVE SMOOTH",
"453 570 OFFCURVE",
"562 680 OFFCURVE",
"677 729 CURVE SMOOTH",
"693 736 OFFCURVE",
"684 754 OFFCURVE",
"669 750 CURVE"
);
},
{
closed = 1;
nodes = (
"309 -18 OFFCURVE",
"406 -6 OFFCURVE",
"504 -5 CURVE",
"520 -3 OFFCURVE",
"520 15 OFFCURVE",
"504 17 CURVE",
"406 16 OFFCURVE",
"309 4 OFFCURVE",
"211 3 CURVE",
"197 0 OFFCURVE",
"197 -16 OFFCURVE",
"211 -19 CURVE"
);
}
);
userData = {
com.typemytype.robofont.mark = (
1,
0.5675,
0.4681,
1
);
};
width = 762;
}
);
unicode = 0034;
},
{
color = 0;
glyphname = five;
lastChange = "2020-03-15 11:43:11 +0000";
layers = (
{
layerId = master01;
paths = (
{
closed = 1;
nodes = (
"418 697 OFFCURVE",
"410 674 OFFCURVE",
"400 656 CURVE SMOOTH",
"370 602 OFFCURVE",
"333 551 OFFCURVE",
"303 496 CURVE SMOOTH",
"286 465 OFFCURVE",
"279 428 OFFCURVE",
"258 400 CURVE",
"252 386 OFFCURVE",
"269 381 OFFCURVE",
"278 388 CURVE",
"292 407 OFFCURVE",
"305 404 OFFCURVE",
"326 408 CURVE SMOOTH",
"398 423 OFFCURVE",
"516 431 OFFCURVE",
"564 361 CURVE",
"591 324 OFFCURVE",
"584 272 OFFCURVE",
"577 230 CURVE SMOOTH",
"559 117 OFFCURVE",
"500 12 OFFCURVE",
"373 2 CURVE",
"322 -1 OFFCURVE",
"272 16 OFFCURVE",
"231 47 CURVE",
"173 93 OFFCURVE",
"153 154 OFFCURVE",
"145 224 CURVE SMOOTH",
"143 239 OFFCURVE",
"121 237 OFFCURVE",
"121 222 CURVE",
"132 132 OFFCURVE",
"153 92 OFFCURVE",
"216 30 CURVE SMOOTH",
"244 3 OFFCURVE",
"279 -4 OFFCURVE",
"314 -15 CURVE SMOOTH",
"335 -21 OFFCURVE",
"357 -23 OFFCURVE",
"377 -19 CURVE SMOOTH",
"465 -2 OFFCURVE",
"507 16 OFFCURVE",
"553 92 CURVE SMOOTH",
"581 138 OFFCURVE",
"594 173 OFFCURVE",
"601 228 CURVE",
"607 265 OFFCURVE",
"612 304 OFFCURVE",
"600 340 CURVE SMOOTH",
"594 361 OFFCURVE",
"576 392 OFFCURVE",
"556 402 CURVE SMOOTH",
"482 441 OFFCURVE",
"404 446 OFFCURVE",
"322 430 CURVE SMOOTH",
"293 424 OFFCURVE",
"277 424 OFFCURVE",
"257 399 CURVE",
"278 387 LINE",
"295 411 OFFCURVE",
"301 439 OFFCURVE",
"313 464 CURVE SMOOTH",
"341 521 OFFCURVE",
"373 574 OFFCURVE",
"407 626 CURVE SMOOTH",
"409 630 OFFCURVE",
"399 614 OFFCURVE",
"401 617 CURVE SMOOTH",
"412 631 OFFCURVE",
"435 682 OFFCURVE",
"447 688 CURVE",
"459 698 OFFCURVE",
"449 710 OFFCURVE",
"436 707 CURVE"
);
},
{
closed = 1;
nodes = (
"417 679 OFFCURVE",
"451 663 OFFCURVE",
"460 657 CURVE SMOOTH",
"540 597 OFFCURVE",
"598 586 OFFCURVE",
"693 631 CURVE SMOOTH",
"720 644 OFFCURVE",
"753 655 OFFCURVE",
"774 676 CURVE SMOOTH",
"797 699 OFFCURVE",
"810 729 OFFCURVE",
"827 756 CURVE",
"829 770 OFFCURVE",
"814 775 OFFCURVE",
"805 765 CURVE",
"766 702 OFFCURVE",
"758 682 OFFCURVE",
"682 650 CURVE SMOOTH",
"647 636 OFFCURVE",
"613 626 OFFCURVE",
"575 627 CURVE SMOOTH",
"553 628 OFFCURVE",
"533 632 OFFCURVE",
"513 644 CURVE SMOOTH",
"492 657 OFFCURVE",
"440 689 OFFCURVE",
"435 716 CURVE",
"428 727 OFFCURVE",
"412 725 OFFCURVE",
"412 711 CURVE"
);
}
);
userData = {
com.typemytype.robofont.mark = (
1,
0.5675,
0.4681,
1
);
};
width = 762;
}
);
unicode = 0035;
},
{
color = 0;
glyphname = six;
lastChange = "2020-03-15 11:43:11 +0000";
layers = (
{
layerId = master01;
paths = (
{
closed = 1;
nodes = (
"734 642 OFFCURVE",
"683 606 OFFCURVE",
"689 562 CURVE SMOOTH",
"694 525 OFFCURVE",
"768 531 OFFCURVE",
"782 582 CURVE SMOOTH",
"812 688 OFFCURVE",
"631 773 OFFCURVE",
"546 741 CURVE SMOOTH",
"489 719 OFFCURVE",
"429 687 OFFCURVE",
"384 644 CURVE SMOOTH",
"373 633 OFFCURVE",
"366 615 OFFCURVE",
"356 602 CURVE SMOOTH",
"304 527 OFFCURVE",
"260 449 OFFCURVE",
"225 364 CURVE SMOOTH",
"186 270 OFFCURVE",
"145 128 OFFCURVE",
"235 46 CURVE SMOOTH",
"309 -21 OFFCURVE",
"436 -36 OFFCURVE",
"511 42 CURVE SMOOTH",
"534 66 OFFCURVE",
"565 84 OFFCURVE",
"578 113 CURVE SMOOTH",
"616 195 LINE SMOOTH",
"637 239 OFFCURVE",
"613 336 OFFCURVE",
"561 354 CURVE",
"485 382 OFFCURVE",
"476 395 OFFCURVE",
"412 394 CURVE SMOOTH",
"375 394 OFFCURVE",
"337 385 OFFCURVE",
"304 368 CURVE SMOOTH",
"260 347 OFFCURVE",
"225 313 OFFCURVE",
"190 280 CURVE",
"179 267 OFFCURVE",
"196 256 OFFCURVE",
"207 265 CURVE",
"269 325 OFFCURVE",
"357 396 OFFCURVE",
"450 370 CURVE",
"544 345 OFFCURVE",
"621 316 OFFCURVE",
"593 200 CURVE SMOOTH",
"555 42 OFFCURVE",
"304 -88 OFFCURVE",
"219 109 CURVE SMOOTH",
"194 167 OFFCURVE",
"207 235 OFFCURVE",
"224 292 CURVE SMOOTH",
"257 400 OFFCURVE",
"311 500 OFFCURVE",
"376 590 CURVE SMOOTH",
"386 603 OFFCURVE",
"392 619 OFFCURVE",
"402 630 CURVE SMOOTH",
"432 663 OFFCURVE",
"476 683 OFFCURVE",
"515 702 CURVE SMOOTH",
"531 709 OFFCURVE",
"564 727 OFFCURVE",
"584 728 CURVE SMOOTH",
"643 732 OFFCURVE",
"717 693 OFFCURVE",
"748 643 CURVE SMOOTH",
"762 622 OFFCURVE",
"770 574 OFFCURVE",
"739 561 CURVE",
"687 551 OFFCURVE",
"726 619 OFFCURVE",
"750 595 CURVE",
"760 588 OFFCURVE",
"776 597 OFFCURVE",
"767 609 CURVE"
);
}
);
userData = {
com.typemytype.robofont.mark = (
1,
0.5675,
0.4681,
1
);
};
width = 762;
}
);
unicode = 0036;
},
{
color = 0;
glyphname = seven;
lastChange = "2020-03-15 11:43:11 +0000";
layers = (
{
layerId = master01;
paths = (
{
closed = 1;
nodes = (
"316 625 OFFCURVE",
"326 650 OFFCURVE",
"335 673 CURVE SMOOTH",
"339 683 OFFCURVE",
"344 697 OFFCURVE",
"351 704 CURVE SMOOTH",
"360 713 OFFCURVE",
"464 698 OFFCURVE",
"486 696 CURVE SMOOTH",
"551 691 OFFCURVE",
"619 697 OFFCURVE",
"684 698 CURVE SMOOTH",
"710 699 OFFCURVE",
"742 699 OFFCURVE",
"768 695 CURVE SMOOTH",
"777 694 OFFCURVE",
"785 688 OFFCURVE",
"793 689 CURVE SMOOTH",
"798 690 OFFCURVE",
"787 697 OFFCURVE",
"783 698 CURVE SMOOTH",
"781 699 OFFCURVE",
"784 694 OFFCURVE",
"784 692 CURVE SMOOTH",
"783 687 OFFCURVE",
"781 679 OFFCURVE",
"779 674 CURVE SMOOTH",
"753 619 LINE",
"735 584 OFFCURVE",
"722 562 OFFCURVE",
"697 531 CURVE SMOOTH",
"617 432 OFFCURVE",
"484 403 OFFCURVE",
"392 317 CURVE SMOOTH",
"323 254 OFFCURVE",
"236 69 OFFCURVE",
"314 -6 CURVE SMOOTH",
"341 -31 OFFCURVE",
"430 -24 OFFCURVE",
"409 28 CURVE",
"393 71 OFFCURVE",
"334 48 OFFCURVE",
"325 2 CURVE",
"325 -12 OFFCURVE",
"341 -14 OFFCURVE",
"348 -4 CURVE",
"364 76 OFFCURVE",
"441 -25 OFFCURVE",
"332 8 CURVE",
"276 64 OFFCURVE",
"331 212 OFFCURVE",
"374 265 CURVE SMOOTH",
"424 328 OFFCURVE",
"477 353 OFFCURVE",
"561 401 CURVE SMOOTH",
"604 426 OFFCURVE",
"654 452 OFFCURVE",
"688 488 CURVE SMOOTH",
"726 528 OFFCURVE",
"713 514 OFFCURVE",
"746 559 CURVE SMOOTH",
"766 587 OFFCURVE",
"818 664 OFFCURVE",
"806 703 CURVE",
"804 707 OFFCURVE",
"802 709 OFFCURVE",
"798 710 CURVE SMOOTH",
"711 733 OFFCURVE",
"619 716 OFFCURVE",
"530 716 CURVE SMOOTH",
"491 716 OFFCURVE",
"454 724 OFFCURVE",
"415 725 CURVE SMOOTH",
"350 728 OFFCURVE",
"336 740 OFFCURVE",
"312 679 CURVE SMOOTH",
"302 654 OFFCURVE",
"293 628 OFFCURVE",
"291 601 CURVE",
"291 586 OFFCURVE",
"313 584 OFFCURVE",
"315 599 CURVE"
);
}
);
userData = {
com.typemytype.robofont.mark = (
1,
0.5675,
0.4681,
1
);
};
width = 762;
}
);
unicode = 0037;
},
{
color = 0;
glyphname = eight;
lastChange = "2020-03-15 11:43:11 +0000";
layers = (
{
layerId = master01;
paths = (
{
closed = 1;
nodes = (
"531 378 OFFCURVE",
"549 381 OFFCURVE",
"561 390 CURVE SMOOTH",
"633 441 OFFCURVE",
"719 499 OFFCURVE",
"747 585 CURVE SMOOTH",
"759 620 OFFCURVE",
"744 660 OFFCURVE",
"727 689 CURVE",
"710 721 OFFCURVE",
"666 760 OFFCURVE",
"630 766 CURVE SMOOTH",
"616 769 OFFCURVE",
"602 767 OFFCURVE",
"588 769 CURVE SMOOTH",
"574 771 OFFCURVE",
"560 777 OFFCURVE",
"545 774 CURVE SMOOTH",
"525 770 OFFCURVE",
"503 760 OFFCURVE",
"484 753 CURVE SMOOTH",
"463 745 OFFCURVE",
"437 742 OFFCURVE",
"419 727 CURVE SMOOTH",
"255 594 OFFCURVE",
"434 426 OFFCURVE",
"533 313 CURVE SMOOTH",
"548 296 OFFCURVE",
"557 271 OFFCURVE",
"572 251 CURVE SMOOTH",
"597 219 OFFCURVE",
"584 99 OFFCURVE",
"569 68 CURVE SMOOTH",
"561 52 OFFCURVE",
"548 41 OFFCURVE",
"532 32 CURVE",
"501 17 OFFCURVE",
"467 13 OFFCURVE",
"434 6 CURVE SMOOTH",
"365 -9 OFFCURVE",
"362 -7 OFFCURVE",
"305 7 CURVE",
"289 12 OFFCURVE",
"270 14 OFFCURVE",
"256 24 CURVE",
"218 55 OFFCURVE",
"197 94 OFFCURVE",
"184 140 CURVE",
"149 277 OFFCURVE",
"212 348 OFFCURVE",
"319 413 CURVE SMOOTH",
"347 430 OFFCURVE",
"372 446 OFFCURVE",
"404 450 CURVE",
"418 456 OFFCURVE",
"414 470 OFFCURVE",
"400 472 CURVE",
"361 467 OFFCURVE",
"330 446 OFFCURVE",
"297 426 CURVE SMOOTH",
"185 357 OFFCURVE",
"125 273 OFFCURVE",
"161 135 CURVE SMOOTH",
"175 82 OFFCURVE",
"200 43 OFFCURVE",
"241 8 CURVE SMOOTH",
"258 -6 OFFCURVE",
"283 -10 OFFCURVE",
"303 -14 CURVE SMOOTH",
"368 -27 OFFCURVE",
"409 -32 OFFCURVE",
"510 0 CURVE SMOOTH",
"586 24 OFFCURVE",
"611 82 OFFCURVE",
"609 158 CURVE SMOOTH",
"608 188 OFFCURVE",
"609 225 OFFCURVE",
"598 253 CURVE SMOOTH",
"593 265 OFFCURVE",
"581 275 OFFCURVE",
"574 287 CURVE SMOOTH",
"524 372 OFFCURVE",
"443 432 OFFCURVE",
"399 523 CURVE SMOOTH",
"364 596 OFFCURVE",
"365 664 OFFCURVE",
"434 711 CURVE SMOOTH",
"451 723 OFFCURVE",
"473 726 OFFCURVE",
"492 732 CURVE",
"555 755 OFFCURVE",
"537 749 OFFCURVE",
"592 746 CURVE",
"636 745 OFFCURVE",
"660 732 OFFCURVE",
"692 697 CURVE SMOOTH",
"718 669 OFFCURVE",
"732 630 OFFCURVE",
"724 591 CURVE SMOOTH",
"708 516 OFFCURVE",
"604 448 OFFCURVE",
"545 406 CURVE SMOOTH",
"532 396 OFFCURVE",
"515 392 OFFCURVE",
"502 381 CURVE",
"491 368 OFFCURVE",
"508 357 OFFCURVE",
"519 366 CURVE"
);
}
);
userData = {
com.typemytype.robofont.mark = (
1,
0.5675,
0.4681,
1
);
};
width = 762;
}
);
unicode = 0038;
},
{
color = 0;
glyphname = nine;
lastChange = "2020-03-15 11:43:11 +0000";
layers = (
{
layerId = master01;
paths = (
{
closed = 1;
nodes = (
"617 380 OFFCURVE",
"597 381 OFFCURVE",
"566 381 CURVE SMOOTH",
"548 381 OFFCURVE",
"526 374 OFFCURVE",
"509 380 CURVE SMOOTH",
"350 439 OFFCURVE",
"320 660 OFFCURVE",
"496 701 CURVE SMOOTH",
"512 705 OFFCURVE",
"529 707 OFFCURVE",
"545 710 CURVE SMOOTH",
"549 711 OFFCURVE",
"532 710 OFFCURVE",
"535 710 CURVE SMOOTH",
"584 715 OFFCURVE",
"688 708 OFFCURVE",
"710 651 CURVE SMOOTH",
"720 626 OFFCURVE",
"732 600 OFFCURVE",
"733 572 CURVE SMOOTH",
"742 396 OFFCURVE",
"573 146 OFFCURVE",
"422 63 CURVE SMOOTH",
"275 -17 OFFCURVE",
"171 49 OFFCURVE",
"165 192 CURVE",
"163 207 OFFCURVE",
"141 205 OFFCURVE",
"141 190 CURVE SMOOTH",
"143 135 OFFCURVE",
"161 45 OFFCURVE",
"228 30 CURVE SMOOTH",
"262 23 OFFCURVE",
"296 -1 OFFCURVE",
"329 9 CURVE",
"364 21 OFFCURVE",
"404 22 OFFCURVE",
"433 44 CURVE SMOOTH",
"468 70 OFFCURVE",
"507 90 OFFCURVE",
"535 122 CURVE SMOOTH",
"645 249 OFFCURVE",
"679 298 OFFCURVE",
"742 463 CURVE SMOOTH",
"756 498 OFFCURVE",
"753 537 OFFCURVE",
"758 574 CURVE SMOOTH",
"762 603 OFFCURVE",
"742 630 OFFCURVE",
"733 658 CURVE SMOOTH",
"717 712 OFFCURVE",
"611 736 OFFCURVE",
"565 734 CURVE",
"514 733 OFFCURVE",
"462 718 OFFCURVE",
"417 694 CURVE SMOOTH",
"400 685 OFFCURVE",
"393 667 OFFCURVE",
"383 651 CURVE SMOOTH",
"375 639 OFFCURVE",
"364 627 OFFCURVE",
"358 612 CURVE SMOOTH",
"340 565 OFFCURVE",
"358 490 OFFCURVE",
"386 451 CURVE SMOOTH",
"444 370 OFFCURVE",
"475 359 OFFCURVE",
"566 359 CURVE SMOOTH",
"593 359 OFFCURVE",
"626 359 OFFCURVE",
"648 376 CURVE SMOOTH",
"661 387 OFFCURVE",
"647 401 OFFCURVE",
"634 393 CURVE"
);
}
);
userData = {
com.typemytype.robofont.mark = (
1,
0.5675,
0.4681,
1
);
};
width = 762;
}
);
unicode = 0039;
},
{
color = 0;
glyphname = A;
lastChange = "2020-03-15 11:43:11 +0000";
layers = (
{
layerId = master01;
paths = (
{
closed = 1;
nodes = (
"106 67 OFFCURVE",
"193 125 OFFCURVE",
"261 182 CURVE SMOOTH",
"268 188 OFFCURVE",
"235 159 OFFCURVE",
"241 165 CURVE",
"339 246 OFFCURVE",
"433 331 OFFCURVE",
"527 416 CURVE SMOOTH",
"569 453 OFFCURVE",
"607 494 OFFCURVE",
"650 530 CURVE SMOOTH",
"715 585 OFFCURVE",
"782 638 OFFCURVE",
"848 691 CURVE SMOOTH",
"866 706 OFFCURVE",
"889 713 OFFCURVE",
"906 730 CURVE",
"891 747 LINE",
"867 647 OFFCURVE",
"819 552 OFFCURVE",
"778 457 CURVE SMOOTH",
"735 356 OFFCURVE",
"692 255 OFFCURVE",
"645 156 CURVE SMOOTH",
"635 135 OFFCURVE",
"561 4 OFFCURVE",
"553 2 CURVE",
"541 -6 OFFCURVE",
"547 -20 OFFCURVE",
"561 -19 CURVE",
"585 -11 OFFCURVE",
"658 129 OFFCURVE",
"668 150 CURVE SMOOTH",
"716 250 OFFCURVE",
"759 351 OFFCURVE",
"802 452 CURVE SMOOTH",
"842 545 OFFCURVE",
"890 639 OFFCURVE",
"914 737 CURVE",
"915 747 OFFCURVE",
"907 753 OFFCURVE",
"897 750 CURVE",
"854 732 OFFCURVE",
"788 668 OFFCURVE",
"738 628 CURVE SMOOTH",
"697 595 OFFCURVE",
"654 564 OFFCURVE",
"614 529 CURVE SMOOTH",
"516 443 OFFCURVE",
"424 349 OFFCURVE",
"324 264 CURVE SMOOTH",
"259 208 OFFCURVE",
"192 154 OFFCURVE",
"127 97 CURVE SMOOTH",
"94 68 OFFCURVE",
"60 41 OFFCURVE",
"34 5 CURVE",
"28 -9 OFFCURVE",
"45 -14 OFFCURVE",
"54 -7 CURVE"
);
},
{
closed = 1;
nodes = (
"528 -19 OFFCURVE",
"612 -24 OFFCURVE",
"693 -18 CURVE",
"705 -16 OFFCURVE",
"711 -6 OFFCURVE",
"700 2 CURVE",
"700 3 OFFCURVE",
"700 3 OFFCURVE",
"699 3 CURVE SMOOTH",
"685 9 OFFCURVE",
"674 -7 OFFCURVE",
"688 -16 CURVE",
"688 -16 OFFCURVE",
"689 -16 OFFCURVE",
"689 -17 CURVE",
"694 4 LINE",
"613 -1 OFFCURVE",
"529 3 OFFCURVE",
"448 3 CURVE",
"434 0 OFFCURVE",
"434 -16 OFFCURVE",
"448 -19 CURVE"
);
},
{
closed = 1;
nodes = (
"19 -10 OFFCURVE",
"111 -1 OFFCURVE",
"204 0 CURVE",
"220 2 OFFCURVE",
"220 20 OFFCURVE",
"204 22 CURVE",
"111 21 OFFCURVE",
"19 12 OFFCURVE",
"-74 11 CURVE",
"-88 8 OFFCURVE",
"-88 -8 OFFCURVE",
"-74 -11 CURVE"
);
},
{
closed = 1;
nodes = (
"479 293 OFFCURVE",
"599 280 OFFCURVE",
"715 278 CURVE",
"731 280 OFFCURVE",
"731 298 OFFCURVE",
"715 300 CURVE",
"598 302 OFFCURVE",
"476 316 OFFCURVE",
"360 295 CURVE",
"344 291 OFFCURVE",
"348 271 OFFCURVE",
"364 273 CURVE"
);
}
);
userData = {
com.typemytype.robofont.mark = (
1,
0.5675,
0.4681,
1
);
};
width = 890;
}
);
unicode = 0041;
},
{
color = 0;
glyphname = B;
lastChange = "2020-03-15 11:43:11 +0000";
layers = (
{
layerId = master01;
paths = (
{
closed = 1;
nodes = (
"435 693 OFFCURVE",
"411 673 OFFCURVE",
"398 649 CURVE SMOOTH",
"384 624 OFFCURVE",
"375 595 OFFCURVE",
"362 569 CURVE SMOOTH",
"360 566 OFFCURVE",
"369 583 OFFCURVE",
"367 580 CURVE SMOOTH",
"328 506 OFFCURVE",
"297 428 OFFCURVE",
"259 354 CURVE SMOOTH",
"240 315 OFFCURVE",
"215 281 OFFCURVE",
"190 244 CURVE SMOOTH",
"169 212 OFFCURVE",
"164 170 OFFCURVE",
"148 134 CURVE SMOOTH",
"129 88 OFFCURVE",
"89 48 OFFCURVE",
"83 -4 CURVE",
"83 -19 OFFCURVE",
"105 -21 OFFCURVE",
"107 -6 CURVE SMOOTH",
"113 44 OFFCURVE",
"153 84 OFFCURVE",
"172 128 CURVE SMOOTH",
"187 163 OFFCURVE",
"193 202 OFFCURVE",
"212 235 CURVE SMOOTH",
"233 272 OFFCURVE",
"261 304 OFFCURVE",
"280 343 CURVE SMOOTH",
"313 407 OFFCURVE",
"338 475 OFFCURVE",
"371 538 CURVE SMOOTH",
"389 572 OFFCURVE",
"403 608 OFFCURVE",
"420 641 CURVE SMOOTH",
"433 666 OFFCURVE",
"458 687 OFFCURVE",
"462 715 CURVE SMOOTH",
"465 731 OFFCURVE",
"446 734 OFFCURVE",
"439 721 CURVE"
);
},
{
closed = 1;
nodes = (
"383 711 OFFCURVE",
"558 728 OFFCURVE",
"631 694 CURVE SMOOTH",
"739 645 OFFCURVE",
"666 483 OFFCURVE",
"598 439 CURVE SMOOTH",
"511 383 OFFCURVE",
"395 413 OFFCURVE",
"298 413 CURVE",
"284 410 OFFCURVE",
"284 394 OFFCURVE",
"298 391 CURVE",
"329 387 OFFCURVE",
"323 382 OFFCURVE",
"352 376 CURVE SMOOTH",
"384 370 OFFCURVE",
"412 370 OFFCURVE",
"444 360 CURVE SMOOTH",
"489 347 OFFCURVE",
"554 324 OFFCURVE",
"583 286 CURVE SMOOTH",
"642 209 OFFCURVE",
"585 89 OFFCURVE",
"514 44 CURVE SMOOTH",
"427 -11 OFFCURVE",
"224 2 OFFCURVE",
"129 8 CURVE",
"80 12 OFFCURVE",
"77 12 OFFCURVE",
"28 17 CURVE SMOOTH",
"23 18 OFFCURVE",
"48 15 OFFCURVE",
"43 16 CURVE",
"42 16 OFFCURVE",
"16 23 OFFCURVE",
"6 23 CURVE SMOOTH",
"-11 23 LINE",
"-12 24 OFFCURVE",
"-16 26 OFFCURVE",
"-16 25 CURVE SMOOTH",
"-15 24 OFFCURVE",
"-11 21 OFFCURVE",
"-12 22 CURVE SMOOTH",
"-19 33 OFFCURVE",
"-35 31 OFFCURVE",
"-35 17 CURVE",
"-25 -13 OFFCURVE",
"173 -16 OFFCURVE",
"188 -17 CURVE SMOOTH",
"279 -21 OFFCURVE",
"445 -26 OFFCURVE",
"528 26 CURVE SMOOTH",
"553 42 OFFCURVE",
"583 66 OFFCURVE",
"596 92 CURVE SMOOTH",
"691 280 OFFCURVE",
"570 354 OFFCURVE",
"405 393 CURVE SMOOTH",
"389 397 OFFCURVE",
"372 395 OFFCURVE",
"356 398 CURVE SMOOTH",
"338 402 OFFCURVE",
"320 410 OFFCURVE",
"301 412 CURVE",
"300 405 OFFCURVE",
"298 398 OFFCURVE",
"296 391 CURVE",
"404 391 OFFCURVE",
"510 371 OFFCURVE",
"610 421 CURVE SMOOTH",
"643 437 OFFCURVE",
"661 471 OFFCURVE",
"680 499 CURVE SMOOTH",
"731 575 OFFCURVE",
"717 699 OFFCURVE",
"615 723 CURVE SMOOTH",
"513 748 OFFCURVE",
"401 734 OFFCURVE",
"298 732 CURVE",
"284 729 OFFCURVE",
"284 713 OFFCURVE",
"298 710 CURVE"
);
}
);
userData = {
com.typemytype.robofont.mark = (
1,
0.5675,
0.4681,
1
);
};
width = 721;
}
);
unicode = 0042;
},
{
color = 0;
glyphname = E;
lastChange = "2020-03-15 11:43:11 +0000";
layers = (
{
layerId = master01;
paths = (
{
closed = 1;
nodes = (
"427 725 OFFCURVE",
"380 622 OFFCURVE",
"372 607 CURVE SMOOTH",
"351 569 OFFCURVE",
"328 529 OFFCURVE",
"312 487 CURVE SMOOTH",
"303 464 OFFCURVE",
"300 439 OFFCURVE",
"289 416 CURVE SMOOTH",
"272 381 OFFCURVE",
"244 349 OFFCURVE",
"225 314 CURVE SMOOTH",
"196 261 OFFCURVE",
"176 204 OFFCURVE",
"154 147 CURVE SMOOTH",
"140 113 OFFCURVE",
"118 82 OFFCURVE",
"103 49 CURVE",
"102 45 OFFCURVE",
"91 6 OFFCURVE",
"87 6 CURVE",
"73 -3 OFFCURVE",
"84 -19 OFFCURVE",
"98 -13 CURVE",
"116 -3 OFFCURVE",
"120 26 OFFCURVE",
"127 43 CURVE",
"171 105 OFFCURVE",
"188 180 OFFCURVE",
"219 248 CURVE SMOOTH",
"238 288 OFFCURVE",
"258 326 OFFCURVE",
"281 363 CURVE SMOOTH",
"291 379 OFFCURVE",
"304 393 OFFCURVE",
"312 409 CURVE SMOOTH",
"323 433 OFFCURVE",
"326 458 OFFCURVE",
"335 482 CURVE SMOOTH",
"359 543 OFFCURVE",
"395 599 OFFCURVE",
"425 655 CURVE SMOOTH",
"434 671 OFFCURVE",
"439 684 OFFCURVE",
"446 700 CURVE SMOOTH",
"447 703 OFFCURVE",
"450 708 OFFCURVE",
"450 708 CURVE",
"466 715 OFFCURVE",
"457 733 OFFCURVE",
"442 729 CURVE SMOOTH"
);
},
{
closed = 1;
nodes = (
"140 -17 OFFCURVE",
"270 -12 OFFCURVE",
"400 -12 CURVE SMOOTH",
"426 -12 OFFCURVE",
"512 -21 OFFCURVE",
"534 -7 CURVE SMOOTH",
"574 17 OFFCURVE",
"588 100 OFFCURVE",
"608 137 CURVE SMOOTH",
"625 168 OFFCURVE",
"648 199 OFFCURVE",
"655 233 CURVE SMOOTH",
"658 249 OFFCURVE",
"639 252 OFFCURVE",
"632 239 CURVE",
"622 192 OFFCURVE",
"612 200 OFFCURVE",
"585 143 CURVE SMOOTH",
"570 111 OFFCURVE",
"559 77 OFFCURVE",
"544 44 CURVE SMOOTH",
"543 42 OFFCURVE",
"549 55 OFFCURVE",
"547 52 CURVE SMOOTH",
"541 41 OFFCURVE",
"534 20 OFFCURVE",
"522 12 CURVE SMOOTH",
"508 4 OFFCURVE",
"418 10 OFFCURVE",
"400 10 CURVE SMOOTH",
"270 10 OFFCURVE",
"140 5 OFFCURVE",
"10 5 CURVE",
"-4 2 OFFCURVE",
"-4 -14 OFFCURVE",
"10 -17 CURVE"
);
},
{
closed = 1;
nodes = (
"431 712 OFFCURVE",
"538 713 OFFCURVE",
"644 713 CURVE",
"687 714 OFFCURVE",
"730 714 OFFCURVE",
"773 714 CURVE SMOOTH",
"837 714 LINE SMOOTH",
"841 714 OFFCURVE",
"851 710 OFFCURVE",
"850 714 CURVE SMOOTH",
"838 746 OFFCURVE",
"840 726 OFFCURVE",
"837 722 CURVE",
"812 673 LINE SMOOTH",
"810 669 OFFCURVE",
"820 689 OFFCURVE",
"817 685 CURVE",
"801 654 OFFCURVE",
"786 621 OFFCURVE",
"767 590 CURVE SMOOTH",
"760 578 OFFCURVE",
"750 568 OFFCURVE",
"744 555 CURVE SMOOTH",
"737 540 OFFCURVE",
"733 514 OFFCURVE",
"723 504 CURVE SMOOTH",
"712 491 OFFCURVE",
"729 480 OFFCURVE",
"740 489 CURVE",
"756 505 OFFCURVE",
"758 530 OFFCURVE",
"767 549 CURVE SMOOTH",
"788 591 OFFCURVE",
"817 631 OFFCURVE",
"838 673 CURVE SMOOTH",
"843 684 OFFCURVE",
"864 712 OFFCURVE",
"861 729 CURVE",
"858 734 OFFCURVE",
"855 736 OFFCURVE",
"849 736 CURVE SMOOTH",
"674 736 OFFCURVE",
"499 734 OFFCURVE",
"324 734 CURVE",
"310 731 OFFCURVE",
"310 715 OFFCURVE",
"324 712 CURVE"
);
},
{
closed = 1;
nodes = (
"329 381 OFFCURVE",
"467 370 OFFCURVE",
"496 391 CURVE",
"509 402 OFFCURVE",
"495 416 OFFCURVE",
"482 408 CURVE",
"468 397 OFFCURVE",
"315 403 OFFCURVE",
"288 403 CURVE",
"274 400 OFFCURVE",
"274 384 OFFCURVE",
"288 381 CURVE"
);
},
{
closed = 1;
nodes = (
"521 461 OFFCURVE",
"465 322 OFFCURVE",
"415 245 CURVE",
"408 230 OFFCURVE",
"430 225 OFFCURVE",
"437 236 CURVE SMOOTH",
"487 315 OFFCURVE",
"544 454 OFFCURVE",
"565 544 CURVE",
"568 560 OFFCURVE",
"549 563 OFFCURVE",
"542 550 CURVE"
);
}
);
userData = {
com.typemytype.robofont.mark = (
1,
0.5675,
0.4681,
1
);
};
width = 779;
}
);
unicode = 0045;
},
{
color = 0;
glyphname = F;
lastChange = "2020-03-15 11:43:11 +0000";
layers = (
{
layerId = master01;
paths = (
{
closed = 1;
nodes = (
"451 708 OFFCURVE",
"379 603 OFFCURVE",
"367 582 CURVE SMOOTH",
"289 441 OFFCURVE",
"217 301 OFFCURVE",
"153 153 CURVE SMOOTH",
"145 134 OFFCURVE",
"127 91 OFFCURVE",
"117 71 CURVE SMOOTH",
"109 55 OFFCURVE",
"92 30 OFFCURVE",
"87 9 CURVE SMOOTH",
"86 4 OFFCURVE",
"78 -9 OFFCURVE",
"88 2 CURVE",
"88 3 OFFCURVE",
"87 1 OFFCURVE",
"86 1 CURVE SMOOTH",
"72 -8 OFFCURVE",
"83 -24 OFFCURVE",
"97 -18 CURVE SMOOTH",
"110 -12 OFFCURVE",
"173 138 OFFCURVE",
"177 147 CURVE SMOOTH",
"240 295 OFFCURVE",
"312 434 OFFCURVE",
"389 574 CURVE SMOOTH",
"399 591 OFFCURVE",
"480 707 OFFCURVE",
"474 732 CURVE",
"467 743 OFFCURVE",
"451 741 OFFCURVE",
"451 727 CURVE SMOOTH"
);
},
{
closed = 1;
nodes = (
"407 710 OFFCURVE",
"512 711 OFFCURVE",
"618 711 CURVE",
"661 712 OFFCURVE",
"704 712 OFFCURVE",
"746 712 CURVE SMOOTH",
"787 712 OFFCURVE",
"832 699 OFFCURVE",
"802 721 CURVE SMOOTH",
"801 722 OFFCURVE",
"793 704 OFFCURVE",
"790 701 CURVE",
"758 654 LINE",
"737 621 OFFCURVE",
"725 587 OFFCURVE",
"711 551 CURVE SMOOTH",
"707 540 OFFCURVE",
"702 531 OFFCURVE",
"696 521 CURVE",
"691 509 LINE",
"691 508 OFFCURVE",
"689 505 OFFCURVE",
"690 506 CURVE SMOOTH",
"692 507 OFFCURVE",
"695 509 OFFCURVE",
"696 511 CURVE SMOOTH",
"696 513 OFFCURVE",
"693 510 OFFCURVE",
"691 510 CURVE",
"679 502 OFFCURVE",
"685 488 OFFCURVE",
"699 489 CURVE",
"727 499 OFFCURVE",
"742 573 OFFCURVE",
"752 596 CURVE SMOOTH",
"762 617 OFFCURVE",
"774 638 OFFCURVE",
"787 656 CURVE SMOOTH",
"798 672 OFFCURVE",
"830 702 OFFCURVE",
"825 726 CURVE",
"822 732 OFFCURVE",
"819 733 OFFCURVE",
"813 734 CURVE",
"642 734 OFFCURVE",
"472 732 OFFCURVE",
"301 732 CURVE",
"287 729 OFFCURVE",
"287 713 OFFCURVE",
"301 710 CURVE"
);
},
{
closed = 1;
nodes = (
"324 384 OFFCURVE",
"404 363 OFFCURVE",
"460 361 CURVE",
"476 363 OFFCURVE",
"476 381 OFFCURVE",
"460 383 CURVE",
"398 385 OFFCURVE",
"321 405 OFFCURVE",
"259 387 CURVE",
"247 379 OFFCURVE",
"253 365 OFFCURVE",
"267 366 CURVE"
);
},
{
closed = 1;
nodes = (
"517 503 OFFCURVE",
"499 472 OFFCURVE",
"485 445 CURVE SMOOTH",
"475 425 OFFCURVE",
"444 350 OFFCURVE",
"424 303 CURVE SMOOTH",
"415 281 OFFCURVE",
"398 261 OFFCURVE",
"389 239 CURVE SMOOTH",
"383 225 OFFCURVE",
"391 232 OFFCURVE",
"389 232 CURVE",
"377 224 OFFCURVE",
"383 210 OFFCURVE",
"397 211 CURVE",
"412 215 OFFCURVE",
"444 288 OFFCURVE",
"448 298 CURVE SMOOTH",
"462 331 OFFCURVE",
"472 365 OFFCURVE",
"486 397 CURVE SMOOTH",
"506 440 OFFCURVE",
"546 488 OFFCURVE",
"534 538 CURVE",
"527 549 OFFCURVE",
"511 547 OFFCURVE",
"511 533 CURVE"
);
},
{
closed = 1;
nodes = (
"68 -15 OFFCURVE",
"140 -12 OFFCURVE",
"213 -13 CURVE SMOOTH",
"240 -14 OFFCURVE",
"287 -24 OFFCURVE",
"313 -11 CURVE",
"325 -1 OFFCURVE",
"315 11 OFFCURVE",
"302 8 CURVE",
"301 7 OFFCURVE",
"308 8 OFFCURVE",
"306 8 CURVE SMOOTH",
"287 10 OFFCURVE",
"267 7 OFFCURVE",
"247 7 CURVE",
"163 11 OFFCURVE",
"79 7 OFFCURVE",
"-5 7 CURVE",
"-19 4 OFFCURVE",
"-19 -12 OFFCURVE",
"-5 -15 CURVE"
);
}
);
userData = {
com.typemytype.robofont.mark = (
1,
0.5675,
0.4681,
1
);
};
width = 719;
}
);
unicode = 0046;
},
{
color = 0;
glyphname = G;
lastChange = "2020-03-15 11:43:11 +0000";
layers = (
{
layerId = master01;
paths = (
{
closed = 1;
nodes = (
"538 -14 OFFCURVE",
"643 118 OFFCURVE",
"693 365 CURVE",
"671 365 LINE",
"626 145 OFFCURVE",
"528 8 OFFCURVE",
"397 8 CURVE SMOOTH",
"264 8 OFFCURVE",
"151 175 OFFCURVE",
"219 397 CURVE SMOOTH",
"280 596 OFFCURVE",
"442 739 OFFCURVE",
"619 739 CURVE SMOOTH",
"727 739 OFFCURVE",
"755 686 OFFCURVE",
"755 638 CURVE SMOOTH",
"755 629 OFFCURVE",
"754 615 OFFCURVE",
"752 607 CURVE",
"770 607 LINE",
"760 626 OFFCURVE",
"735 636 OFFCURVE",
"718 636 CURVE SMOOTH",
"694 636 OFFCURVE",
"675 623 OFFCURVE",
"675 597 CURVE SMOOTH",
"675 573 OFFCURVE",
"693 558 OFFCURVE",
"720 558 CURVE SMOOTH",
"762 558 OFFCURVE",
"779 598 OFFCURVE",
"779 640 CURVE SMOOTH",
"779 702 OFFCURVE",
"738 761 OFFCURVE",
"619 761 CURVE SMOOTH",
"438 761 OFFCURVE",
"264 625 OFFCURVE",
"196 401 CURVE SMOOTH",
"117 139 OFFCURVE",
"272 -14 OFFCURVE",
"397 -14 CURVE SMOOTH"
);
},
{
closed = 1;
nodes = (
"595 361 OFFCURVE",
"707 360 OFFCURVE",
"815 354 CURVE SMOOTH",
"836 353 OFFCURVE",
"833 374 OFFCURVE",
"819 375 CURVE SMOOTH",
"708 383 OFFCURVE",
"595 383 OFFCURVE",
"482 374 CURVE SMOOTH",
"467 373 OFFCURVE",
"466 351 OFFCURVE",
"482 352 CURVE SMOOTH"
);
}
);
userData = {
com.typemytype.robofont.layerData = {
background = {
anchors = (
);
components = (
);
contours = (
{
points = (
{
segmentType = curve;
smooth = 1;
x = 397;
y = -14;
},
{
smooth = 0;
x = 538;
y = -14;
},
{
smooth = 0;
x = 643;
y = 118;
},
{
segmentType = curve;
smooth = 0;
x = 693;
y = 365;
},
{
segmentType = line;
smooth = 0;
x = 671;
y = 365;
},
{
smooth = 0;
x = 626;
y = 145;
},
{
smooth = 0;
x = 528;
y = 8;
},
{
segmentType = curve;
smooth = 1;
x = 397;
y = 8;
},
{
smooth = 0;
x = 264;
y = 8;
},
{
smooth = 0;
x = 151;
y = 175;
},
{
segmentType = curve;
smooth = 1;
x = 219;
y = 397;
},
{
smooth = 0;
x = 280;
y = 596;
},
{
smooth = 0;
x = 442;
y = 739;
},
{
segmentType = curve;
smooth = 1;
x = 619;
y = 739;
},
{
smooth = 0;
x = 727;
y = 739;
},
{
smooth = 0;
x = 755;
y = 686;
},
{
segmentType = curve;
smooth = 1;
x = 755;
y = 638;
},
{
smooth = 0;
x = 755;
y = 629;
},
{
smooth = 0;
x = 754;
y = 615;
},
{
segmentType = curve;
smooth = 0;
x = 752;
y = 607;
},
{
segmentType = line;
smooth = 0;
x = 766;
y = 607;
},
{
smooth = 0;
x = 758;
y = 623;
},
{
smooth = 0;
x = 734;
y = 630;
},
{
segmentType = curve;
smooth = 1;
x = 720;
y = 630;
},
{
smooth = 0;
x = 698;
y = 630;
},
{
smooth = 0;
x = 682;
y = 618;
},
{
segmentType = curve;
smooth = 1;
x = 682;
y = 595;
},
{
smooth = 0;
x = 682;
y = 577;
},
{
smooth = 0;
x = 697;
y = 564;
},
{
segmentType = curve;
smooth = 1;
x = 720;
y = 564;
},
{
smooth = 0;
x = 762;
y = 564;
},
{
smooth = 0;
x = 779;
y = 601;
},
{
segmentType = curve;
smooth = 1;
x = 779;
y = 640;
},
{
smooth = 0;
x = 779;
y = 702;
},
{
smooth = 0;
x = 738;
y = 761;
},
{
segmentType = curve;
smooth = 1;
x = 619;
y = 761;
},
{
smooth = 0;
x = 438;
y = 761;
},
{
smooth = 0;
x = 264;
y = 625;
},
{
segmentType = curve;
smooth = 1;
x = 196;
y = 401;
},
{
smooth = 0;
x = 117;
y = 139;
},
{
smooth = 0;
x = 272;
y = -14;
}
);
},
{
points = (
{
segmentType = curve;
smooth = 1;
x = 482;
y = 352;
},
{
smooth = 0;
x = 595;
y = 361;
},
{
smooth = 0;
x = 707;
y = 360;
},
{
segmentType = curve;
smooth = 1;
x = 815;
y = 354;
},
{
smooth = 0;
x = 836;
y = 353;
},
{
smooth = 0;
x = 833;
y = 374;
},
{
segmentType = curve;
smooth = 1;
x = 819;
y = 375;
},
{
smooth = 0;
x = 708;
y = 383;
},
{
smooth = 0;
x = 595;
y = 383;
},
{
segmentType = curve;
smooth = 1;
x = 482;
y = 374;
},
{
smooth = 0;
x = 467;
y = 373;
},
{
smooth = 0;
x = 466;
y = 351;
}
);
}
);
lib = {
};
name = G;
unicodes = (
);
width = 800;
};
};
};
width = 800;
}
);
unicode = 0047;
},
{
glyphname = H;
lastChange = "2020-03-15 11:44:08 +0000";
layers = (
{
layerId = master01;
paths = (
{
closed = 1;
nodes = (
"134 -2 LINE",
"236 243 OFFCURVE",
"351 487 OFFCURVE",
"469 730 CURVE",
"445 731 LINE",
"327 489 OFFCURVE",
"212 245 OFFCURVE",
"110 -1 CURVE"
);
},
{
closed = 1;
nodes = (
"538 -6 LINE",
"642 236 OFFCURVE",
"768 479 OFFCURVE",
"875 721 CURVE",
"850 721 LINE",
"743 481 OFFCURVE",
"619 239 OFFCURVE",
"515 -3 CURVE"
);
},
{
closed = 1;
nodes = (
"429 382 OFFCURVE",
"565 382 OFFCURVE",
"702 378 CURVE",
"708 400 LINE",
"571 405 OFFCURVE",
"434 404 OFFCURVE",
"297 400 CURVE",
"292 378 LINE"
);
},
{
closed = 1;
nodes = (
"107 -13 OFFCURVE",
"186 -10 OFFCURVE",
"266 -7 CURVE SMOOTH",
"280 -6 OFFCURVE",
"281 13 OFFCURVE",
"267 13 CURVE SMOOTH",
"211 13 OFFCURVE",
"107 10 OFFCURVE",
"27 5 CURVE SMOOTH",
"10 4 OFFCURVE",
"11 -18 OFFCURVE",
"27 -17 CURVE SMOOTH"
);
},
{
closed = 1;
nodes = (
"494 -16 OFFCURVE",
"571 -14 OFFCURVE",
"649 -13 CURVE SMOOTH",
"663 -13 OFFCURVE",
"663 6 OFFCURVE",
"649 6 CURVE SMOOTH",
"571 7 OFFCURVE",
"493 6 OFFCURVE",
"415 2 CURVE SMOOTH",
"398 1 OFFCURVE",
"398 -22 OFFCURVE",
"416 -21 CURVE SMOOTH"
);
},
{
closed = 1;
nodes = (
"835 711 OFFCURVE",
"906 709 OFFCURVE",
"974 706 CURVE SMOOTH",
"993 705 OFFCURVE",
"995 725 OFFCURVE",
"976 726 CURVE SMOOTH",
"906 731 OFFCURVE",
"835 733 OFFCURVE",
"765 734 CURVE SMOOTH",
"750 734 OFFCURVE",
"744 711 OFFCURVE",
"766 711 CURVE SMOOTH"
);
},
{
closed = 1;
nodes = (
"436 725 OFFCURVE",
"513 724 OFFCURVE",
"590 720 CURVE SMOOTH",
"606 719 OFFCURVE",
"606 738 OFFCURVE",
"590 739 CURVE SMOOTH",
"513 746 OFFCURVE",
"431 749 OFFCURVE",
"358 744 CURVE SMOOTH",
"340 743 OFFCURVE",
"342 721 OFFCURVE",
"359 722 CURVE SMOOTH"
);
}
);
userData = {
com.typemytype.robofont.layerData = {
background = {
anchors = (
);
components = (
);
contours = (
{
points = (
{
segmentType = curve;
smooth = 0;
x = 444;
y = 731;
},
{
smooth = 0;
x = 431;
y = 660;
},
{
smooth = 0;
x = 393;
y = 629;
},
{
segmentType = curve;
smooth = 1;
x = 356;
y = 547;
},
{
smooth = 0;
x = 303;
y = 429;
},
{
smooth = 0;
x = 246;
y = 315;
},
{
segmentType = curve;
smooth = 1;
x = 191;
y = 198;
},
{
smooth = 0;
x = 167;
y = 145;
},
{
smooth = 0;
x = 146;
y = 87;
},
{
segmentType = curve;
smooth = 1;
x = 124;
y = 32;
},
{
smooth = 0;
x = 121;
y = 24;
},
{
smooth = 0;
x = 116;
y = 16;
},
{
segmentType = curve;
smooth = 1;
x = 114;
y = 8;
},
{
smooth = 0;
x = 110;
y = -8;
},
{
smooth = 0;
x = 126;
y = 12;
},
{
segmentType = curve;
smooth = 0;
x = 119;
y = 10;
},
{
smooth = 0;
x = 107;
y = 2;
},
{
smooth = 0;
x = 113;
y = -12;
},
{
segmentType = curve;
smooth = 0;
x = 127;
y = -11;
},
{
smooth = 0;
x = 128;
y = -10;
},
{
smooth = 0;
x = 128;
y = -10;
},
{
segmentType = curve;
smooth = 1;
x = 129;
y = -10;
},
{
smooth = 0;
x = 134;
y = -8;
},
{
smooth = 0;
x = 137;
y = -5;
},
{
segmentType = curve;
smooth = 0;
x = 138;
y = 0;
},
{
smooth = 0;
x = 138;
y = 17;
},
{
smooth = 0;
x = 192;
y = 135;
},
{
segmentType = curve;
smooth = 1;
x = 200;
y = 157;
},
{
smooth = 0;
x = 223;
y = 218;
},
{
smooth = 0;
x = 258;
y = 275;
},
{
segmentType = curve;
smooth = 1;
x = 285;
y = 334;
},
{
smooth = 0;
x = 339;
y = 448;
},
{
smooth = 0;
x = 317;
y = 403;
},
{
segmentType = curve;
smooth = 1;
x = 379;
y = 541;
},
{
smooth = 0;
x = 407;
y = 603;
},
{
smooth = 0;
x = 455;
y = 658;
},
{
segmentType = curve;
smooth = 1;
x = 467;
y = 725;
},
{
smooth = 0;
x = 470;
y = 741;
},
{
smooth = 0;
x = 451;
y = 744;
}
);
},
{
points = (
{
segmentType = curve;
smooth = 0;
x = 846;
y = 721;
},
{
smooth = 0;
x = 843;
y = 683;
},
{
smooth = 0;
x = 798;
y = 624;
},
{
segmentType = curve;
smooth = 1;
x = 783;
y = 584;
},
{
smooth = 0;
x = 771;
y = 552;
},
{
smooth = 0;
x = 764;
y = 522;
},
{
segmentType = curve;
smooth = 0;
x = 749;
y = 491;
},
{
smooth = 0;
x = 719;
y = 423;
},
{
smooth = 0;
x = 676;
y = 361;
},
{
segmentType = curve;
smooth = 1;
x = 645;
y = 292;
},
{
smooth = 0;
x = 628;
y = 256;
},
{
smooth = 0;
x = 615;
y = 217;
},
{
segmentType = curve;
smooth = 1;
x = 598;
y = 180;
},
{
smooth = 0;
x = 572;
y = 122;
},
{
smooth = 0;
x = 524;
y = 54;
},
{
segmentType = curve;
smooth = 0;
x = 516;
y = -1;
},
{
segmentType = line;
smooth = 0;
x = 538;
y = 4;
},
{
smooth = 0;
x = 538;
y = 4;
},
{
smooth = 0;
x = 538;
y = 4;
},
{
segmentType = curve;
smooth = 1;
x = 537;
y = 4;
},
{
smooth = 0;
x = 526;
y = 14;
},
{
smooth = 0;
x = 509;
y = 3;
},
{
segmentType = curve;
smooth = 0;
x = 520;
y = -10;
},
{
smooth = 0;
x = 520;
y = -10;
},
{
smooth = 0;
x = 520;
y = -10;
},
{
segmentType = curve;
smooth = 0;
x = 520;
y = -11;
},
{
smooth = 0;
x = 528;
y = -16;
},
{
smooth = 0;
x = 535;
y = -13;
},
{
segmentType = curve;
smooth = 0;
x = 540;
y = -6;
},
{
segmentType = line;
smooth = 1;
x = 541;
y = 0;
},
{
smooth = 0;
x = 549;
y = 51;
},
{
smooth = 0;
x = 603;
y = 134;
},
{
segmentType = curve;
smooth = 1;
x = 622;
y = 175;
},
{
smooth = 0;
x = 639;
y = 212;
},
{
smooth = 0;
x = 652;
y = 250;
},
{
segmentType = curve;
smooth = 1;
x = 668;
y = 287;
},
{
smooth = 0;
x = 699;
y = 355;
},
{
smooth = 0;
x = 742;
y = 417;
},
{
segmentType = curve;
smooth = 1;
x = 773;
y = 485;
},
{
smooth = 0;
x = 787;
y = 517;
},
{
smooth = 0;
x = 795;
y = 547;
},
{
segmentType = curve;
smooth = 1;
x = 806;
y = 578;
},
{
smooth = 0;
x = 823;
y = 622;
},
{
smooth = 0;
x = 866;
y = 675;
},
{
segmentType = curve;
smooth = 0;
x = 870;
y = 719;
},
{
smooth = 0;
x = 868;
y = 733;
},
{
smooth = 0;
x = 852;
y = 732;
}
);
},
{
points = (
{
segmentType = curve;
smooth = 1;
x = 292;
y = 379;
},
{
smooth = 0;
x = 302;
y = 373;
},
{
smooth = 0;
x = 381;
y = 384;
},
{
segmentType = curve;
smooth = 1;
x = 394;
y = 384;
},
{
smooth = 0;
x = 494;
y = 384;
},
{
smooth = 0;
x = 600;
y = 368;
},
{
segmentType = curve;
smooth = 1;
x = 700;
y = 379;
},
{
smooth = 0;
x = 706;
y = 380;
},
{
smooth = 0;
x = 710;
y = 382;
},
{
segmentType = curve;
smooth = 0;
x = 713;
y = 387;
},
{
smooth = 0;
x = 713;
y = 387;
},
{
smooth = 0;
x = 713;
y = 388;
},
{
segmentType = curve;
smooth = 0;
x = 713;
y = 388;
},
{
smooth = 0;
x = 716;
y = 404;
},
{
smooth = 0;
x = 697;
y = 407;
},
{
segmentType = curve;
smooth = 0;
x = 690;
y = 394;
},
{
smooth = 0;
x = 689;
y = 390;
},
{
smooth = 0;
x = 698;
y = 398;
},
{
segmentType = curve;
smooth = 1;
x = 701;
y = 401;
},
{
smooth = 0;
x = 702;
y = 403;
},
{
smooth = 0;
x = 698;
y = 401;
},
{
segmentType = curve;
smooth = 1;
x = 696;
y = 401;
},
{
smooth = 0;
x = 682;
y = 400;
},
{
smooth = 0;
x = 668;
y = 400;
},
{
segmentType = curve;
smooth = 1;
x = 654;
y = 400;
},
{
smooth = 0;
x = 627;
y = 400;
},
{
smooth = 0;
x = 599;
y = 402;
},
{
segmentType = curve;
smooth = 1;
x = 572;
y = 402;
},
{
smooth = 0;
x = 513;
y = 403;
},
{
smooth = 0;
x = 453;
y = 406;
},
{
segmentType = curve;
smooth = 1;
x = 394;
y = 406;
},
{
smooth = 0;
x = 366;
y = 406;
},
{
smooth = 0;
x = 338;
y = 407;
},
{
segmentType = curve;
smooth = 1;
x = 311;
y = 400;
},
{
smooth = 0;
x = 308;
y = 399;
},
{
smooth = 0;
x = 303;
y = 398;
},
{
segmentType = curve;
smooth = 0;
x = 303;
y = 398;
},
{
smooth = 0;
x = 289;
y = 404;
},
{
smooth = 0;
x = 278;
y = 388;
}
);
},
{
points = (
{
segmentType = curve;
smooth = 1;
x = 358;
y = 720;
},
{
smooth = 0;
x = 434;
y = 731;
},
{
smooth = 0;
x = 517;
y = 720;
},
{
segmentType = curve;
smooth = 0;
x = 592;
y = 718;
},
{
smooth = 0;
x = 608;
y = 720;
},
{
smooth = 0;
x = 608;
y = 738;
},
{
segmentType = curve;
smooth = 0;
x = 592;
y = 740;
},
{
smooth = 0;
x = 515;
y = 742;
},
{
smooth = 0;
x = 431;
y = 753;
},
{
segmentType = curve;
smooth = 0;
x = 354;
y = 742;
},
{
smooth = 0;
x = 338;
y = 738;
},
{
smooth = 0;
x = 342;
y = 718;
}
);
},
{
points = (
{
segmentType = curve;
smooth = 0;
x = 759;
y = 712;
},
{
smooth = 0;
x = 797;
y = 711;
},
{
smooth = 0;
x = 964;
y = 693;
},
{
segmentType = curve;
smooth = 0;
x = 986;
y = 708;
},
{
smooth = 0;
x = 999;
y = 719;
},
{
smooth = 0;
x = 985;
y = 733;
},
{
segmentType = curve;
smooth = 0;
x = 972;
y = 725;
},
{
smooth = 0;
x = 972;
y = 725;
},
{
smooth = 0;
x = 979;
y = 726;
},
{
segmentType = curve;
smooth = 1;
x = 977;
y = 726;
},
{
smooth = 0;
x = 947;
y = 730;
},
{
smooth = 0;
x = 912;
y = 727;
},
{
segmentType = curve;
smooth = 1;
x = 882;
y = 728;
},
{
smooth = 0;
x = 841;
y = 730;
},
{
smooth = 0;
x = 800;
y = 733;
},
{
segmentType = curve;
smooth = 0;
x = 759;
y = 734;
},
{
smooth = 0;
x = 745;
y = 731;
},
{
smooth = 0;
x = 745;
y = 715;
}
);
},
{
points = (
{
segmentType = curve;
smooth = 0;
x = 25;
y = -17;
},
{
smooth = 0;
x = 78;
y = -16;
},
{
smooth = 0;
x = 131;
y = -14;
},
{
segmentType = curve;
smooth = 1;
x = 184;
y = -12;
},
{
smooth = 0;
x = 206;
y = -11;
},
{
smooth = 0;
x = 248;
y = -17;
},
{
segmentType = curve;
smooth = 0;
x = 271;
y = -5;
},
{
smooth = 0;
x = 283;
y = 5;
},
{
smooth = 0;
x = 273;
y = 17;
},
{
segmentType = curve;
smooth = 0;
x = 260;
y = 14;
},
{
smooth = 0;
x = 245;
y = 7;
},
{
smooth = 0;
x = 186;
y = 10;
},
{
segmentType = curve;
smooth = 1;
x = 184;
y = 10;
},
{
smooth = 0;
x = 131;
y = 8;
},
{
smooth = 0;
x = 78;
y = 6;
},
{
segmentType = curve;
smooth = 0;
x = 25;
y = 5;
},
{
smooth = 0;
x = 11;
y = 2;
},
{
smooth = 0;
x = 11;
y = -14;
}
);
},
{
points = (
{
segmentType = curve;
smooth = 0;
x = 414;
y = -20;
},
{
smooth = 0;
x = 467;
y = -19;
},
{
smooth = 0;
x = 520;
y = -15;
},
{
segmentType = curve;
smooth = 1;
x = 572;
y = -14;
},
{
smooth = 0;
x = 575;
y = -14;
},
{
smooth = 0;
x = 661;
y = -20;
},
{
segmentType = curve;
smooth = 1;
x = 635;
y = -7;
},
{
smooth = 0;
x = 634;
y = -6;
},
{
smooth = 0;
x = 637;
y = -10;
},
{
segmentType = curve;
smooth = 1;
x = 637;
y = -11;
},
{
smooth = 0;
x = 647;
y = -22;
},
{
smooth = 0;
x = 667;
y = -13;
},
{
segmentType = curve;
smooth = 0;
x = 657;
y = 0;
},
{
smooth = 0;
x = 646;
y = 17;
},
{
smooth = 0;
x = 615;
y = 9;
},
{
segmentType = curve;
smooth = 0;
x = 599;
y = 8;
},
{
smooth = 0;
x = 537;
y = 7;
},
{
smooth = 0;
x = 476;
y = 3;
},
{
segmentType = curve;
smooth = 0;
x = 414;
y = 2;
},
{
smooth = 0;
x = 400;
y = -1;
},
{
smooth = 0;
x = 400;
y = -17;
}
);
}
);
lib = {
};
name = H;
unicodes = (
);
width = 840;
};
};
};
width = 840;
}
);
unicode = 0048;
},
{
color = 0;
glyphname = I;
lastChange = "2020-03-15 11:43:11 +0000";
layers = (
{
layerId = master01;
paths = (
{
closed = 1;
nodes = (
"465 730 OFFCURVE",
"425 632 OFFCURVE",
"424 629 CURVE SMOOTH",
"367 499 OFFCURVE",
"308 370 OFFCURVE",
"232 250 CURVE SMOOTH",
"203 203 OFFCURVE",
"195 147 OFFCURVE",
"171 98 CURVE SMOOTH",
"138 34 LINE",
"134 24 OFFCURVE",
"121 -1 OFFCURVE",
"126 9 CURVE SMOOTH",
"127 10 OFFCURVE",
"129 12 OFFCURVE",
"128 12 CURVE SMOOTH",
"114 3 OFFCURVE",
"125 -13 OFFCURVE",
"139 -7 CURVE",
"162 7 OFFCURVE",
"213 140 OFFCURVE",
"221 165 CURVE",
"238 212 OFFCURVE",
"263 248 OFFCURVE",
"287 290 CURVE SMOOTH",
"336 377 OFFCURVE",
"377 468 OFFCURVE",
"418 558 CURVE SMOOTH",
"419 561 OFFCURVE",
"498 719 OFFCURVE",
"486 741 CURVE SMOOTH",
"479 752 OFFCURVE",
"463 750 OFFCURVE",
"463 736 CURVE"
);
},
{
closed = 1;
nodes = (
"356 720 OFFCURVE",
"397 730 OFFCURVE",
"438 728 CURVE",
"481 727 OFFCURVE",
"467 722 OFFCURVE",
"508 716 CURVE",
"545 712 OFFCURVE",
"581 714 OFFCURVE",
"617 714 CURVE",
"633 716 OFFCURVE",
"633 734 OFFCURVE",
"617 736 CURVE",
"580 736 OFFCURVE",
"543 734 OFFCURVE",
"505 738 CURVE",
"502 739 OFFCURVE",
"518 737 OFFCURVE",
"515 738 CURVE SMOOTH",
"490 743 OFFCURVE",
"464 750 OFFCURVE",
"438 750 CURVE",
"397 752 OFFCURVE",
"356 742 OFFCURVE",
"314 740 CURVE",
"300 737 OFFCURVE",
"300 721 OFFCURVE",
"314 718 CURVE"
);
},
{
closed = 1;
nodes = (
"288 -13 LINE",
"304 -11 OFFCURVE",
"304 7 OFFCURVE",
"288 9 CURVE",
"14 9 LINE",
"0 6 OFFCURVE",
"0 -10 OFFCURVE",
"14 -13 CURVE"
);
}
);
userData = {
com.typemytype.robofont.mark = (
1,
0.5675,
0.4681,
1
);
};
width = 492;
}
);
unicode = 0049;
},
{
color = 0;
glyphname = L;
lastChange = "2020-03-15 11:43:11 +0000";
layers = (
{
layerId = master01;
paths = (
{
closed = 1;
nodes = (
"459 713 OFFCURVE",
"439 694 OFFCURVE",
"433 683 CURVE SMOOTH",
"380 576 LINE SMOOTH",
"344 505 OFFCURVE",
"307 435 OFFCURVE",
"271 363 CURVE SMOOTH",
"246 314 OFFCURVE",
"216 260 OFFCURVE",
"196 206 CURVE SMOOTH",
"182 167 OFFCURVE",
"172 126 OFFCURVE",
"156 88 CURVE SMOOTH",
"144 61 OFFCURVE",
"110 15 OFFCURVE",
"114 -4 CURVE",
"117 -9 OFFCURVE",
"119 -12 OFFCURVE",
"125 -13 CURVE SMOOTH",
"135 -14 OFFCURVE",
"143 -14 OFFCURVE",
"150 -7 CURVE",
"159 6 OFFCURVE",
"143 15 OFFCURVE",
"133 8 CURVE",
"128 3 OFFCURVE",
"150 8 OFFCURVE",
"131 8 CURVE SMOOTH",
"129 8 OFFCURVE",
"122 11 OFFCURVE",
"124 9 CURVE SMOOTH",
"127 5 OFFCURVE",
"133 3 OFFCURVE",
"137 1 CURVE",
"138 1 OFFCURVE",
"137 5 OFFCURVE",
"137 4 CURVE SMOOTH",
"137 2 OFFCURVE",
"135 -2 OFFCURVE",
"137 -4 CURVE",
"137 -4 OFFCURVE",
"142 10 OFFCURVE",
"146 17 CURVE SMOOTH",
"154 32 OFFCURVE",
"163 46 OFFCURVE",
"169 60 CURVE SMOOTH",
"194 114 OFFCURVE",
"206 171 OFFCURVE",
"229 225 CURVE SMOOTH",
"277 340 OFFCURVE",
"347 459 OFFCURVE",
"402 568 CURVE SMOOTH",
"455 674 LINE SMOOTH",
"465 693 OFFCURVE",
"485 710 OFFCURVE",
"479 732 CURVE",
"472 743 OFFCURVE",
"456 741 OFFCURVE",
"456 727 CURVE"
);
},
{
closed = 1;
nodes = (
"147 14 OFFCURVE",
"281 2 OFFCURVE",
"394 2 CURVE",
"418 3 OFFCURVE",
"539 -7 OFFCURVE",
"564 8 CURVE SMOOTH",
"584 20 OFFCURVE",
"662 213 OFFCURVE",
"664 244 CURVE",
"662 258 OFFCURVE",
"646 257 OFFCURVE",
"640 246 CURVE",
"635 185 OFFCURVE",
"594 129 OFFCURVE",
"574 72 CURVE SMOOTH",
"571 63 OFFCURVE",
"563 31 OFFCURVE",
"551 27 CURVE SMOOTH",
"512 14 OFFCURVE",
"432 25 OFFCURVE",
"394 24 CURVE",
"280 24 OFFCURVE",
"139 36 OFFCURVE",
"29 6 CURVE",
"17 -2 OFFCURVE",
"23 -16 OFFCURVE",
"37 -15 CURVE"
);
},
{
closed = 1;
nodes = (
"410 743 OFFCURVE",
"573 722 OFFCURVE",
"634 721 CURVE",
"650 723 OFFCURVE",
"650 741 OFFCURVE",
"634 743 CURVE",
"558 745 OFFCURVE",
"417 769 OFFCURVE",
"351 739 CURVE",
"337 730 OFFCURVE",
"348 714 OFFCURVE",
"362 720 CURVE SMOOTH"
);
}
);
userData = {
com.typemytype.robofont.mark = (
1,
0.5675,
0.4681,
1
);
};
width = 747;
}
);
unicode = 004C;
},
{
color = 0;
glyphname = N;
lastChange = "2020-03-15 11:43:11 +0000";
layers = (
{
layerId = master01;
paths = (
{
closed = 1;
nodes = (
"428 737 OFFCURVE",
"409 678 OFFCURVE",
"408 677 CURVE SMOOTH",
"385 628 OFFCURVE",
"361 579 OFFCURVE",
"336 531 CURVE SMOOTH",
"308 476 OFFCURVE",
"279 422 OFFCURVE",
"247 369 CURVE",
"235 351 OFFCURVE",
"209 316 OFFCURVE",
"199 291 CURVE SMOOTH",
"177 239 OFFCURVE",
"169 181 OFFCURVE",
"144 130 CURVE SMOOTH",
"124 87 OFFCURVE",
"94 50 OFFCURVE",
"86 2 CURVE",
"86 -12 OFFCURVE",
"102 -14 OFFCURVE",
"109 -4 CURVE",
"117 43 OFFCURVE",
"146 80 OFFCURVE",
"166 121 CURVE SMOOTH",
"191 174 OFFCURVE",
"197 234 OFFCURVE",
"222 286 CURVE SMOOTH",
"233 307 OFFCURVE",
"261 348 OFFCURVE",
"269 361 CURVE SMOOTH",
"300 411 OFFCURVE",
"328 464 OFFCURVE",
"355 516 CURVE SMOOTH",
"382 568 OFFCURVE",
"407 620 OFFCURVE",
"432 671 CURVE SMOOTH",
"470 749 OFFCURVE",
"446 721 OFFCURVE",
"456 723 CURVE",
"472 730 OFFCURVE",
"463 748 OFFCURVE",
"448 744 CURVE"
);
},
{
closed = 1;
nodes = (
"430 713 OFFCURVE",
"469 589 OFFCURVE",
"473 558 CURVE SMOOTH",
"490 430 OFFCURVE",
"492 300 OFFCURVE",
"505 171 CURVE",
"512 113 OFFCURVE",
"516 55 OFFCURVE",
"538 0 CURVE SMOOTH",
"542 -8 OFFCURVE",
"548 -11 OFFCURVE",
"556 -7 CURVE",
"593 20 OFFCURVE",
"621 141 OFFCURVE",
"637 183 CURVE SMOOTH",
"650 217 OFFCURVE",
"668 248 OFFCURVE",
"685 280 CURVE SMOOTH",
"698 305 OFFCURVE",
"706 333 OFFCURVE",
"717 359 CURVE SMOOTH",
"728 385 OFFCURVE",
"746 409 OFFCURVE",
"759 434 CURVE SMOOTH",
"785 484 OFFCURVE",
"805 537 OFFCURVE",
"826 589 CURVE",
"843 628 OFFCURVE",
"902 681 OFFCURVE",
"902 725 CURVE",
"900 740 OFFCURVE",
"878 738 OFFCURVE",
"878 723 CURVE SMOOTH",
"878 728 OFFCURVE",
"872 705 OFFCURVE",
"870 703 CURVE",
"860 683 OFFCURVE",
"846 664 OFFCURVE",
"833 646 CURVE",
"801 597 OFFCURVE",
"784 545 OFFCURVE",
"760 491 CURVE SMOOTH",
"720 400 OFFCURVE",
"666 312 OFFCURVE",
"626 220 CURVE SMOOTH",
"598 157 OFFCURVE",
"584 88 OFFCURVE",
"553 26 CURVE",
"536 67 OFFCURVE",
"534 130 OFFCURVE",
"529 173 CURVE SMOOTH",
"516 302 OFFCURVE",
"512 432 OFFCURVE",
"497 560 CURVE SMOOTH",
"494 584 OFFCURVE",
"458 713 OFFCURVE",
"469 732 CURVE",
"471 746 OFFCURVE",
"456 751 OFFCURVE",
"447 741 CURVE"
);
},
{
closed = 1;
nodes = (
"38 -5 OFFCURVE",
"201 3 OFFCURVE",
"256 4 CURVE",
"272 6 OFFCURVE",
"272 24 OFFCURVE",
"256 26 CURVE",
"208 25 OFFCURVE",
"161 20 OFFCURVE",
"114 15 CURVE",
"80 13 OFFCURVE",
"34 19 OFFCURVE",
"1 6 CURVE",
"-11 -2 OFFCURVE",
"-5 -16 OFFCURVE",
"9 -15 CURVE"
);
},
{
closed = 1;
nodes = (
"847 708 OFFCURVE",
"933 703 OFFCURVE",
"1019 703 CURVE",
"1035 705 OFFCURVE",
"1035 723 OFFCURVE",
"1019 725 CURVE",
"933 725 OFFCURVE",
"847 730 OFFCURVE",
"761 730 CURVE",
"747 727 OFFCURVE",
"747 711 OFFCURVE",
"761 708 CURVE"
);
},
{
closed = 1;
nodes = (
"360 729 OFFCURVE",
"454 711 OFFCURVE",
"464 732 CURVE",
"467 748 OFFCURVE",
"448 751 OFFCURVE",
"441 738 CURVE SMOOTH",
"440 735 OFFCURVE",
"445 743 OFFCURVE",
"447 745 CURVE SMOOTH",
"449 747 OFFCURVE",
"453 744 OFFCURVE",
"428 745 CURVE SMOOTH",
"391 747 OFFCURVE",
"355 751 OFFCURVE",
"320 739 CURVE",
"308 731 OFFCURVE",
"314 717 OFFCURVE",
"328 718 CURVE"
);
}
);
userData = {
com.typemytype.robofont.mark = (
1,
0.5675,
0.4681,
1
);
};
width = 839;
}
);
unicode = 004E;
},
{
glyphname = O;
lastChange = "2020-03-15 11:43:27 +0000";
layers = (
{
layerId = master01;
paths = (
{
closed = 1;
nodes = (
"472 -30 OFFCURVE",
"630 66 OFFCURVE",
"725 326 CURVE SMOOTH",
"805 547 OFFCURVE",
"729 739 OFFCURVE",
"549 739 CURVE SMOOTH",
"424 739 OFFCURVE",
"310 642 OFFCURVE",
"224 454 CURVE SMOOTH",
"126 240 OFFCURVE",
"135 -30 OFFCURVE",
"350 -30 CURVE SMOOTH"
);
},
{
closed = 1;
nodes = (
"163 -8 OFFCURVE",
"151 231 OFFCURVE",
"249 445 CURVE SMOOTH",
"332 626 OFFCURVE",
"436 717 OFFCURVE",
"548 717 CURVE SMOOTH",
"715 717 OFFCURVE",
"773 537 OFFCURVE",
"698 331 CURVE SMOOTH",
"608 82 OFFCURVE",
"461 -8 OFFCURVE",
"351 -8 CURVE SMOOTH"
);
}
);
userData = {
com.typemytype.robofont.layerData = {
background = {
anchors = (
);
components = (
);
contours = (
{
points = (
{
segmentType = curve;
smooth = 0;
x = 694;
y = 663;
},
{
smooth = 0;
x = 687;
y = 713;
},
{
smooth = 0;
x = 605;
y = 747;
},
{
segmentType = curve;
smooth = 1;
x = 563;
y = 741;
},
{
smooth = 0;
x = 519;
y = 735;
},
{
smooth = 0;
x = 486;
y = 733;
},
{
segmentType = curve;
smooth = 1;
x = 450;
y = 702;
},
{
smooth = 0;
x = 414;
y = 672;
},
{
smooth = 0;
x = 387;
y = 651;
},
{
segmentType = curve;
smooth = 1;
x = 360;
y = 611;
},
{
smooth = 0;
x = 324;
y = 557;
},
{
smooth = 0;
x = 297;
y = 503;
},
{
segmentType = curve;
smooth = 1;
x = 266;
y = 446;
},
{
smooth = 0;
x = 250;
y = 416;
},
{
smooth = 0;
x = 225;
y = 390;
},
{
segmentType = curve;
smooth = 1;
x = 211;
y = 359;
},
{
smooth = 0;
x = 169;
y = 262;
},
{
smooth = 0;
x = 133;
y = 108;
},
{
segmentType = curve;
smooth = 1;
x = 218;
y = 26;
},
{
smooth = 0;
x = 236;
y = 9;
},
{
smooth = 0;
x = 269;
y = -4;
},
{
segmentType = curve;
smooth = 1;
x = 291;
y = -13;
},
{
smooth = 0;
x = 497;
y = -96;
},
{
smooth = 0;
x = 667;
y = 174;
},
{
segmentType = curve;
smooth = 1;
x = 725;
y = 334;
},
{
smooth = 0;
x = 741;
y = 377;
},
{
smooth = 0;
x = 752;
y = 405;
},
{
segmentType = curve;
smooth = 1;
x = 752;
y = 448;
},
{
smooth = 0;
x = 753;
y = 499;
},
{
smooth = 0;
x = 766;
y = 554;
},
{
segmentType = curve;
smooth = 1;
x = 743;
y = 602;
},
{
smooth = 0;
x = 737;
y = 616;
},
{
smooth = 0;
x = 727;
y = 624;
},
{
segmentType = curve;
smooth = 1;
x = 720;
y = 636;
},
{
smooth = 0;
x = 706;
y = 659;
},
{
smooth = 0;
x = 702;
y = 673;
},
{
segmentType = curve;
smooth = 0;
x = 675;
y = 681;
},
{
smooth = 0;
x = 661;
y = 683;
},
{
smooth = 0;
x = 655;
y = 669;
},
{
segmentType = curve;
smooth = 0;
x = 667;
y = 661;
},
{
smooth = 0;
x = 690;
y = 653;
},
{
smooth = 0;
x = 686;
y = 644;
},
{
segmentType = curve;
smooth = 1;
x = 699;
y = 625;
},
{
smooth = 0;
x = 741;
y = 563;
},
{
smooth = 0;
x = 730;
y = 540;
},
{
segmentType = curve;
smooth = 0;
x = 728;
y = 450;
},
{
smooth = 0;
x = 726;
y = 298;
},
{
smooth = 0;
x = 537;
y = -17;
},
{
segmentType = curve;
smooth = 1;
x = 360;
y = -10;
},
{
smooth = 0;
x = 331;
y = -9;
},
{
smooth = 0;
x = 300;
y = 6;
},
{
segmentType = curve;
smooth = 1;
x = 275;
y = 19;
},
{
smooth = 0;
x = 262;
y = 26;
},
{
smooth = 0;
x = 245;
y = 33;
},
{
segmentType = curve;
smooth = 1;
x = 234;
y = 42;
},
{
smooth = 0;
x = 183;
y = 85;
},
{
smooth = 0;
x = 188;
y = 163;
},
{
segmentType = curve;
smooth = 1;
x = 198;
y = 223;
},
{
smooth = 0;
x = 204;
y = 262;
},
{
smooth = 0;
x = 215;
y = 301;
},
{
segmentType = curve;
smooth = 1;
x = 228;
y = 338;
},
{
smooth = 0;
x = 245;
y = 384;
},
{
smooth = 0;
x = 255;
y = 379;
},
{
segmentType = curve;
smooth = 1;
x = 279;
y = 421;
},
{
smooth = 0;
x = 334;
y = 515;
},
{
smooth = 0;
x = 371;
y = 622;
},
{
segmentType = curve;
smooth = 1;
x = 465;
y = 686;
},
{
smooth = 0;
x = 494;
y = 706;
},
{
smooth = 0;
x = 528;
y = 720;
},
{
segmentType = curve;
smooth = 1;
x = 563;
y = 719;
},
{
smooth = 0;
x = 598;
y = 718;
},
{
smooth = 0;
x = 664;
y = 702;
},
{
segmentType = curve;
smooth = 0;
x = 671;
y = 658;
},
{
smooth = 0;
x = 678;
y = 645;
},
{
smooth = 0;
x = 697;
y = 648;
}
);
}
);
lib = {
};
name = O;
unicodes = (
);
width = 800;
};
};
};
width = 800;
}
);
unicode = 004F;
},
{
color = 0;
glyphname = Q;
lastChange = "2020-03-15 11:43:11 +0000";
layers = (
{
layerId = master01;
paths = (
{
closed = 1;
nodes = (
"676 679 OFFCURVE",
"663 701 OFFCURVE",
"643 714 CURVE SMOOTH",
"610 737 OFFCURVE",
"560 734 OFFCURVE",
"524 740 CURVE SMOOTH",
"486 747 OFFCURVE",
"439 723 OFFCURVE",
"410 697 CURVE SMOOTH",
"317 613 LINE SMOOTH",
"265 565 OFFCURVE",
"203 428 OFFCURVE",
"182 362 CURVE SMOOTH",
"169 318 OFFCURVE",
"153 273 OFFCURVE",
"156 227 CURVE SMOOTH",
"161 152 OFFCURVE",
"151 74 OFFCURVE",
"215 16 CURVE SMOOTH",
"293 -54 OFFCURVE",
"395 0 OFFCURVE",
"462 56 CURVE SMOOTH",
"573 149 OFFCURVE",
"649 239 OFFCURVE",
"699 375 CURVE SMOOTH",
"710 405 OFFCURVE",
"719 436 OFFCURVE",
"725 467 CURVE SMOOTH",
"729 484 OFFCURVE",
"723 505 OFFCURVE",
"729 519 CURVE SMOOTH",
"751 574 OFFCURVE",
"721 665 OFFCURVE",
"675 696 CURVE",
"663 701 OFFCURVE",
"652 690 OFFCURVE",
"661 679 CURVE",
"687 661 OFFCURVE",
"692 648 OFFCURVE",
"699 618 CURVE SMOOTH",
"729 497 OFFCURVE",
"680 375 OFFCURVE",
"621 268 CURVE SMOOTH",
"603 234 OFFCURVE",
"581 199 OFFCURVE",
"554 171 CURVE SMOOTH",
"520 136 OFFCURVE",
"484 101 OFFCURVE",
"445 71 CURVE SMOOTH",
"399 36 OFFCURVE",
"331 -14 OFFCURVE",
"269 8 CURVE SMOOTH",
"185 37 OFFCURVE",
"174 156 OFFCURVE",
"180 228 CURVE SMOOTH",
"190 359 OFFCURVE",
"250 498 OFFCURVE",
"335 598 CURVE SMOOTH",
"396 670 OFFCURVE",
"529 773 OFFCURVE",
"629 696 CURVE SMOOTH",
"647 683 OFFCURVE",
"659 663 OFFCURVE",
"674 647 CURVE",
"684 640 OFFCURVE",
"700 649 OFFCURVE",
"691 661 CURVE SMOOTH"
);
},
{
closed = 1;
nodes = (
"277 -14 OFFCURVE",
"231 -110 OFFCURVE",
"190 -208 CURVE SMOOTH",
"183 -224 OFFCURVE",
"169 -242 OFFCURVE",
"166 -259 CURVE",
"166 -272 OFFCURVE",
"179 -275 OFFCURVE",
"187 -268 CURVE",
"211 -242 OFFCURVE",
"222 -224 OFFCURVE",
"260 -214 CURVE SMOOTH",
"317 -198 OFFCURVE",
"361 -248 OFFCURVE",
"413 -252 CURVE",
"429 -252 OFFCURVE",
"446 -258 OFFCURVE",
"460 -253 CURVE SMOOTH",
"526 -232 OFFCURVE",
"611 -180 OFFCURVE",
"618 -103 CURVE",
"616 -89 OFFCURVE",
"600 -90 OFFCURVE",
"594 -101 CURVE",
"589 -164 OFFCURVE",
"512 -222 OFFCURVE",
"456 -231 CURVE SMOOTH",
"404 -239 OFFCURVE",
"350 -204 OFFCURVE",
"301 -191 CURVE SMOOTH",
"244 -175 OFFCURVE",
"203 -218 OFFCURVE",
"169 -254 CURVE",
"176 -258 OFFCURVE",
"183 -261 OFFCURVE",
"189 -265 CURVE",
"193 -247 OFFCURVE",
"207 -230 OFFCURVE",
"213 -214 CURVE SMOOTH",
"254 -115 OFFCURVE",
"301 -20 OFFCURVE",
"348 75 CURVE",
"351 91 OFFCURVE",
"332 94 OFFCURVE",
"325 81 CURVE SMOOTH"
);
}
);
userData = {
com.typemytype.robofont.mark = (
1,
0.5675,
0.4681,
1
);
};
width = 774;
}
);
unicode = 0051;
},
{
glyphname = R;
lastChange = "2020-03-15 11:43:23 +0000";
layers = (
{
layerId = master01;
paths = (
{
closed = 1;
nodes = (
"265 -7 LINE SMOOTH",
"285 -7 OFFCURVE",
"283 15 OFFCURVE",
"267 15 CURVE SMOOTH",
"-9 9 LINE SMOOTH",
"-22 9 OFFCURVE",
"-27 -12 OFFCURVE",
"-9 -12 CURVE SMOOTH"
);
},
{
closed = 1;
nodes = (
"131 1 LINE",
"246 236 OFFCURVE",
"354 471 OFFCURVE",
"460 706 CURVE",
"434 707 LINE",
"329 472 OFFCURVE",
"220 236 OFFCURVE",
"105 1 CURVE"
);
},
{
closed = 1;
nodes = (
"385 698 OFFCURVE",
"484 706 OFFCURVE",
"570 706 CURVE SMOOTH",
"689 706 OFFCURVE",
"737 651 OFFCURVE",
"718 559 CURVE SMOOTH",
"700 471 OFFCURVE",
"624 399 OFFCURVE",
"496 399 CURVE SMOOTH",
"418 399 OFFCURVE",
"362 402 OFFCURVE",
"306 406 CURVE",
"303 391 LINE",
"360 385 OFFCURVE",
"418 379 OFFCURVE",
"496 379 CURVE SMOOTH",
"631 379 OFFCURVE",
"721 451 OFFCURVE",
"742 554 CURVE SMOOTH",
"763 658 OFFCURVE",
"709 728 OFFCURVE",
"572 728 CURVE SMOOTH",
"487 728 OFFCURVE",
"386 720 OFFCURVE",
"288 710 CURVE SMOOTH",
"274 709 OFFCURVE",
"273 689 OFFCURVE",
"289 690 CURVE SMOOTH"
);
},
{
closed = 1;
nodes = (
"508 388 OFFCURVE",
"502 265 OFFCURVE",
"514 141 CURVE SMOOTH",
"522 61 OFFCURVE",
"526 -9 OFFCURVE",
"604 -9 CURVE SMOOTH",
"682 -9 OFFCURVE",
"762 108 OFFCURVE",
"827 200 CURVE SMOOTH",
"838 216 OFFCURVE",
"817 225 OFFCURVE",
"807 211 CURVE SMOOTH",
"738 114 OFFCURVE",
"665 16 OFFCURVE",
"604 16 CURVE SMOOTH",
"552 16 OFFCURVE",
"546 72 OFFCURVE",
"539 142 CURVE SMOOTH",
"527 268 OFFCURVE",
"530 407 OFFCURVE",
"308 402 CURVE",
"306 385 LINE"
);
}
);
userData = {
com.typemytype.robofont.layerData = {
background = {
anchors = (
);
components = (
);
contours = (
{
points = (
{
segmentType = curve;
smooth = 1;
x = -9;
y = -12;
},
{
segmentType = line;
smooth = 1;
x = 265;
y = -7;
},
{
smooth = 0;
x = 285;
y = -7;
},
{
smooth = 0;
x = 283;
y = 15;
},
{
segmentType = curve;
smooth = 1;
x = 267;
y = 15;
},
{
segmentType = line;
smooth = 1;
x = -9;
y = 9;
},
{
smooth = 0;
x = -22;
y = 9;
},
{
smooth = 0;
x = -27;
y = -12;
}
);
},
{
points = (
{
segmentType = curve;
smooth = 0;
x = 105;
y = 1;
},
{
segmentType = line;
smooth = 0;
x = 131;
y = 1;
},
{
smooth = 0;
x = 246;
y = 236;
},
{
smooth = 0;
x = 354;
y = 471;
},
{
segmentType = curve;
smooth = 0;
x = 460;
y = 706;
},
{
segmentType = line;
smooth = 0;
x = 434;
y = 707;
},
{
smooth = 0;
x = 329;
y = 472;
},
{
smooth = 0;
x = 220;
y = 236;
}
);
},
{
points = (
{
segmentType = curve;
smooth = 1;
x = 289;
y = 690;
},
{
smooth = 0;
x = 385;
y = 698;
},
{
smooth = 0;
x = 484;
y = 706;
},
{
segmentType = curve;
smooth = 1;
x = 570;
y = 706;
},
{
smooth = 0;
x = 689;
y = 706;
},
{
smooth = 0;
x = 737;
y = 651;
},
{
segmentType = curve;
smooth = 1;
x = 718;
y = 559;
},
{
smooth = 0;
x = 700;
y = 471;
},
{
smooth = 0;
x = 624;
y = 399;
},
{
segmentType = curve;
smooth = 1;
x = 498;
y = 399;
},
{
smooth = 0;
x = 418;
y = 399;
},
{
smooth = 0;
x = 362;
y = 402;
},
{
segmentType = curve;
smooth = 0;
x = 306;
y = 406;
},
{
segmentType = line;
smooth = 0;
x = 303;
y = 391;
},
{
smooth = 0;
x = 360;
y = 385;
},
{
smooth = 0;
x = 418;
y = 380;
},
{
segmentType = curve;
smooth = 1;
x = 496;
y = 380;
},
{
smooth = 0;
x = 632;
y = 380;
},
{
smooth = 0;
x = 721;
y = 451;
},
{
segmentType = curve;
smooth = 1;
x = 742;
y = 554;
},
{
smooth = 0;
x = 763;
y = 658;
},
{
smooth = 0;
x = 709;
y = 728;
},
{
segmentType = curve;
smooth = 1;
x = 572;
y = 728;
},
{
smooth = 0;
x = 487;
y = 728;
},
{
smooth = 0;
x = 386;
y = 720;
},
{
segmentType = curve;
smooth = 1;
x = 288;
y = 710;
},
{
smooth = 0;
x = 274;
y = 709;
},
{
smooth = 0;
x = 273;
y = 689;
}
);
},
{
points = (
{
segmentType = line;
smooth = 0;
x = 306;
y = 385;
},
{
smooth = 0;
x = 469;
y = 383;
},
{
smooth = 0;
x = 504;
y = 323;
},
{
segmentType = curve;
smooth = 1;
x = 510;
y = 182;
},
{
smooth = 0;
x = 516;
y = 38;
},
{
smooth = 0;
x = 541;
y = -9;
},
{
segmentType = curve;
smooth = 1;
x = 606;
y = -9;
},
{
smooth = 0;
x = 682;
y = -9;
},
{
smooth = 0;
x = 762;
y = 108;
},
{
segmentType = curve;
smooth = 1;
x = 827;
y = 200;
},
{
smooth = 0;
x = 838;
y = 216;
},
{
smooth = 0;
x = 817;
y = 225;
},
{
segmentType = curve;
smooth = 1;
x = 807;
y = 211;
},
{
smooth = 0;
x = 738;
y = 114;
},
{
smooth = 0;
x = 667;
y = 16;
},
{
segmentType = curve;
smooth = 1;
x = 606;
y = 16;
},
{
smooth = 0;
x = 559;
y = 16;
},
{
smooth = 0;
x = 540;
y = 54;
},
{
segmentType = curve;
smooth = 1;
x = 535;
y = 183;
},
{
smooth = 0;
x = 528;
y = 351;
},
{
smooth = 0;
x = 467;
y = 401;
},
{
segmentType = curve;
smooth = 0;
x = 313;
y = 402;
}
);
}
);
lib = {
};
name = R;
unicodes = (
);
width = 774;
};
};
};
width = 774;
}
);
unicode = 0052;
},
{
glyphname = a;
lastChange = "2020-03-15 11:44:14 +0000";
layers = (
{
layerId = master01;
paths = (
{
closed = 1;
nodes = (
"544 -14 OFFCURVE",
"610 63 OFFCURVE",
"715 199 CURVE SMOOTH",
"726 213 OFFCURVE",
"707 225 OFFCURVE",
"696 210 CURVE",
"607 94 OFFCURVE",
"536 8 OFFCURVE",
"449 8 CURVE SMOOTH",
"392 8 OFFCURVE",
"379 64 OFFCURVE",
"408 146 CURVE SMOOTH",
"437 228 OFFCURVE",
"505 311 OFFCURVE",
"525 395 CURVE SMOOTH",
"550 500 OFFCURVE",
"483 560 OFFCURVE",
"360 560 CURVE SMOOTH",
"249 560 OFFCURVE",
"158 506 OFFCURVE",
"158 453 CURVE SMOOTH",
"158 428 OFFCURVE",
"176 411 OFFCURVE",
"202 411 CURVE SMOOTH",
"226 411 OFFCURVE",
"245 427 OFFCURVE",
"246 448 CURVE SMOOTH",
"248 482 OFFCURVE",
"198 495 OFFCURVE",
"175 458 CURVE",
"177 452 LINE",
"192 507 OFFCURVE",
"280 538 OFFCURVE",
"360 538 CURVE SMOOTH",
"464 538 OFFCURVE",
"523 492 OFFCURVE",
"500 401 CURVE SMOOTH",
"479 316 OFFCURVE",
"416 238 OFFCURVE",
"385 151 CURVE SMOOTH",
"351 56 OFFCURVE",
"371 -14 OFFCURVE",
"449 -14 CURVE SMOOTH"
);
},
{
closed = 1;
nodes = (
"266 -4 OFFCURVE",
"341 38 OFFCURVE",
"397 130 CURVE",
"383 139 LINE",
"328 57 OFFCURVE",
"258 18 OFFCURVE",
"188 18 CURVE SMOOTH",
"104 18 OFFCURVE",
"73 70 OFFCURVE",
"92 158 CURVE SMOOTH",
"110 244 OFFCURVE",
"172 305 OFFCURVE",
"271 305 CURVE SMOOTH",
"349 305 OFFCURVE",
"399 268 OFFCURVE",
"403 187 CURVE",
"418 188 LINE",
"425 275 OFFCURVE",
"368 327 OFFCURVE",
"272 327 CURVE SMOOTH",
"170 327 OFFCURVE",
"90 271 OFFCURVE",
"66 161 CURVE SMOOTH",
"43 56 OFFCURVE",
"93 -4 OFFCURVE",
"188 -4 CURVE SMOOTH"
);
}
);
userData = {
com.typemytype.robofont.layerData = {
background = {
anchors = (
);
components = (
);
contours = (
{
points = (
{
segmentType = curve;
smooth = 0;
x = 179;
y = 441;
},
{
smooth = 0;
x = 183;
y = 454;
},
{
smooth = 0;
x = 184;
y = 468;
},
{
segmentType = curve;
smooth = 1;
x = 191;
y = 479;
},
{
smooth = 0;
x = 235;
y = 544;
},
{
smooth = 0;
x = 463;
y = 565;
},
{
segmentType = curve;
smooth = 1;
x = 498;
y = 484;
},
{
smooth = 0;
x = 556;
y = 351;
},
{
smooth = 0;
x = 295;
y = 154;
},
{
segmentType = curve;
smooth = 1;
x = 394;
y = 4;
},
{
smooth = 0;
x = 415;
y = -27;
},
{
smooth = 0;
x = 480;
y = -8;
},
{
segmentType = curve;
smooth = 1;
x = 506;
y = -1;
},
{
smooth = 0;
x = 574;
y = 18;
},
{
smooth = 0;
x = 606;
y = 79;
},
{
segmentType = curve;
smooth = 1;
x = 649;
y = 127;
},
{
smooth = 0;
x = 664;
y = 144;
},
{
smooth = 0;
x = 686;
y = 159;
},
{
segmentType = curve;
smooth = 0;
x = 695;
y = 180;
},
{
smooth = 0;
x = 697;
y = 190;
},
{
smooth = 0;
x = 692;
y = 194;
},
{
segmentType = curve;
smooth = 0;
x = 683;
y = 195;
},
{
smooth = 0;
x = 683;
y = 195;
},
{
smooth = 0;
x = 682;
y = 195;
},
{
segmentType = curve;
smooth = 0;
x = 682;
y = 195;
},
{
smooth = 0;
x = 668;
y = 192;
},
{
smooth = 0;
x = 668;
y = 176;
},
{
segmentType = curve;
smooth = 0;
x = 682;
y = 173;
},
{
smooth = 0;
x = 682;
y = 173;
},
{
smooth = 0;
x = 683;
y = 173;
},
{
segmentType = curve;
smooth = 0;
x = 683;
y = 173;
},
{
segmentType = line;
smooth = 0;
x = 672;
y = 186;
},
{
smooth = 0;
x = 667;
y = 177;
},
{
smooth = 0;
x = 583;
y = 77;
},
{
segmentType = curve;
smooth = 1;
x = 564;
y = 60;
},
{
smooth = 0;
x = 544;
y = 42;
},
{
smooth = 0;
x = 524;
y = 28;
},
{
segmentType = curve;
smooth = 1;
x = 498;
y = 19;
},
{
smooth = 0;
x = 445;
y = 2;
},
{
smooth = 0;
x = 406;
y = -1;
},
{
segmentType = curve;
smooth = 0;
x = 395;
y = 56;
},
{
smooth = 0;
x = 375;
y = 169;
},
{
smooth = 0;
x = 529;
y = 321;
},
{
segmentType = curve;
smooth = 1;
x = 529;
y = 438;
},
{
smooth = 0;
x = 529;
y = 456;
},
{
smooth = 0;
x = 525;
y = 474;
},
{
segmentType = curve;
smooth = 0;
x = 521;
y = 491;
},
{
smooth = 0;
x = 513;
y = 537;
},
{
smooth = 0;
x = 416;
y = 552;
},
{
segmentType = curve;
smooth = 1;
x = 384;
y = 557;
},
{
smooth = 0;
x = 325;
y = 567;
},
{
smooth = 0;
x = 209;
y = 547;
},
{
segmentType = curve;
smooth = 1;
x = 170;
y = 489;
},
{
smooth = 0;
x = 162;
y = 477;
},
{
smooth = 0;
x = 161;
y = 461;
},
{
segmentType = curve;
smooth = 0;
x = 156;
y = 447;
},
{
smooth = 0;
x = 156;
y = 433;
},
{
smooth = 0;
x = 172;
y = 431;
}
);
},
{
points = (
{
segmentType = curve;
smooth = 1;
x = 417;
y = 209;
},
{
smooth = 0;
x = 462;
y = 231;
},
{
smooth = 0;
x = 362;
y = 308;
},
{
segmentType = curve;
smooth = 1;
x = 343;
y = 314;
},
{
smooth = 0;
x = 180;
y = 370;
},
{
smooth = 0;
x = 44;
y = 235;
},
{
segmentType = curve;
smooth = 1;
x = 61;
y = 69;
},
{
smooth = 0;
x = 68;
y = -2;
},
{
smooth = 0;
x = 186;
y = -10;
},
{
segmentType = curve;
smooth = 1;
x = 234;
y = 1;
},
{
smooth = 0;
x = 271;
y = 10;
},
{
smooth = 0;
x = 312;
y = 29;
},
{
segmentType = curve;
smooth = 1;
x = 339;
y = 55;
},
{
smooth = 0;
x = 358;
y = 73;
},
{
smooth = 0;
x = 377;
y = 90;
},
{
segmentType = curve;
smooth = 1;
x = 390;
y = 112;
},
{
smooth = 0;
x = 399;
y = 126;
},
{
smooth = 0;
x = 399;
y = 144;
},
{
segmentType = curve;
smooth = 1;
x = 411;
y = 154;
},
{
smooth = 0;
x = 424;
y = 165;
},
{
smooth = 0;
x = 410;
y = 179;
},
{
segmentType = curve;
smooth = 0;
x = 397;
y = 171;
},
{
smooth = 0;
x = 373;
y = 152;
},
{
smooth = 0;
x = 369;
y = 118;
},
{
segmentType = curve;
smooth = 1;
x = 348;
y = 95;
},
{
smooth = 0;
x = 324;
y = 69;
},
{
smooth = 0;
x = 295;
y = 47;
},
{
segmentType = curve;
smooth = 1;
x = 261;
y = 33;
},
{
smooth = 0;
x = 208;
y = 12;
},
{
smooth = 0;
x = 102;
y = 2;
},
{
segmentType = curve;
smooth = 0;
x = 84;
y = 76;
},
{
smooth = 0;
x = 80;
y = 181;
},
{
smooth = 0;
x = 132;
y = 281;
},
{
segmentType = curve;
smooth = 0;
x = 240;
y = 304;
},
{
smooth = 0;
x = 282;
y = 314;
},
{
smooth = 0;
x = 335;
y = 301;
},
{
segmentType = curve;
smooth = 0;
x = 368;
y = 274;
},
{
smooth = 0;
x = 382;
y = 264;
},
{
smooth = 0;
x = 390;
y = 250;
},
{
segmentType = curve;
smooth = 1;
x = 399;
y = 235;
},
{
smooth = 0;
x = 401;
y = 231;
},
{
smooth = 0;
x = 400;
y = 219;
},
{
segmentType = curve;
smooth = 1;
x = 403;
y = 222;
},
{
smooth = 0;
x = 406;
y = 224;
},
{
smooth = 0;
x = 409;
y = 227;
},
{
segmentType = curve;
smooth = 1;
x = 410;
y = 230;
},
{
smooth = 0;
x = 411;
y = 231;
},
{
smooth = 0;
x = 407;
y = 229;
},
{
segmentType = curve;
smooth = 1;
x = 406;
y = 228;
},
{
smooth = 0;
x = 392;
y = 219;
},
{
smooth = 0;
x = 403;
y = 203;
}
);
},
{
points = (
{
segmentType = curve;
smooth = 0;
x = 156;
y = 449;
},
{
smooth = 0;
x = 169;
y = 402;
},
{
smooth = 0;
x = 233;
y = 398;
},
{
segmentType = curve;
smooth = 1;
x = 245;
y = 445;
},
{
smooth = 0;
x = 254;
y = 477;
},
{
smooth = 0;
x = 194;
y = 493;
},
{
segmentType = curve;
smooth = 0;
x = 170;
y = 472;
},
{
smooth = 0;
x = 170;
y = 473;
},
{
smooth = 0;
x = 171;
y = 473;
},
{
segmentType = curve;
smooth = 0;
x = 171;
y = 473;
},
{
smooth = 0;
x = 155;
y = 469;
},
{
smooth = 0;
x = 159;
y = 449;
},
{
segmentType = curve;
smooth = 0;
x = 175;
y = 451;
},
{
smooth = 0;
x = 183;
y = 453;
},
{
smooth = 0;
x = 187;
y = 461;
},
{
segmentType = curve;
smooth = 1;
x = 194;
y = 463;
},
{
smooth = 0;
x = 253;
y = 478;
},
{
smooth = 0;
x = 197;
y = 391;
},
{
segmentType = curve;
smooth = 0;
x = 179;
y = 454;
},
{
smooth = 0;
x = 172;
y = 465;
},
{
smooth = 0;
x = 156;
y = 463;
}
);
}
);
lib = {
};
name = a;
unicodes = (
);
width = 605;
};
};
};
width = 605;
}
);
unicode = 0061;
},
{
glyphname = b;
lastChange = "2020-03-15 11:43:19 +0000";
layers = (
{
layerId = master01;
paths = (
{
closed = 1;
nodes = (
"386 -15 OFFCURVE",
"509 120 OFFCURVE",
"524 301 CURVE SMOOTH",
"536 442 OFFCURVE",
"492 522 OFFCURVE",
"362 522 CURVE SMOOTH",
"288 522 OFFCURVE",
"229 485 OFFCURVE",
"175 398 CURVE",
"189 390 LINE",
"231 465 OFFCURVE",
"289 500 OFFCURVE",
"359 500 CURVE SMOOTH",
"479 500 OFFCURVE",
"509 428 OFFCURVE",
"498 301 CURVE SMOOTH",
"483 127 OFFCURVE",
"364 7 OFFCURVE",
"225 7 CURVE SMOOTH",
"110 7 OFFCURVE",
"90 119 OFFCURVE",
"151 289 CURVE SMOOTH",
"227 502 OFFCURVE",
"319 642 OFFCURVE",
"397 794 CURVE SMOOTH",
"403 806 OFFCURVE",
"400 819 OFFCURVE",
"383 818 CURVE SMOOTH",
"289 810 OFFCURVE",
"196 808 OFFCURVE",
"126 808 CURVE SMOOTH",
"110 808 OFFCURVE",
"110 786 OFFCURVE",
"126 786 CURVE SMOOTH",
"201 786 OFFCURVE",
"292 788 OFFCURVE",
"385 796 CURVE",
"378 806 LINE",
"301 661 OFFCURVE",
"207 513 OFFCURVE",
"127 295 CURVE SMOOTH",
"60 112 OFFCURVE",
"89 -15 OFFCURVE",
"226 -15 CURVE SMOOTH"
);
}
);
userData = {
com.typemytype.robofont.layerData = {
background = {
anchors = (
);
components = (
);
contours = (
{
points = (
{
segmentType = curve;
smooth = 0;
x = 128;
y = 793;
},
{
smooth = 0;
x = 216;
y = 796;
},
{
smooth = 0;
x = 305;
y = 804;
},
{
segmentType = curve;
smooth = 0;
x = 393;
y = 804;
},
{
segmentType = line;
smooth = 0;
x = 381;
y = 817;
},
{
smooth = 0;
x = 381;
y = 802;
},
{
smooth = 0;
x = 340;
y = 736;
},
{
segmentType = curve;
smooth = 1;
x = 318;
y = 700;
},
{
smooth = 0;
x = 260;
y = 602;
},
{
smooth = 0;
x = 218;
y = 508;
},
{
segmentType = curve;
smooth = 1;
x = 173;
y = 401;
},
{
smooth = 0;
x = 136;
y = 314;
},
{
smooth = 0;
x = 71;
y = 186;
},
{
segmentType = curve;
smooth = 1;
x = 79;
y = 90;
},
{
smooth = 0;
x = 81;
y = 66;
},
{
smooth = 0;
x = 115;
y = 35;
},
{
segmentType = curve;
smooth = 1;
x = 133;
y = 20;
},
{
smooth = 0;
x = 221;
y = -49;
},
{
smooth = 0;
x = 376;
y = 7;
},
{
segmentType = curve;
smooth = 1;
x = 442;
y = 83;
},
{
smooth = 0;
x = 517;
y = 170;
},
{
smooth = 0;
x = 534;
y = 300;
},
{
segmentType = curve;
smooth = 1;
x = 522;
y = 408;
},
{
smooth = 0;
x = 518;
y = 442;
},
{
smooth = 0;
x = 480;
y = 500;
},
{
segmentType = curve;
smooth = 1;
x = 444;
y = 508;
},
{
smooth = 0;
x = 380;
y = 521;
},
{
smooth = 0;
x = 298;
y = 536;
},
{
segmentType = curve;
smooth = 1;
x = 241;
y = 491;
},
{
smooth = 0;
x = 224;
y = 477;
},
{
smooth = 0;
x = 212;
y = 458;
},
{
segmentType = curve;
smooth = 1;
x = 193;
y = 446;
},
{
smooth = 0;
x = 179;
y = 437;
},
{
smooth = 0;
x = 190;
y = 421;
},
{
segmentType = curve;
smooth = 0;
x = 204;
y = 427;
},
{
smooth = 0;
x = 260;
y = 462;
},
{
smooth = 0;
x = 260;
y = 493;
},
{
segmentType = curve;
smooth = 0;
x = 317;
y = 497;
},
{
smooth = 0;
x = 357;
y = 501;
},
{
smooth = 0;
x = 397;
y = 504;
},
{
segmentType = curve;
smooth = 1;
x = 435;
y = 487;
},
{
smooth = 0;
x = 491;
y = 463;
},
{
smooth = 0;
x = 505;
y = 398;
},
{
segmentType = curve;
smooth = 0;
x = 504;
y = 344;
},
{
smooth = 0;
x = 504;
y = 223;
},
{
smooth = 0;
x = 455;
y = 88;
},
{
segmentType = curve;
smooth = 1;
x = 338;
y = 39;
},
{
smooth = 0;
x = 292;
y = 20;
},
{
smooth = 0;
x = 222;
y = -9;
},
{
segmentType = curve;
smooth = 1;
x = 172;
y = 20;
},
{
smooth = 0;
x = 72;
y = 79;
},
{
smooth = 0;
x = 100;
y = 141;
},
{
segmentType = curve;
smooth = 1;
x = 136;
y = 243;
},
{
smooth = 0;
x = 170;
y = 338;
},
{
smooth = 0;
x = 211;
y = 429;
},
{
segmentType = curve;
smooth = 1;
x = 250;
y = 521;
},
{
smooth = 0;
x = 266;
y = 557;
},
{
smooth = 0;
x = 280;
y = 592;
},
{
segmentType = curve;
smooth = 1;
x = 300;
y = 625;
},
{
smooth = 0;
x = 317;
y = 655;
},
{
smooth = 0;
x = 405;
y = 784;
},
{
segmentType = curve;
smooth = 0;
x = 405;
y = 815;
},
{
smooth = 0;
x = 404;
y = 822;
},
{
smooth = 0;
x = 399;
y = 825;
},
{
segmentType = curve;
smooth = 0;
x = 392;
y = 826;
},
{
smooth = 0;
x = 304;
y = 826;
},
{
smooth = 0;
x = 216;
y = 818;
},
{
segmentType = curve;
smooth = 0;
x = 128;
y = 815;
},
{
smooth = 0;
x = 114;
y = 812;
},
{
smooth = 0;
x = 114;
y = 796;
}
);
}
);
lib = {
};
name = b;
unicodes = (
);
width = 600;
};
};
};
width = 600;
}
);
unicode = 0062;
},
{
color = 0;
glyphname = c;
lastChange = "2020-03-15 11:43:11 +0000";
layers = (
{
layerId = master01;
paths = (
{
closed = 1;
nodes = (
"389 381 OFFCURVE",
"372 356 OFFCURVE",
"382 335 CURVE SMOOTH",
"385 330 OFFCURVE",
"388 328 OFFCURVE",
"393 326 CURVE",
"455 322 OFFCURVE",
"504 419 OFFCURVE",
"462 464 CURVE",
"378 558 OFFCURVE",
"249 492 OFFCURVE",
"173 422 CURVE SMOOTH",
"135 387 OFFCURVE",
"108 326 OFFCURVE",
"90 277 CURVE SMOOTH",
"70 223 OFFCURVE",
"63 178 OFFCURVE",
"70 122 CURVE SMOOTH",
"73 98 OFFCURVE",
"107 66 OFFCURVE",
"123 49 CURVE SMOOTH",
"232 -63 OFFCURVE",
"433 33 OFFCURVE",
"522 127 CURVE SMOOTH",
"544 150 OFFCURVE",
"604 217 OFFCURVE",
"597 251 CURVE",
"590 262 OFFCURVE",
"574 260 OFFCURVE",
"574 246 CURVE SMOOTH",
"574 217 OFFCURVE",
"525 162 OFFCURVE",
"505 141 CURVE SMOOTH",
"420 51 OFFCURVE",
"233 -40 OFFCURVE",
"132 72 CURVE SMOOTH",
"117 89 OFFCURVE",
"100 104 OFFCURVE",
"93 128 CURVE SMOOTH",
"69 210 OFFCURVE",
"137 348 OFFCURVE",
"190 407 CURVE SMOOTH",
"212 432 OFFCURVE",
"241 445 OFFCURVE",
"270 459 CURVE SMOOTH",
"319 483 OFFCURVE",
"345 501 OFFCURVE",
"396 482 CURVE SMOOTH",
"413 476 OFFCURVE",
"432 467 OFFCURVE",
"443 452 CURVE SMOOTH",
"463 425 OFFCURVE",
"445 347 OFFCURVE",
"403 347 CURVE",
"406 355 OFFCURVE",
"405 359 OFFCURVE",
"412 359 CURVE",
"428 361 OFFCURVE",
"428 379 OFFCURVE",
"412 381 CURVE"
);
}
);
userData = {
com.typemytype.robofont.mark = (
1,
0.5675,
0.4681,
1
);
};
width = 498;
}
);
unicode = 0063;
},
{
color = 0;
glyphname = d;
lastChange = "2020-03-15 11:43:11 +0000";
layers = (
{
layerId = master01;
paths = (
{
closed = 1;
nodes = (
"513 808 OFFCURVE",
"609 792 OFFCURVE",
"670 794 CURVE",
"645 742 OFFCURVE",
"629 684 OFFCURVE",
"601 633 CURVE SMOOTH",
"531 503 OFFCURVE",
"460 377 OFFCURVE",
"402 240 CURVE SMOOTH",
"381 190 OFFCURVE",
"337 107 OFFCURVE",
"350 47 CURVE SMOOTH",
"364 -17 OFFCURVE",
"442 -24 OFFCURVE",
"492 -20 CURVE SMOOTH",
"515 -18 OFFCURVE",
"544 -7 OFFCURVE",
"563 3 CURVE SMOOTH",
"600 24 OFFCURVE",
"709 131 OFFCURVE",
"718 174 CURVE SMOOTH",
"721 190 OFFCURVE",
"702 193 OFFCURVE",
"695 180 CURVE",
"686 140 OFFCURVE",
"573 26 OFFCURVE",
"521 9 CURVE SMOOTH",
"460 -11 OFFCURVE",
"359 0 OFFCURVE",
"375 87 CURVE SMOOTH",
"384 134 OFFCURVE",
"409 193 OFFCURVE",
"426 235 CURVE SMOOTH",
"463 324 OFFCURVE",
"506 410 OFFCURVE",
"550 495 CURVE SMOOTH",
"581 554 OFFCURVE",
"618 609 OFFCURVE",
"644 670 CURVE SMOOTH",
"652 689 OFFCURVE",
"702 798 OFFCURVE",
"693 807 CURVE",
"677 826 OFFCURVE",
"647 812 OFFCURVE",
"625 813 CURVE",
"607 815 OFFCURVE",
"588 820 OFFCURVE",
"568 821 CURVE",
"536 824 OFFCURVE",
"501 829 OFFCURVE",
"470 819 CURVE",
"458 811 OFFCURVE",
"464 797 OFFCURVE",
"478 798 CURVE"
);
},
{
closed = 1;
nodes = (
"478 403 OFFCURVE",
"468 435 OFFCURVE",
"445 469 CURVE SMOOTH",
"406 527 OFFCURVE",
"359 530 OFFCURVE",
"295 520 CURVE",
"270 517 OFFCURVE",
"234 497 OFFCURVE",
"216 480 CURVE SMOOTH",
"159 430 OFFCURVE",
"107 360 OFFCURVE",
"85 285 CURVE SMOOTH",
"78 260 OFFCURVE",
"79 233 OFFCURVE",
"75 206 CURVE",
"72 178 OFFCURVE",
"64 153 OFFCURVE",
"66 123 CURVE SMOOTH",
"68 92 OFFCURVE",
"79 90 OFFCURVE",
"95 67 CURVE SMOOTH",
"106 51 OFFCURVE",
"103 44 OFFCURVE",
"122 25 CURVE SMOOTH",
"132 16 OFFCURVE",
"146 12 OFFCURVE",
"158 6 CURVE SMOOTH",
"208 -18 OFFCURVE",
"235 -17 OFFCURVE",
"289 21 CURVE SMOOTH",
"322 45 OFFCURVE",
"347 76 OFFCURVE",
"369 109 CURVE SMOOTH",
"377 120 OFFCURVE",
"376 132 OFFCURVE",
"383 137 CURVE SMOOTH",
"396 148 OFFCURVE",
"382 162 OFFCURVE",
"369 154 CURVE SMOOTH",
"373 157 OFFCURVE",
"363 145 OFFCURVE",
"360 140 CURVE SMOOTH",
"352 124 OFFCURVE",
"346 114 OFFCURVE",
"334 98 CURVE SMOOTH",
"297 50 OFFCURVE",
"253 15 OFFCURVE",
"191 12 CURVE",
"176 24 OFFCURVE",
"152 27 OFFCURVE",
"139 40 CURVE SMOOTH",
"128 51 OFFCURVE",
"124 68 OFFCURVE",
"114 79 CURVE",
"110 85 OFFCURVE",
"101 90 OFFCURVE",
"97 96 CURVE SMOOTH",
"77 128 OFFCURVE",
"96 171 OFFCURVE",
"99 204 CURVE SMOOTH",
"107 279 OFFCURVE",
"124 354 OFFCURVE",
"202 437 CURVE SMOOTH",
"311 553 OFFCURVE",
"448 517 OFFCURVE",
"456 360 CURVE",
"462 349 OFFCURVE",
"478 348 OFFCURVE",
"480 362 CURVE"
);
}
);
userData = {
com.typemytype.robofont.mark = (
1,
0.5675,
0.4681,
1
);
};
width = 627;
}
);
unicode = 0064;
},
{
glyphname = e;
lastChange = "2020-03-15 11:43:14 +0000";
layers = (
{
layerId = master01;
paths = (
{
closed = 1;
nodes = (
"386 -11 OFFCURVE",
"530 87 OFFCURVE",
"605 233 CURVE SMOOTH",
"612 247 OFFCURVE",
"593 258 OFFCURVE",
"585 243 CURVE SMOOTH",
"509 101 OFFCURVE",
"373 11 OFFCURVE",
"244 11 CURVE SMOOTH",
"116 11 OFFCURVE",
"79 93 OFFCURVE",
"95 222 CURVE SMOOTH",
"115 379 OFFCURVE",
"232 474 OFFCURVE",
"348 474 CURVE SMOOTH",
"437 474 OFFCURVE",
"471 430 OFFCURVE",
"466 381 CURVE SMOOTH",
"461 328 OFFCURVE",
"397 288 OFFCURVE",
"313 288 CURVE SMOOTH",
"243 288 OFFCURVE",
"186 319 OFFCURVE",
"142 370 CURVE",
"129 357 LINE",
"175 301 OFFCURVE",
"235 267 OFFCURVE",
"314 267 CURVE SMOOTH",
"395 267 OFFCURVE",
"485 305 OFFCURVE",
"492 379 CURVE SMOOTH",
"499 454 OFFCURVE",
"436 496 OFFCURVE",
"348 496 CURVE SMOOTH",
"226 496 OFFCURVE",
"95 399 OFFCURVE",
"70 227 CURVE SMOOTH",
"48 74 OFFCURVE",
"112 -11 OFFCURVE",
"241 -11 CURVE SMOOTH"
);
}
);
userData = {
com.typemytype.robofont.layerData = {
background = {
anchors = (
);
components = (
);
contours = (
{
points = (
{
segmentType = curve;
smooth = 0;
x = 130;
y = 351;
},
{
smooth = 0;
x = 150;
y = 336;
},
{
smooth = 0;
x = 166;
y = 317;
},
{
segmentType = curve;
smooth = 1;
x = 186;
y = 302;
},
{
smooth = 0;
x = 211;
y = 284;
},
{
smooth = 0;
x = 321;
y = 258;
},
{
segmentType = curve;
smooth = 1;
x = 359;
y = 270;
},
{
smooth = 0;
x = 438;
y = 296;
},
{
smooth = 0;
x = 485;
y = 317;
},
{
segmentType = curve;
smooth = 1;
x = 492;
y = 404;
},
{
smooth = 0;
x = 493;
y = 420;
},
{
smooth = 0;
x = 478;
y = 443;
},
{
segmentType = curve;
smooth = 0;
x = 463;
y = 451;
},
{
smooth = 0;
x = 372;
y = 507;
},
{
smooth = 0;
x = 321;
y = 512;
},
{
segmentType = curve;
smooth = 1;
x = 223;
y = 458;
},
{
smooth = 0;
x = 116;
y = 399;
},
{
smooth = 0;
x = 95;
y = 345;
},
{
segmentType = curve;
smooth = 0;
x = 72;
y = 233;
},
{
smooth = 0;
x = 64;
y = 190;
},
{
smooth = 0;
x = 49;
y = 149;
},
{
segmentType = curve;
smooth = 1;
x = 67;
y = 106;
},
{
smooth = 0;
x = 75;
y = 88;
},
{
smooth = 0;
x = 83;
y = 86;
},
{
segmentType = curve;
smooth = 1;
x = 88;
y = 79;
},
{
smooth = 0;
x = 101;
y = 60;
},
{
smooth = 0;
x = 112;
y = 40;
},
{
segmentType = curve;
smooth = 1;
x = 130;
y = 26;
},
{
smooth = 0;
x = 146;
y = 13;
},
{
smooth = 0;
x = 166;
y = 9;
},
{
segmentType = curve;
smooth = 1;
x = 185;
y = 4;
},
{
smooth = 0;
x = 198;
y = 1;
},
{
smooth = 0;
x = 212;
y = -7;
},
{
segmentType = curve;
smooth = 1;
x = 225;
y = -9;
},
{
smooth = 0;
x = 251;
y = -12;
},
{
smooth = 0;
x = 276;
y = -7;
},
{
segmentType = curve;
smooth = 1;
x = 300;
y = 1;
},
{
smooth = 0;
x = 322;
y = 9;
},
{
smooth = 0;
x = 345;
y = 7;
},
{
segmentType = curve;
smooth = 1;
x = 367;
y = 14;
},
{
smooth = 0;
x = 425;
y = 34;
},
{
smooth = 0;
x = 481;
y = 76;
},
{
segmentType = curve;
smooth = 1;
x = 523;
y = 119;
},
{
smooth = 0;
x = 535;
y = 131;
},
{
smooth = 0;
x = 603;
y = 214;
},
{
segmentType = curve;
smooth = 0;
x = 606;
y = 239;
},
{
smooth = 0;
x = 604;
y = 253;
},
{
smooth = 0;
x = 588;
y = 252;
},
{
segmentType = curve;
smooth = 0;
x = 582;
y = 241;
},
{
smooth = 0;
x = 580;
y = 227;
},
{
smooth = 0;
x = 522;
y = 151;
},
{
segmentType = curve;
smooth = 1;
x = 505;
y = 133;
},
{
smooth = 0;
x = 466;
y = 93;
},
{
smooth = 0;
x = 413;
y = 54;
},
{
segmentType = curve;
smooth = 1;
x = 359;
y = 35;
},
{
smooth = 0;
x = 339;
y = 28;
},
{
smooth = 0;
x = 317;
y = 28;
},
{
segmentType = curve;
smooth = 1;
x = 296;
y = 23;
},
{
smooth = 0;
x = 274;
y = 18;
},
{
smooth = 0;
x = 253;
y = 9;
},
{
segmentType = curve;
smooth = 1;
x = 229;
y = 12;
},
{
smooth = 0;
x = 218;
y = 14;
},
{
smooth = 0;
x = 205;
y = 22;
},
{
segmentType = curve;
smooth = 0;
x = 193;
y = 24;
},
{
smooth = 0;
x = 176;
y = 29;
},
{
smooth = 0;
x = 159;
y = 33;
},
{
segmentType = curve;
smooth = 1;
x = 144;
y = 43;
},
{
smooth = 0;
x = 128;
y = 55;
},
{
smooth = 0;
x = 120;
y = 75;
},
{
segmentType = curve;
smooth = 1;
x = 108;
y = 90;
},
{
smooth = 0;
x = 102;
y = 98;
},
{
smooth = 0;
x = 95;
y = 104;
},
{
segmentType = curve;
smooth = 0;
x = 90;
y = 112;
},
{
smooth = 0;
x = 75;
y = 144;
},
{
smooth = 0;
x = 86;
y = 178;
},
{
segmentType = curve;
smooth = 1;
x = 96;
y = 227;
},
{
smooth = 0;
x = 115;
y = 324;
},
{
smooth = 0;
x = 127;
y = 368;
},
{
segmentType = curve;
smooth = 1;
x = 203;
y = 419;
},
{
smooth = 0;
x = 233;
y = 440;
},
{
smooth = 0;
x = 266;
y = 457;
},
{
segmentType = curve;
smooth = 1;
x = 301;
y = 466;
},
{
smooth = 0;
x = 355;
y = 481;
},
{
smooth = 0;
x = 406;
y = 473;
},
{
segmentType = curve;
smooth = 0;
x = 448;
y = 434;
},
{
smooth = 0;
x = 519;
y = 372;
},
{
smooth = 0;
x = 406;
y = 302;
},
{
segmentType = curve;
smooth = 1;
x = 354;
y = 292;
},
{
smooth = 0;
x = 336;
y = 289;
},
{
smooth = 0;
x = 318;
y = 287;
},
{
segmentType = curve;
smooth = 1;
x = 300;
y = 289;
},
{
smooth = 0;
x = 289;
y = 290;
},
{
smooth = 0;
x = 216;
y = 308;
},
{
segmentType = curve;
smooth = 1;
x = 200;
y = 319;
},
{
smooth = 0;
x = 180;
y = 333;
},
{
smooth = 0;
x = 165;
y = 353;
},
{
segmentType = curve;
smooth = 0;
x = 144;
y = 368;
},
{
smooth = 0;
x = 132;
y = 373;
},
{
smooth = 0;
x = 121;
y = 362;
}
);
}
);
lib = {
};
name = e;
unicodes = (
);
width = 475;
};
};
};
width = 475;
}
);
unicode = 0065;
},
{
color = 0;
glyphname = f;
lastChange = "2020-03-15 11:43:11 +0000";
layers = (
{
layerId = master01;
paths = (
{
closed = 1;
nodes = (
"518 871 OFFCURVE",
"417 860 OFFCURVE",
"370 835 CURVE SMOOTH",
"305 801 OFFCURVE",
"283 706 OFFCURVE",
"246 647 CURVE SMOOTH",
"215 596 OFFCURVE",
"202 539 OFFCURVE",
"182 483 CURVE SMOOTH",
"168 442 OFFCURVE",
"149 404 OFFCURVE",
"135 362 CURVE SMOOTH",
"121 319 OFFCURVE",
"111 274 OFFCURVE",
"98 230 CURVE SMOOTH",
"57 96 OFFCURVE",
"-8 -32 OFFCURVE",
"-64 -160 CURVE SMOOTH",
"-97 -235 OFFCURVE",
"-147 -288 OFFCURVE",
"-232 -293 CURVE SMOOTH",
"-245 -294 OFFCURVE",
"-260 -292 OFFCURVE",
"-271 -285 CURVE SMOOTH",
"-287 -274 OFFCURVE",
"-279 -246 OFFCURVE",
"-289 -220 CURVE",
"-296 -209 OFFCURVE",
"-312 -211 OFFCURVE",
"-312 -225 CURVE",
"-303 -250 OFFCURVE",
"-309 -282 OFFCURVE",
"-286 -301 CURVE SMOOTH",
"-273 -312 OFFCURVE",
"-248 -316 OFFCURVE",
"-232 -315 CURVE SMOOTH",
"-136 -309 OFFCURVE",
"-78 -251 OFFCURVE",
"-41 -166 CURVE SMOOTH",
"16 -38 OFFCURVE",
"80 91 OFFCURVE",
"121 224 CURVE SMOOTH",
"135 268 OFFCURVE",
"144 314 OFFCURVE",
"158 357 CURVE SMOOTH",
"172 398 OFFCURVE",
"192 437 OFFCURVE",
"206 477 CURVE SMOOTH",
"223 526 OFFCURVE",
"235 577 OFFCURVE",
"259 623 CURVE SMOOTH",
"265 634 OFFCURVE",
"274 642 OFFCURVE",
"279 653 CURVE",
"310 708 OFFCURVE",
"328 780 OFFCURVE",
"383 817 CURVE SMOOTH",
"428 848 OFFCURVE",
"496 838 OFFCURVE",
"499 790 CURVE",
"505 779 OFFCURVE",
"521 778 OFFCURVE",
"523 792 CURVE"
);
},
{
closed = 1;
nodes = (
"101 487 OFFCURVE",
"174 477 OFFCURVE",
"192 477 CURVE",
"277 480 OFFCURVE",
"360 493 OFFCURVE",
"445 494 CURVE",
"461 496 OFFCURVE",
"461 514 OFFCURVE",
"445 516 CURVE",
"360 515 OFFCURVE",
"277 502 OFFCURVE",
"192 499 CURVE SMOOTH",
"159 498 OFFCURVE",
"106 513 OFFCURVE",
"75 496 CURVE",
"61 487 OFFCURVE",
"72 471 OFFCURVE",
"86 477 CURVE"
);
}
);
userData = {
com.typemytype.robofont.mark = (
1,
0.5675,
0.4681,
1
);
};
width = 377;
}
);
unicode = 0066;
},
{
color = 0;
glyphname = g;
lastChange = "2020-03-15 11:43:11 +0000";
layers = (
{
layerId = master01;
paths = (
{
closed = 1;
nodes = (
"504 422 OFFCURVE",
"461 354 OFFCURVE",
"428 279 CURVE SMOOTH",
"406 229 OFFCURVE",
"398 176 OFFCURVE",
"380 125 CURVE SMOOTH",
"357 62 OFFCURVE",
"323 5 OFFCURVE",
"299 -58 CURVE",
"276 -122 OFFCURVE",
"262 -207 OFFCURVE",
"213 -258 CURVE SMOOTH",
"161 -311 OFFCURVE",
"71 -308 OFFCURVE",
"8 -274 CURVE SMOOTH",
"-22 -257 OFFCURVE",
"-73 -187 OFFCURVE",
"-28 -159 CURVE",
"-29 -157 OFFCURVE",
"-30 -153 OFFCURVE",
"-30 -155 CURVE SMOOTH",
"-29 -169 OFFCURVE",
"-28 -192 OFFCURVE",
"-49 -179 CURVE",
"-63 -173 OFFCURVE",
"-74 -189 OFFCURVE",
"-60 -198 CURVE SMOOTH",
"-27 -219 OFFCURVE",
"7 -185 OFFCURVE",
"-7 -151 CURVE",
"-19 -116 OFFCURVE",
"-60 -152 OFFCURVE",
"-68 -170 CURVE SMOOTH",
"-72 -180 OFFCURVE",
"-68 -194 OFFCURVE",
"-67 -205 CURVE",
"-67 -295 OFFCURVE",
"82 -336 OFFCURVE",
"150 -317 CURVE SMOOTH",
"190 -305 OFFCURVE",
"220 -287 OFFCURVE",
"245 -255 CURVE SMOOTH",
"294 -193 OFFCURVE",
"305 -104 OFFCURVE",
"334 -34 CURVE SMOOTH",
"356 18 OFFCURVE",
"384 67 OFFCURVE",
"403 120 CURVE SMOOTH",
"422 171 OFFCURVE",
"430 224 OFFCURVE",
"451 273 CURVE SMOOTH",
"485 350 OFFCURVE",
"528 419 OFFCURVE",
"537 503 CURVE",
"535 517 OFFCURVE",
"519 516 OFFCURVE",
"513 505 CURVE"
);
},
{
closed = 1;
nodes = (
"478 501 OFFCURVE",
"334 590 OFFCURVE",
"217 493 CURVE SMOOTH",
"174 458 OFFCURVE",
"150 422 OFFCURVE",
"125 372 CURVE SMOOTH",
"124 369 OFFCURVE",
"133 386 OFFCURVE",
"130 383 CURVE",
"120 366 OFFCURVE",
"101 342 OFFCURVE",
"94 323 CURVE SMOOTH",
"83 291 OFFCURVE",
"73 219 OFFCURVE",
"69 183 CURVE SMOOTH",
"63 117 OFFCURVE",
"83 4 OFFCURVE",
"168 -2 CURVE",
"229 -5 OFFCURVE",
"278 35 OFFCURVE",
"323 69 CURVE SMOOTH",
"369 104 OFFCURVE",
"402 150 OFFCURVE",
"431 197 CURVE",
"433 211 OFFCURVE",
"418 216 OFFCURVE",
"409 206 CURVE",
"381 160 OFFCURVE",
"350 122 OFFCURVE",
"309 86 CURVE SMOOTH",
"189 -16 OFFCURVE",
"92 5 OFFCURVE",
"92 162 CURVE SMOOTH",
"92 197 OFFCURVE",
"112 301 OFFCURVE",
"118 317 CURVE SMOOTH",
"123 330 OFFCURVE",
"134 341 OFFCURVE",
"140 352 CURVE SMOOTH",
"167 398 OFFCURVE",
"186 444 OFFCURVE",
"231 476 CURVE SMOOTH",
"342 553 OFFCURVE",
"455 487 OFFCURVE",
"461 362 CURVE",
"467 351 OFFCURVE",
"483 350 OFFCURVE",
"485 364 CURVE"
);
}
);
userData = {
com.typemytype.robofont.mark = (
1,
0.5675,
0.4681,
1
);
};
width = 584;
}
);
unicode = 0067;
},
{
glyphname = h;
lastChange = "2020-03-15 11:44:20 +0000";
layers = (
{
layerId = master01;
paths = (
{
closed = 1;
nodes = (
"-14 -5 OFFCURVE",
"14 -17 OFFCURVE",
"23 14 CURVE",
"187 316 OFFCURVE",
"380 503 OFFCURVE",
"474 503 CURVE SMOOTH",
"515 503 OFFCURVE",
"539 487 OFFCURVE",
"539 444 CURVE SMOOTH",
"539 364 OFFCURVE",
"439 249 OFFCURVE",
"404 136 CURVE SMOOTH",
"380 59 OFFCURVE",
"390.176 -11 OFFCURVE",
"469 -11 CURVE SMOOTH",
"541 -11 OFFCURVE",
"634 53 OFFCURVE",
"726 171 CURVE SMOOTH",
"738 186 OFFCURVE",
"720 199 OFFCURVE",
"708 184 CURVE SMOOTH",
"620 69 OFFCURVE",
"528 13 OFFCURVE",
"470 13 CURVE SMOOTH",
"417 13 OFFCURVE",
"409 62 OFFCURVE",
"430 131 CURVE SMOOTH",
"463 238 OFFCURVE",
"565 361 OFFCURVE",
"565 444 CURVE SMOOTH",
"565 497 OFFCURVE",
"534 526 OFFCURVE",
"477 526 CURVE SMOOTH",
"363 526 OFFCURVE",
"179 333 OFFCURVE",
"31 69 CURVE",
"41 66 LINE",
"194 358 OFFCURVE",
"291 559 OFFCURVE",
"397 794 CURVE SMOOTH",
"402 806 OFFCURVE",
"400 819 OFFCURVE",
"383 818 CURVE SMOOTH",
"291 810 OFFCURVE",
"200 808 OFFCURVE",
"132 808 CURVE SMOOTH",
"116 808 OFFCURVE",
"116 786 OFFCURVE",
"132 786 CURVE SMOOTH",
"205 786 OFFCURVE",
"294 788 OFFCURVE",
"385 796 CURVE",
"378 806 LINE",
"268 569 OFFCURVE",
"151 334 OFFCURVE",
"-4 15 CURVE SMOOTH"
);
}
);
userData = {
com.typemytype.robofont.layerData = {
background = {
anchors = (
);
components = (
);
contours = (
{
points = (
{
segmentType = curve;
smooth = 1;
x = -4;
y = 15;
},
{
smooth = 0;
x = -14;
y = -5;
},
{
smooth = 0;
x = 14;
y = -17;
},
{
segmentType = curve;
smooth = 0;
x = 23;
y = 14;
},
{
smooth = 0;
x = 187;
y = 316;
},
{
smooth = 0;
x = 380;
y = 503;
},
{
segmentType = curve;
smooth = 1;
x = 474;
y = 503;
},
{
smooth = 0;
x = 515;
y = 503;
},
{
smooth = 0;
x = 539;
y = 487;
},
{
segmentType = curve;
smooth = 1;
x = 539;
y = 444;
},
{
smooth = 0;
x = 539;
y = 373;
},
{
smooth = 0;
x = 425;
y = 233;
},
{
segmentType = curve;
smooth = 1;
x = 398;
y = 114;
},
{
smooth = 0;
x = 382;
y = 42;
},
{
smooth = 0;
x = 402;
y = -11;
},
{
segmentType = curve;
smooth = 1;
x = 465;
y = -11;
},
{
smooth = 0;
x = 545;
y = -11;
},
{
smooth = 0;
x = 634;
y = 54;
},
{
segmentType = curve;
smooth = 1;
x = 726;
y = 172;
},
{
smooth = 0;
x = 738;
y = 187;
},
{
smooth = 0;
x = 720;
y = 199;
},
{
segmentType = curve;
smooth = 1;
x = 708;
y = 184;
},
{
smooth = 0;
x = 620;
y = 72;
},
{
smooth = 0;
x = 534;
y = 12;
},
{
segmentType = curve;
smooth = 1;
x = 467;
y = 12;
},
{
smooth = 0;
x = 426;
y = 12;
},
{
smooth = 0;
x = 411;
y = 50;
},
{
segmentType = curve;
smooth = 1;
x = 423;
y = 106;
},
{
smooth = 0;
x = 448;
y = 221;
},
{
smooth = 0;
x = 565;
y = 369;
},
{
segmentType = curve;
smooth = 1;
x = 565;
y = 444;
},
{
smooth = 0;
x = 565;
y = 497;
},
{
smooth = 0;
x = 532;
y = 526;
},
{
segmentType = curve;
smooth = 1;
x = 475;
y = 526;
},
{
smooth = 0;
x = 363;
y = 526;
},
{
smooth = 0;
x = 179;
y = 333;
},
{
segmentType = curve;
smooth = 0;
x = 31;
y = 69;
},
{
segmentType = line;
smooth = 0;
x = 41;
y = 66;
},
{
smooth = 0;
x = 194;
y = 358;
},
{
smooth = 0;
x = 291;
y = 559;
},
{
segmentType = curve;
smooth = 1;
x = 397;
y = 794;
},
{
smooth = 0;
x = 402;
y = 806;
},
{
smooth = 0;
x = 400;
y = 819;
},
{
segmentType = curve;
smooth = 1;
x = 383;
y = 818;
},
{
smooth = 0;
x = 291;
y = 810;
},
{
smooth = 0;
x = 200;
y = 808;
},
{
segmentType = curve;
smooth = 1;
x = 132;
y = 808;
},
{
smooth = 0;
x = 116;
y = 808;
},
{
smooth = 0;
x = 116;
y = 786;
},
{
segmentType = curve;
smooth = 1;
x = 132;
y = 786;
},
{
smooth = 0;
x = 205;
y = 786;
},
{
smooth = 0;
x = 294;
y = 788;
},
{
segmentType = curve;
smooth = 0;
x = 385;
y = 796;
},
{
segmentType = line;
smooth = 0;
x = 378;
y = 806;
},
{
smooth = 0;
x = 268;
y = 569;
},
{
smooth = 0;
x = 151;
y = 334;
}
);
}
);
lib = {
};
name = h;
unicodes = (
);
width = 630;
};
};
};
width = 630;
}
);
unicode = 0068;
},
{
color = 0;
glyphname = i;
lastChange = "2020-03-15 11:43:11 +0000";
layers = (
{
layerId = master01;
paths = (
{
closed = 1;
nodes = (
"85 501 OFFCURVE",
"153 490 OFFCURVE",
"169 489 CURVE",
"195 489 OFFCURVE",
"221 488 OFFCURVE",
"247 489 CURVE",
"264 491 OFFCURVE",
"287 501 OFFCURVE",
"303 498 CURVE",
"292 511 LINE",
"286 483 OFFCURVE",
"260 461 OFFCURVE",
"248 435 CURVE SMOOTH",
"237 412 OFFCURVE",
"233 387 OFFCURVE",
"223 363 CURVE SMOOTH",
"201 310 OFFCURVE",
"165 261 OFFCURVE",
"136 211 CURVE SMOOTH",
"118 178 OFFCURVE",
"86 118 OFFCURVE",
"95 77 CURVE SMOOTH",
"129 -74 OFFCURVE",
"292 -5 OFFCURVE",
"381 56 CURVE SMOOTH",
"414 79 OFFCURVE",
"437 113 OFFCURVE",
"465 141 CURVE SMOOTH",
"489 164 OFFCURVE",
"524 185 OFFCURVE",
"533 218 CURVE",
"536 234 OFFCURVE",
"517 237 OFFCURVE",
"510 224 CURVE",
"507 210 OFFCURVE",
"396 93 OFFCURVE",
"368 74 CURVE SMOOTH",
"336 52 OFFCURVE",
"298 36 OFFCURVE",
"261 22 CURVE SMOOTH",
"216 6 OFFCURVE",
"154 -7 OFFCURVE",
"127 47 CURVE",
"103 98 OFFCURVE",
"135 159 OFFCURVE",
"158 202 CURVE SMOOTH",
"181 244 OFFCURVE",
"208 283 OFFCURVE",
"230 324 CURVE SMOOTH",
"249 358 OFFCURVE",
"256 395 OFFCURVE",
"271 430 CURVE SMOOTH",
"283 456 OFFCURVE",
"309 477 OFFCURVE",
"315 505 CURVE SMOOTH",
"317 513 OFFCURVE",
"314 517 OFFCURVE",
"307 519 CURVE SMOOTH",
"281 525 OFFCURVE",
"248 511 OFFCURVE",
"222 511 CURVE SMOOTH",
"191 511 OFFCURVE",
"80 525 OFFCURVE",
"53 508 CURVE SMOOTH",
"39 499 OFFCURVE",
"50 483 OFFCURVE",
"64 489 CURVE"
);
},
{
closed = 1;
nodes = (
"332 756 OFFCURVE",
"298 627 OFFCURVE",
"362 660 CURVE SMOOTH",
"372 665 OFFCURVE",
"379 670 OFFCURVE",
"382 680 CURVE SMOOTH",
"383 686 OFFCURVE",
"382 689 OFFCURVE",
"377 692 CURVE SMOOTH",
"368 699 OFFCURVE",
"363 699 OFFCURVE",
"350 700 CURVE",
"336 697 OFFCURVE",
"336 681 OFFCURVE",
"350 678 CURVE",
"354 678 OFFCURVE",
"364 671 OFFCURVE",
"363 675 CURVE SMOOTH",
"359 694 OFFCURVE",
"336 676 OFFCURVE",
"352 671 CURVE",
"355 671 OFFCURVE",
"350 677 OFFCURVE",
"350 680 CURVE SMOOTH",
"350 683 OFFCURVE",
"354 690 OFFCURVE",
"352 688 CURVE",
"352 688 OFFCURVE",
"351 687 OFFCURVE",
"350 687 CURVE SMOOTH",
"344 692 OFFCURVE",
"350 688 OFFCURVE",
"351 686 CURVE SMOOTH",
"360 676 OFFCURVE",
"375 681 OFFCURVE",
"373 694 CURVE"
);
}
);
userData = {
com.typemytype.robofont.mark = (
1,
0.5675,
0.4681,
1
);
};
width = 426;
}
);
unicode = 0069;
},
{
color = 0;
glyphname = j;
lastChange = "2020-03-15 11:43:11 +0000";
layers = (
{
layerId = master01;
paths = (
{
closed = 1;
nodes = (
"160 492 OFFCURVE",
"236 501 OFFCURVE",
"311 498 CURVE",
"299 512 LINE",
"296 490 OFFCURVE",
"280 464 OFFCURVE",
"271 445 CURVE SMOOTH",
"253 406 OFFCURVE",
"234 366 OFFCURVE",
"219 325 CURVE SMOOTH",
"180 222 OFFCURVE",
"146 122 OFFCURVE",
"97 24 CURVE SMOOTH",
"94 17 OFFCURVE",
"112 53 OFFCURVE",
"108 45 CURVE SMOOTH",
"95 22 OFFCURVE",
"83 -3 OFFCURVE",
"70 -27 CURVE SMOOTH",
"34 -95 OFFCURVE",
"-32 -231 OFFCURVE",
"-98 -275 CURVE SMOOTH",
"-134 -300 OFFCURVE",
"-182 -292 OFFCURVE",
"-213 -264 CURVE SMOOTH",
"-219 -258 OFFCURVE",
"-224 -249 OFFCURVE",
"-225 -241 CURVE SMOOTH",
"-227 -205 OFFCURVE",
"-200 -225 OFFCURVE",
"-227 -229 CURVE",
"-243 -233 OFFCURVE",
"-239 -253 OFFCURVE",
"-223 -251 CURVE SMOOTH",
"-120 -234 OFFCURVE",
"-270 -138 OFFCURVE",
"-248 -248 CURVE SMOOTH",
"-233 -321 OFFCURVE",
"-135 -318 OFFCURVE",
"-85 -293 CURVE SMOOTH",
"-33 -267 OFFCURVE",
"31 -145 OFFCURVE",
"56 -101 CURVE SMOOTH",
"138 41 OFFCURVE",
"185 167 OFFCURVE",
"242 319 CURVE SMOOTH",
"258 360 OFFCURVE",
"276 400 OFFCURVE",
"294 439 CURVE SMOOTH",
"304 459 OFFCURVE",
"319 484 OFFCURVE",
"322 505 CURVE SMOOTH",
"324 515 OFFCURVE",
"319 519 OFFCURVE",
"310 520 CURVE SMOOTH",
"235 524 OFFCURVE",
"160 514 OFFCURVE",
"85 512 CURVE",
"71 509 OFFCURVE",
"71 493 OFFCURVE",
"85 490 CURVE"
);
},
{
closed = 1;
nodes = (
"345 723 OFFCURVE",
"320 679 OFFCURVE",
"359 659 CURVE SMOOTH",
"396 641 OFFCURVE",
"438 702 OFFCURVE",
"370 710 CURVE",
"356 707 OFFCURVE",
"356 691 OFFCURVE",
"370 688 CURVE",
"374 688 OFFCURVE",
"378 688 OFFCURVE",
"382 685 CURVE",
"382 682 OFFCURVE",
"381 681 OFFCURVE",
"378 678 CURVE",
"361 680 OFFCURVE",
"357 696 OFFCURVE",
"376 690 CURVE SMOOTH",
"391 686 OFFCURVE",
"400 704 OFFCURVE",
"384 710 CURVE SMOOTH"
);
}
);
userData = {
com.typemytype.robofont.mark = (
1,
0.5675,
0.4681,
1
);
};
width = 359;
}
);
unicode = 006A;
},
{
color = 0;
glyphname = k;
lastChange = "2020-03-15 11:43:11 +0000";
layers = (
{
layerId = master01;
paths = (
{
closed = 1;
nodes = (
"126 785 OFFCURVE",
"350 799 OFFCURVE",
"354 802 CURVE SMOOTH",
"359 806 OFFCURVE",
"345 810 OFFCURVE",
"339 811 CURVE",
"336 813 OFFCURVE",
"340 804 OFFCURVE",
"339 801 CURVE SMOOTH",
"333 783 OFFCURVE",
"322 767 OFFCURVE",
"313 751 CURVE SMOOTH",
"306 739 OFFCURVE",
"303 726 OFFCURVE",
"297 714 CURVE SMOOTH",
"282 686 OFFCURVE",
"263 660 OFFCURVE",
"249 630 CURVE SMOOTH",
"236 601 OFFCURVE",
"227 571 OFFCURVE",
"213 541 CURVE SMOOTH",
"161 430 OFFCURVE",
"110 340 OFFCURVE",
"68 222 CURVE SMOOTH",
"49 168 OFFCURVE",
"7 35 OFFCURVE",
"-14 14 CURVE",
"-25 1 OFFCURVE",
"-8 -10 OFFCURVE",
"3 -1 CURVE",
"52 58 OFFCURVE",
"92 220 OFFCURVE",
"118 291 CURVE SMOOTH",
"149 374 OFFCURVE",
"196 449 OFFCURVE",
"233 528 CURVE SMOOTH",
"248 560 OFFCURVE",
"259 593 OFFCURVE",
"273 625 CURVE SMOOTH",
"288 658 OFFCURVE",
"372 782 OFFCURVE",
"362 816 CURVE",
"359 822 OFFCURVE",
"356 823 OFFCURVE",
"350 824 CURVE",
"269 819 OFFCURVE",
"185 815 OFFCURVE",
"104 805 CURVE",
"88 801 OFFCURVE",
"92 781 OFFCURVE",
"108 783 CURVE SMOOTH"
);
},
{
closed = 1;
nodes = (
"141 305 OFFCURVE",
"298 342 OFFCURVE",
"326 260 CURVE",
"347 203 OFFCURVE",
"323 140 OFFCURVE",
"331 81 CURVE SMOOTH",
"335 57 OFFCURVE",
"344 44 OFFCURVE",
"358 26 CURVE SMOOTH",
"409 -37 OFFCURVE",
"510 8 OFFCURVE",
"557 54 CURVE SMOOTH",
"573 70 OFFCURVE",
"608 106 OFFCURVE",
"622 122 CURVE SMOOTH",
"653 155 OFFCURVE",
"686 189 OFFCURVE",
"710 227 CURVE",
"712 241 OFFCURVE",
"697 246 OFFCURVE",
"688 236 CURVE",
"660 191 OFFCURVE",
"656 192 OFFCURVE",
"605 136 CURVE",
"591 122 OFFCURVE",
"555 83 OFFCURVE",
"539 68 CURVE SMOOTH",
"518 48 OFFCURVE",
"507 38 OFFCURVE",
"479 29 CURVE SMOOTH",
"419 9 OFFCURVE",
"366 10 OFFCURVE",
"355 86 CURVE SMOOTH",
"347 145 OFFCURVE",
"371 209 OFFCURVE",
"349 267 CURVE SMOOTH",
"311 372 OFFCURVE",
"133 330 OFFCURVE",
"89 272 CURVE",
"83 258 OFFCURVE",
"100 253 OFFCURVE",
"109 260 CURVE"
);
},
{
closed = 1;
nodes = (
"289 327 OFFCURVE",
"287 346 OFFCURVE",
"297 360 CURVE SMOOTH",
"343 422 OFFCURVE",
"435 518 OFFCURVE",
"520 496 CURVE",
"539 492 OFFCURVE",
"535 451 OFFCURVE",
"519 461 CURVE SMOOTH",
"507 469 OFFCURVE",
"504 490 OFFCURVE",
"519 494 CURVE",
"535 501 OFFCURVE",
"526 519 OFFCURVE",
"511 515 CURVE SMOOTH",
"478 505 OFFCURVE",
"476 455 OFFCURVE",
"509 441 CURVE SMOOTH",
"550 423 OFFCURVE",
"571 481 OFFCURVE",
"543 507 CURVE SMOOTH",
"509 538 OFFCURVE",
"457 520 OFFCURVE",
"422 500 CURVE SMOOTH",
"366 469 OFFCURVE",
"314 423 OFFCURVE",
"276 371 CURVE SMOOTH",
"266 357 OFFCURVE",
"268 338 OFFCURVE",
"257 324 CURVE",
"251 310 OFFCURVE",
"268 305 OFFCURVE",
"277 312 CURVE"
);
}
);
userData = {
com.typemytype.robofont.mark = (
1,
0.5675,
0.4681,
1
);
};
width = 605;
}
);
unicode = 006B;
},
{
color = 0;
glyphname = l;
lastChange = "2020-03-15 11:43:11 +0000";
layers = (
{
layerId = master01;
paths = (
{
closed = 1;
nodes = (
"153 799 OFFCURVE",
"145 795 OFFCURVE",
"143 792 CURVE",
"143 791 OFFCURVE",
"147 793 OFFCURVE",
"148 793 CURVE",
"175 793 LINE",
"232 796 LINE SMOOTH",
"266 798 OFFCURVE",
"338 810 OFFCURVE",
"378 801 CURVE",
"371 821 LINE",
"284 678 OFFCURVE",
"222 519 OFFCURVE",
"160 364 CURVE",
"149 334 OFFCURVE",
"128 308 OFFCURVE",
"112 281 CURVE SMOOTH",
"78 225 OFFCURVE",
"57 140 OFFCURVE",
"77 75 CURVE SMOOTH",
"84 52 OFFCURVE",
"105 35 OFFCURVE",
"122 21 CURVE SMOOTH",
"218 -57 OFFCURVE",
"348 25 OFFCURVE",
"404 113 CURVE SMOOTH",
"412 126 OFFCURVE",
"438 158 OFFCURVE",
"440 176 CURVE",
"443 192 OFFCURVE",
"424 195 OFFCURVE",
"417 182 CURVE",
"415 168 OFFCURVE",
"414 173 OFFCURVE",
"403 157 CURVE",
"354 75 OFFCURVE",
"236 -46 OFFCURVE",
"137 38 CURVE SMOOTH",
"123 50 OFFCURVE",
"106 62 OFFCURVE",
"100 80 CURVE SMOOTH",
"83 139 OFFCURVE",
"98 214 OFFCURVE",
"134 272 CURVE SMOOTH",
"151 301 OFFCURVE",
"171 328 OFFCURVE",
"184 358 CURVE",
"246 511 OFFCURVE",
"306 667 OFFCURVE",
"390 809 CURVE",
"392 816 OFFCURVE",
"389 820 OFFCURVE",
"382 823 CURVE",
"329 834 OFFCURVE",
"257 819 OFFCURVE",
"203 816 CURVE",
"181 816 OFFCURVE",
"140 827 OFFCURVE",
"128 802 CURVE",
"128 788 OFFCURVE",
"144 786 OFFCURVE",
"151 796 CURVE SMOOTH"
);
}
);
userData = {
com.typemytype.robofont.mark = (
1,
0.5675,
0.4681,
1
);
};
width = 344;
}
);
unicode = 006C;
},
{
color = 0;
glyphname = m;
lastChange = "2020-03-15 11:43:11 +0000";
layers = (
{
layerId = master01;
paths = (
{
closed = 1;
nodes = (
"119 494 OFFCURVE",
"168 486 OFFCURVE",
"217 485 CURVE SMOOTH",
"233 485 OFFCURVE",
"249 489 OFFCURVE",
"264 489 CURVE",
"257 508 LINE",
"151 402 OFFCURVE",
"107 204 OFFCURVE",
"19 59 CURVE SMOOTH",
"11 45 OFFCURVE",
"7 23 OFFCURVE",
"-4 12 CURVE",
"16 3 LINE",
"16 30 OFFCURVE",
"69 84 OFFCURVE",
"84 108 CURVE SMOOTH",
"108 146 OFFCURVE",
"133 178 OFFCURVE",
"160 212 CURVE SMOOTH",
"179 236 OFFCURVE",
"191 264 OFFCURVE",
"210 287 CURVE SMOOTH",
"256 344 OFFCURVE",
"317 396 OFFCURVE",
"376 439 CURVE SMOOTH",
"399 456 OFFCURVE",
"531 540 OFFCURVE",
"557 494 CURVE",
"594 432 OFFCURVE",
"533 381 OFFCURVE",
"505 330 CURVE SMOOTH",
"481 284 OFFCURVE",
"491 292 OFFCURVE",
"468 254 CURVE SMOOTH",
"452 228 OFFCURVE",
"433 203 OFFCURVE",
"419 174 CURVE SMOOTH",
"403 139 OFFCURVE",
"393 102 OFFCURVE",
"378 66 CURVE SMOOTH",
"370 46 OFFCURVE",
"353 31 OFFCURVE",
"347 10 CURVE",
"371 7 LINE",
"376 49 OFFCURVE",
"418 85 OFFCURVE",
"438 120 CURVE SMOOTH",
"464 164 OFFCURVE",
"482 213 OFFCURVE",
"511 255 CURVE SMOOTH",
"558 323 OFFCURVE",
"638 377 OFFCURVE",
"706 421 CURVE SMOOTH",
"755 453 OFFCURVE",
"829 512 OFFCURVE",
"889 480 CURVE SMOOTH",
"908 470 OFFCURVE",
"884 421 OFFCURVE",
"868 393 CURVE SMOOTH",
"814 301 OFFCURVE",
"755 217 OFFCURVE",
"722 114 CURVE SMOOTH",
"716 95 OFFCURVE",
"723 74 OFFCURVE",
"724 54 CURVE SMOOTH",
"725 36 OFFCURVE",
"751 11 OFFCURVE",
"771 7 CURVE SMOOTH",
"798 2 OFFCURVE",
"825 -3 OFFCURVE",
"852 -7 CURVE SMOOTH",
"923 -18 OFFCURVE",
"1001 85 OFFCURVE",
"1038 126 CURVE",
"1047 139 OFFCURVE",
"1031 148 OFFCURVE",
"1021 141 CURVE",
"981 97 OFFCURVE",
"940 35 OFFCURVE",
"878 18 CURVE",
"807 0 OFFCURVE",
"732 28 OFFCURVE",
"746 110 CURVE",
"765 212 OFFCURVE",
"840 298 OFFCURVE",
"890 385 CURVE SMOOTH",
"918 433 OFFCURVE",
"945 494 OFFCURVE",
"870 514 CURVE SMOOTH",
"824 526 OFFCURVE",
"721 459 OFFCURVE",
"691 438 CURVE SMOOTH",
"614 384 OFFCURVE",
"527 329 OFFCURVE",
"478 246 CURVE SMOOTH",
"455 208 OFFCURVE",
"439 167 OFFCURVE",
"416 128 CURVE SMOOTH",
"395 91 OFFCURVE",
"354 55 OFFCURVE",
"347 10 CURVE",
"347 -4 OFFCURVE",
"364 -6 OFFCURVE",
"371 5 CURVE",
"373 12 LINE",
"420 71 OFFCURVE",
"430 152 OFFCURVE",
"470 215 CURVE SMOOTH",
"496 256 OFFCURVE",
"514 297 OFFCURVE",
"537 339 CURVE SMOOTH",
"552 367 OFFCURVE",
"574 390 OFFCURVE",
"587 419 CURVE SMOOTH",
"614 477 OFFCURVE",
"575 531 OFFCURVE",
"512 526 CURVE SMOOTH",
"495 525 OFFCURVE",
"477 521 OFFCURVE",
"461 514 CURVE SMOOTH",
"415 492 OFFCURVE",
"404 487 OFFCURVE",
"361 456 CURVE SMOOTH",
"302 412 OFFCURVE",
"235 358 OFFCURVE",
"190 298 CURVE",
"172 276 OFFCURVE",
"161 249 OFFCURVE",
"142 226 CURVE SMOOTH",
"129 209 OFFCURVE",
"113 195 OFFCURVE",
"100 177 CURVE SMOOTH",
"72 137 OFFCURVE",
"49 95 OFFCURVE",
"19 56 CURVE SMOOTH",
"18 54 OFFCURVE",
"27 66 OFFCURVE",
"25 63 CURVE SMOOTH",
"12 50 OFFCURVE",
"-8 26 OFFCURVE",
"-8 6 CURVE SMOOTH",
"-8 -7 OFFCURVE",
"5 -10 OFFCURVE",
"13 -3 CURVE SMOOTH",
"28 12 OFFCURVE",
"31 34 OFFCURVE",
"41 50 CURVE SMOOTH",
"94 138 OFFCURVE",
"129 231 OFFCURVE",
"171 323 CURVE SMOOTH",
"200 388 OFFCURVE",
"226 445 OFFCURVE",
"274 493 CURVE",
"281 503 OFFCURVE",
"274 510 OFFCURVE",
"264 511 CURVE",
"248 511 OFFCURVE",
"233 507 OFFCURVE",
"217 507 CURVE SMOOTH",
"168 508 OFFCURVE",
"119 516 OFFCURVE",
"70 512 CURVE",
"56 509 OFFCURVE",
"56 493 OFFCURVE",
"70 490 CURVE"
);
}
);
userData = {
com.typemytype.robofont.mark = (
1,
0.5675,
0.4681,
1
);
};
width = 952;
}
);
unicode = 006D;
},
{
glyphname = n;
lastChange = "2020-03-15 11:44:25 +0000";
layers = (
{
layerId = master01;
paths = (
{
closed = 1;
nodes = (
"-14 -5 OFFCURVE",
"13 -17 OFFCURVE",
"22 14 CURVE",
"184 312 OFFCURVE",
"417 488 OFFCURVE",
"516 488 CURVE SMOOTH",
"546 488 OFFCURVE",
"562 479 OFFCURVE",
"562 452 CURVE SMOOTH",
"562 390 OFFCURVE",
"441 232 OFFCURVE",
"398 117 CURVE SMOOTH",
"370 42 OFFCURVE",
"401 -15 OFFCURVE",
"499 -15 CURVE SMOOTH",
"610 -15 OFFCURVE",
"669 34 OFFCURVE",
"717 144 CURVE SMOOTH",
"727 166 OFFCURVE",
"705 172 OFFCURVE",
"697 155 CURVE SMOOTH",
"649 52 OFFCURVE",
"606 8 OFFCURVE",
"501 8 CURVE SMOOTH",
"420 8 OFFCURVE",
"403 51 OFFCURVE",
"424 113 CURVE SMOOTH",
"460 218 OFFCURVE",
"587 380 OFFCURVE",
"587 452 CURVE SMOOTH",
"587 492 OFFCURVE",
"563 511 OFFCURVE",
"518 511 CURVE SMOOTH",
"405 511 OFFCURVE",
"182 330 OFFCURVE",
"30 69 CURVE",
"38 66 LINE",
"116 207 OFFCURVE",
"188 341 OFFCURVE",
"261 483 CURVE SMOOTH",
"267 495 OFFCURVE",
"264 507 OFFCURVE",
"247 507 CURVE SMOOTH",
"178 505 OFFCURVE",
"111 504 OFFCURVE",
"58 504 CURVE SMOOTH",
"42 504 OFFCURVE",
"42 482 OFFCURVE",
"58 482 CURVE SMOOTH",
"116 482 OFFCURVE",
"185 483 OFFCURVE",
"249 485 CURVE",
"241 495 LINE",
"153 331 OFFCURVE",
"77 189 OFFCURVE",
"-5 15 CURVE SMOOTH"
);
}
);
width = 630;
}
);
unicode = 006E;
},
{
glyphname = o;
lastChange = "2020-03-15 11:44:28 +0000";
layers = (
{
layerId = master01;
paths = (
{
closed = 1;
nodes = (
"318 10 OFFCURVE",
"449 125 OFFCURVE",
"485 260 CURVE SMOOTH",
"529 425 OFFCURVE",
"436 512 OFFCURVE",
"328 512 CURVE SMOOTH",
"221 512 OFFCURVE",
"96 389 OFFCURVE",
"72 240 CURVE SMOOTH",
"49 96 OFFCURVE",
"104 10 OFFCURVE",
"207 10 CURVE SMOOTH"
);
},
{
closed = 1;
nodes = (
"120 32 OFFCURVE",
"77 113 OFFCURVE",
"96 237 CURVE SMOOTH",
"118 378 OFFCURVE",
"234 490 OFFCURVE",
"328 490 CURVE SMOOTH",
"419 490 OFFCURVE",
"501 417 OFFCURVE",
"461 266 CURVE SMOOTH",
"430 149 OFFCURVE",
"314 32 OFFCURVE",
"207 32 CURVE SMOOTH"
);
}
);
userData = {
com.typemytype.robofont.layerData = {
background = {
anchors = (
);
components = (
);
contours = (
{
points = (
{
segmentType = curve;
smooth = 0;
x = 397;
y = 490;
},
{
smooth = 0;
x = 376;
y = 490;
},
{
smooth = 0;
x = 362;
y = 516;
},
{
segmentType = curve;
smooth = 1;
x = 315;
y = 511;
},
{
smooth = 0;
x = 236;
y = 504;
},
{
smooth = 0;
x = 192;
y = 449;
},
{
segmentType = curve;
smooth = 1;
x = 145;
y = 390;
},
{
smooth = 0;
x = 130;
y = 371;
},
{
smooth = 0;
x = 112;
y = 354;
},
{
segmentType = curve;
smooth = 1;
x = 99;
y = 333;
},
{
smooth = 0;
x = 83;
y = 306;
},
{
smooth = 0;
x = 77;
y = 265;
},
{
segmentType = curve;
smooth = 1;
x = 72;
y = 234;
},
{
smooth = 0;
x = 67;
y = 202;
},
{
smooth = 0;
x = 62;
y = 165;
},
{
segmentType = curve;
smooth = 1;
x = 68;
y = 132;
},
{
smooth = 0;
x = 76;
y = 87;
},
{
smooth = 0;
x = 126;
y = 34;
},
{
segmentType = curve;
smooth = 1;
x = 168;
y = 16;
},
{
smooth = 0;
x = 191;
y = 6;
},
{
smooth = 0;
x = 218;
y = 13;
},
{
segmentType = curve;
smooth = 1;
x = 243;
y = 12;
},
{
smooth = 0;
x = 351;
y = 10;
},
{
smooth = 0;
x = 522;
y = 254;
},
{
segmentType = curve;
smooth = 1;
x = 497;
y = 353;
},
{
smooth = 0;
x = 491;
y = 377;
},
{
smooth = 0;
x = 486;
y = 400;
},
{
segmentType = curve;
smooth = 0;
x = 479;
y = 423;
},
{
smooth = 0;
x = 466;
y = 473;
},
{
smooth = 0;
x = 383;
y = 509;
},
{
segmentType = curve;
smooth = 1;
x = 343;
y = 474;
},
{
smooth = 0;
x = 309;
y = 444;
},
{
smooth = 0;
x = 317;
y = 380;
},
{
segmentType = curve;
smooth = 0;
x = 360;
y = 361;
},
{
smooth = 0;
x = 393;
y = 348;
},
{
smooth = 0;
x = 402;
y = 344;
},
{
segmentType = curve;
smooth = 0;
x = 438;
y = 339;
},
{
smooth = 0;
x = 550;
y = 326;
},
{
smooth = 0;
x = 646;
y = 368;
},
{
segmentType = curve;
smooth = 0;
x = 737;
y = 426;
},
{
smooth = 0;
x = 762;
y = 443;
},
{
smooth = 0;
x = 806;
y = 465;
},
{
segmentType = curve;
smooth = 1;
x = 813;
y = 497;
},
{
smooth = 0;
x = 816;
y = 513;
},
{
smooth = 0;
x = 797;
y = 516;
},
{
segmentType = curve;
smooth = 0;
x = 790;
y = 503;
},
{
smooth = 0;
x = 786;
y = 483;
},
{
smooth = 0;
x = 762;
y = 473;
},
{
segmentType = curve;
smooth = 1;
x = 748;
y = 460;
},
{
smooth = 0;
x = 692;
y = 412;
},
{
smooth = 0;
x = 575;
y = 359;
},
{
segmentType = curve;
smooth = 1;
x = 481;
y = 359;
},
{
smooth = 0;
x = 412;
y = 359;
},
{
smooth = 0;
x = 327;
y = 370;
},
{
segmentType = curve;
smooth = 1;
x = 355;
y = 453;
},
{
smooth = 0;
x = 370;
y = 497;
},
{
smooth = 0;
x = 470;
y = 440;
},
{
segmentType = curve;
smooth = 1;
x = 473;
y = 349;
},
{
smooth = 0;
x = 476;
y = 231;
},
{
smooth = 0;
x = 362;
y = 60;
},
{
segmentType = curve;
smooth = 1;
x = 242;
y = 35;
},
{
smooth = 0;
x = 178;
y = 21;
},
{
smooth = 0;
x = 145;
y = 48;
},
{
segmentType = curve;
smooth = 1;
x = 113;
y = 96;
},
{
smooth = 0;
x = 102;
y = 112;
},
{
smooth = 0;
x = 95;
y = 119;
},
{
segmentType = curve;
smooth = 1;
x = 91;
y = 138;
},
{
smooth = 0;
x = 81;
y = 195;
},
{
smooth = 0;
x = 98;
y = 273;
},
{
segmentType = curve;
smooth = 1;
x = 121;
y = 324;
},
{
smooth = 0;
x = 131;
y = 345;
},
{
smooth = 0;
x = 151;
y = 361;
},
{
segmentType = curve;
smooth = 1;
x = 165;
y = 378;
},
{
smooth = 0;
x = 210;
y = 435;
},
{
smooth = 0;
x = 252;
y = 488;
},
{
segmentType = curve;
smooth = 1;
x = 328;
y = 490;
},
{
smooth = 0;
x = 355;
y = 491;
},
{
smooth = 0;
x = 376;
y = 464;
},
{
segmentType = curve;
smooth = 0;
x = 401;
y = 468;
},
{
smooth = 0;
x = 415;
y = 474;
},
{
smooth = 0;
x = 411;
y = 488;
}
);
}
);
lib = {
};
name = o;
unicodes = (
);
width = 575;
};
};
};
width = 575;
}
);
unicode = 006F;
},
{
color = 0;
glyphname = p;
lastChange = "2020-03-15 11:43:11 +0000";
layers = (
{
layerId = master01;
paths = (
{
closed = 1;
nodes = (
"218 389 OFFCURVE",
"228 403 OFFCURVE",
"243 411 CURVE SMOOTH",
"263 423 OFFCURVE",
"285 431 OFFCURVE",
"305 442 CURVE SMOOTH",
"360 474 OFFCURVE",
"411 504 OFFCURVE",
"476 488 CURVE SMOOTH",
"516 478 OFFCURVE",
"526 388 OFFCURVE",
"522 363 CURVE SMOOTH",
"518 333 OFFCURVE",
"503 296 OFFCURVE",
"491 269 CURVE SMOOTH",
"427 129 OFFCURVE",
"321 -43 OFFCURVE",
"148 67 CURVE SMOOTH",
"122 84 OFFCURVE",
"100 124 OFFCURVE",
"92 138 CURVE SMOOTH",
"87 149 OFFCURVE",
"92 157 OFFCURVE",
"82 164 CURVE",
"71 174 OFFCURVE",
"54 163 OFFCURVE",
"65 150 CURVE",
"65 150 OFFCURVE",
"65 150 OFFCURVE",
"65 149 CURVE SMOOTH",
"87 76 OFFCURVE",
"145 35 OFFCURVE",
"217 14 CURVE",
"234 10 OFFCURVE",
"259 4 OFFCURVE",
"276 8 CURVE SMOOTH",
"311 17 OFFCURVE",
"346 35 OFFCURVE",
"374 56 CURVE SMOOTH",
"440 106 OFFCURVE",
"509 238 OFFCURVE",
"533 311 CURVE SMOOTH",
"566 410 OFFCURVE",
"541 532 OFFCURVE",
"415 514 CURVE SMOOTH",
"350 505 OFFCURVE",
"288 461 OFFCURVE",
"231 430 CURVE SMOOTH",
"219 424 OFFCURVE",
"210 412 OFFCURVE",
"196 407 CURVE",
"180 403 OFFCURVE",
"184 383 OFFCURVE",
"200 385 CURVE"
);
},
{
closed = 1;
nodes = (
"77 490 OFFCURVE",
"173 495 OFFCURVE",
"228 502 CURVE",
"234 502 LINE",
"222 515 LINE",
"220 501 OFFCURVE",
"208 489 OFFCURVE",
"203 476 CURVE SMOOTH",
"197 457 OFFCURVE",
"196 436 OFFCURVE",
"189 417 CURVE SMOOTH",
"180 392 OFFCURVE",
"163 370 OFFCURVE",
"150 346 CURVE SMOOTH",
"139 325 OFFCURVE",
"131 301 OFFCURVE",
"120 279 CURVE SMOOTH",
"114 266 OFFCURVE",
"79 197 OFFCURVE",
"66 167 CURVE SMOOTH",
"53 137 OFFCURVE",
"44 105 OFFCURVE",
"28 75 CURVE SMOOTH",
"8 36 OFFCURVE",
"-18 1 OFFCURVE",
"-40 -38 CURVE SMOOTH",
"-71 -96 OFFCURVE",
"-94 -159 OFFCURVE",
"-123 -218 CURVE SMOOTH",
"-132 -235 OFFCURVE",
"-143 -251 OFFCURVE",
"-144 -270 CURVE SMOOTH",
"-144 -285 OFFCURVE",
"-122 -287 OFFCURVE",
"-120 -272 CURVE",
"-120 -248 OFFCURVE",
"-99 -224 OFFCURVE",
"-90 -203 CURVE SMOOTH",
"-56 -130 OFFCURVE",
"-26 -59 OFFCURVE",
"16 9 CURVE",
"48 58 OFFCURVE",
"66 109 OFFCURVE",
"89 162 CURVE SMOOTH",
"115 221 OFFCURVE",
"144 280 OFFCURVE",
"172 338 CURVE SMOOTH",
"185 363 OFFCURVE",
"203 385 OFFCURVE",
"212 411 CURVE SMOOTH",
"220 431 OFFCURVE",
"220 451 OFFCURVE",
"227 470 CURVE SMOOTH",
"232 484 OFFCURVE",
"243 495 OFFCURVE",
"245 509 CURVE SMOOTH",
"247 519 OFFCURVE",
"242 523 OFFCURVE",
"233 524 CURVE",
"173 524 OFFCURVE",
"108 520 OFFCURVE",
"49 507 CURVE SMOOTH",
"33 503 OFFCURVE",
"37 483 OFFCURVE",
"53 485 CURVE"
);
}
);
userData = {
com.typemytype.robofont.mark = (
1,
0.5675,
0.4681,
1
);
};
width = 610;
}
);
unicode = 0070;
},
{
color = 0;
glyphname = q;
lastChange = "2020-03-15 11:43:11 +0000";
layers = (
{
layerId = master01;
paths = (
{
closed = 1;
nodes = (
"487 359 OFFCURVE",
"485 366 OFFCURVE",
"484 374 CURVE",
"484 374 OFFCURVE",
"492 404 OFFCURVE",
"492 419 CURVE SMOOTH",
"492 434 OFFCURVE",
"482 447 OFFCURVE",
"476 460 CURVE SMOOTH",
"460 497 OFFCURVE",
"369 531 OFFCURVE",
"332 528 CURVE SMOOTH",
"266 523 OFFCURVE",
"285 527 OFFCURVE",
"224 500 CURVE SMOOTH",
"166 474 OFFCURVE",
"98 330 OFFCURVE",
"82 273 CURVE",
"76 247 OFFCURVE",
"69 220 OFFCURVE",
"69 193 CURVE",
"72 108 OFFCURVE",
"65 144 OFFCURVE",
"89 68 CURVE",
"124 -37 OFFCURVE",
"291 -7 OFFCURVE",
"356 40 CURVE SMOOTH",
"377 55 OFFCURVE",
"389 79 OFFCURVE",
"407 96 CURVE",
"416 109 OFFCURVE",
"400 118 OFFCURVE",
"390 111 CURVE",
"330 55 OFFCURVE",
"358 47 OFFCURVE",
"251 22 CURVE SMOOTH",
"129 -6 OFFCURVE",
"85 90 OFFCURVE",
"93 195 CURVE SMOOTH",
"101 293 OFFCURVE",
"160 429 OFFCURVE",
"236 481 CURVE SMOOTH",
"298 524 OFFCURVE",
"409 512 OFFCURVE",
"454 450 CURVE",
"478 419 OFFCURVE",
"456 394 OFFCURVE",
"461 362 CURVE",
"461 361 OFFCURVE",
"461 361 OFFCURVE",
"460 360 CURVE SMOOTH",
"453 345 OFFCURVE",
"475 340 OFFCURVE",
"482 351 CURVE SMOOTH"
);
},
{
closed = 1;
nodes = (
"457 398 OFFCURVE",
"435 255 OFFCURVE",
"398 130 CURVE SMOOTH",
"385 88 OFFCURVE",
"363 56 OFFCURVE",
"346 16 CURVE SMOOTH",
"321 -45 OFFCURVE",
"297 -106 OFFCURVE",
"271 -167 CURVE SMOOTH",
"251 -214 OFFCURVE",
"246 -267 OFFCURVE",
"222 -312 CURVE SMOOTH",
"215 -327 OFFCURVE",
"237 -332 OFFCURVE",
"244 -321 CURVE",
"269 -274 OFFCURVE",
"274 -221 OFFCURVE",
"294 -173 CURVE SMOOTH",
"320 -112 OFFCURVE",
"344 -50 OFFCURVE",
"369 10 CURVE SMOOTH",
"379 34 OFFCURVE",
"396 54 OFFCURVE",
"406 77 CURVE SMOOTH",
"419 108 OFFCURVE",
"427 144 OFFCURVE",
"436 176 CURVE SMOOTH",
"467 284 OFFCURVE",
"490 405 OFFCURVE",
"551 499 CURVE",
"553 513 OFFCURVE",
"538 518 OFFCURVE",
"529 508 CURVE"
);
}
);
userData = {
com.typemytype.robofont.mark = (
1,
0.5675,
0.4681,
1
);
};
width = 582;
}
);
unicode = 0071;
},
{
color = 0;
glyphname = r;
lastChange = "2020-03-15 11:43:11 +0000";
layers = (
{
layerId = master01;
paths = (
{
closed = 1;
nodes = (
"139 515 OFFCURVE",
"206 489 OFFCURVE",
"261 500 CURVE",
"253 521 LINE",
"223 506 OFFCURVE",
"163 361 OFFCURVE",
"156 348 CURVE SMOOTH",
"133 301 OFFCURVE",
"104 255 OFFCURVE",
"84 206 CURVE SMOOTH",
"72 177 OFFCURVE",
"66 145 OFFCURVE",
"56 115 CURVE SMOOTH",
"45 78 OFFCURVE",
"28 42 OFFCURVE",
"15 5 CURVE",
"38 -1 LINE",
"57 57 OFFCURVE",
"119 131 OFFCURVE",
"151 182 CURVE SMOOTH",
"211 276 OFFCURVE",
"274 412 OFFCURVE",
"368 474 CURVE SMOOTH",
"391 489 OFFCURVE",
"489 509 OFFCURVE",
"481 466 CURVE",
"477 438 OFFCURVE",
"427 433 OFFCURVE",
"437 473 CURVE",
"453 479 LINE",
"454 479 OFFCURVE",
"454 479 OFFCURVE",
"455 478 CURVE SMOOTH",
"464 465 OFFCURVE",
"456 462 OFFCURVE",
"453 480 CURVE",
"446 491 OFFCURVE",
"430 489 OFFCURVE",
"430 475 CURVE",
"442 408 OFFCURVE",
"519 467 OFFCURVE",
"468 497 CURVE SMOOTH",
"433 517 OFFCURVE",
"387 467 OFFCURVE",
"423 434 CURVE SMOOTH",
"461 400 OFFCURVE",
"515 442 OFFCURVE",
"501 486 CURVE SMOOTH",
"498 498 OFFCURVE",
"483 501 OFFCURVE",
"473 506 CURVE",
"429 533 OFFCURVE",
"357 502 OFFCURVE",
"323 470 CURVE SMOOTH",
"241 395 OFFCURVE",
"188 284 OFFCURVE",
"129 190 CURVE SMOOTH",
"99 141 OFFCURVE",
"33 63 OFFCURVE",
"15 6 CURVE",
"15 -8 OFFCURVE",
"31 -10 OFFCURVE",
"38 0 CURVE",
"46 19 OFFCURVE",
"40 15 OFFCURVE",
"50 41 CURVE SMOOTH",
"60 64 OFFCURVE",
"73 86 OFFCURVE",
"80 109 CURVE SMOOTH",
"89 140 OFFCURVE",
"95 172 OFFCURVE",
"107 201 CURVE SMOOTH",
"127 248 OFFCURVE",
"155 294 OFFCURVE",
"178 339 CURVE SMOOTH",
"188 358 OFFCURVE",
"244 489 OFFCURVE",
"264 502 CURVE SMOOTH",
"275 510 OFFCURVE",
"269 521 OFFCURVE",
"257 522 CURVE",
"198 510 OFFCURVE",
"132 535 OFFCURVE",
"76 508 CURVE",
"62 499 OFFCURVE",
"73 483 OFFCURVE",
"87 489 CURVE"
);
}
);
userData = {
com.typemytype.robofont.mark = (
1,
0.5675,
0.4681,
1
);
};
width = 490;
}
);
unicode = 0072;
},
{
glyphname = s;
lastChange = "2020-03-15 11:44:32 +0000";
layers = (
{
layerId = master01;
paths = (
{
closed = 1;
nodes = (
"349 -28 OFFCURVE",
"391 39 OFFCURVE",
"391 118 CURVE SMOOTH",
"391 261 OFFCURVE",
"284 313 OFFCURVE",
"284 416 CURVE SMOOTH",
"284 469 OFFCURVE",
"328 515 OFFCURVE",
"420 515 CURVE SMOOTH",
"500 515 OFFCURVE",
"525 481 OFFCURVE",
"519 410 CURVE SMOOTH",
"517 392 OFFCURVE",
"540 391 OFFCURVE",
"542 410 CURVE SMOOTH",
"552 504 OFFCURVE",
"504 537 OFFCURVE",
"420 537 CURVE SMOOTH",
"318 537 OFFCURVE",
"261 484 OFFCURVE",
"261 416 CURVE SMOOTH",
"261 301 OFFCURVE",
"368 248 OFFCURVE",
"368 119 CURVE SMOOTH",
"368 51 OFFCURVE",
"330 -6 OFFCURVE",
"240 -6 CURVE SMOOTH",
"112 -6 OFFCURVE",
"70 116 OFFCURVE",
"91 264 CURVE SMOOTH",
"93 280 OFFCURVE",
"69 282 OFFCURVE",
"67 265 CURVE SMOOTH",
"42 93 OFFCURVE",
"103 -28 OFFCURVE",
"241 -28 CURVE SMOOTH"
);
}
);
userData = {
com.typemytype.robofont.layerData = {
background = {
anchors = (
);
components = (
);
contours = (
{
points = (
{
segmentType = curve;
smooth = 1;
x = 241;
y = -28;
},
{
smooth = 0;
x = 349;
y = -28;
},
{
smooth = 0;
x = 391;
y = 39;
},
{
segmentType = curve;
smooth = 1;
x = 391;
y = 118;
},
{
smooth = 0;
x = 391;
y = 261;
},
{
smooth = 0;
x = 284;
y = 313;
},
{
segmentType = curve;
smooth = 1;
x = 284;
y = 416;
},
{
smooth = 0;
x = 284;
y = 469;
},
{
smooth = 0;
x = 328;
y = 515;
},
{
segmentType = curve;
smooth = 1;
x = 420;
y = 515;
},
{
smooth = 0;
x = 500;
y = 515;
},
{
smooth = 0;
x = 525;
y = 481;
},
{
segmentType = curve;
smooth = 1;
x = 519;
y = 410;
},
{
smooth = 0;
x = 517;
y = 392;
},
{
smooth = 0;
x = 540;
y = 391;
},
{
segmentType = curve;
smooth = 1;
x = 542;
y = 410;
},
{
smooth = 0;
x = 552;
y = 504;
},
{
smooth = 0;
x = 504;
y = 537;
},
{
segmentType = curve;
smooth = 1;
x = 420;
y = 537;
},
{
smooth = 0;
x = 318;
y = 537;
},
{
smooth = 0;
x = 261;
y = 484;
},
{
segmentType = curve;
smooth = 1;
x = 261;
y = 416;
},
{
smooth = 0;
x = 261;
y = 301;
},
{
smooth = 0;
x = 368;
y = 248;
},
{
segmentType = curve;
smooth = 1;
x = 368;
y = 119;
},
{
smooth = 0;
x = 368;
y = 51;
},
{
smooth = 0;
x = 330;
y = -6;
},
{
segmentType = curve;
smooth = 1;
x = 240;
y = -6;
},
{
smooth = 0;
x = 112;
y = -6;
},
{
smooth = 0;
x = 70;
y = 116;
},
{
segmentType = curve;
smooth = 1;
x = 91;
y = 264;
},
{
smooth = 0;
x = 93;
y = 280;
},
{
smooth = 0;
x = 69;
y = 282;
},
{
segmentType = curve;
smooth = 1;
x = 67;
y = 265;
},
{
smooth = 0;
x = 42;
y = 93;
},
{
smooth = 0;
x = 103;
y = -28;
}
);
}
);
lib = {
};
name = s;
unicodes = (
);
width = 570;
};
};
};
width = 570;
}
);
unicode = 0073;
},
{
glyphname = t;
lastChange = "2020-03-15 11:44:34 +0000";
layers = (
{
layerId = master01;
paths = (
{
closed = 1;
nodes = (
"222 478 OFFCURVE",
"372.015 486.183 OFFCURVE",
"518 490 CURVE SMOOTH",
"534 491 OFFCURVE",
"534 511 OFFCURVE",
"518 511 CURVE SMOOTH",
"372.015 510.046 OFFCURVE",
"212 501 OFFCURVE",
"81 490 CURVE SMOOTH",
"64 488 OFFCURVE",
"67 466 OFFCURVE",
"81 467 CURVE SMOOTH"
);
},
{
closed = 1;
nodes = (
"361 -10 OFFCURVE",
"497 79 OFFCURVE",
"606 225 CURVE SMOOTH",
"616 238 OFFCURVE",
"598 249 OFFCURVE",
"589 236 CURVE SMOOTH",
"500 115 OFFCURVE",
"356 12 OFFCURVE",
"237 12 CURVE SMOOTH",
"121 12 OFFCURVE",
"95 74 OFFCURVE",
"144 210 CURVE SMOOTH",
"197 358 OFFCURVE",
"268 504 OFFCURVE",
"337 652 CURVE SMOOTH",
"345 669 OFFCURVE",
"323 675 OFFCURVE",
"315 658 CURVE SMOOTH",
"247 513 OFFCURVE",
"175 365 OFFCURVE",
"121 217 CURVE SMOOTH",
"65 63 OFFCURVE",
"106 -10 OFFCURVE",
"234 -10 CURVE SMOOTH"
);
}
);
userData = {
com.typemytype.robofont.layerData = {
background = {
anchors = (
);
components = (
);
contours = (
{
points = (
{
segmentType = curve;
smooth = 0;
x = 314;
y = 661;
},
{
smooth = 0;
x = 308;
y = 622;
},
{
smooth = 0;
x = 283;
y = 593;
},
{
segmentType = curve;
smooth = 1;
x = 268;
y = 557;
},
{
smooth = 0;
x = 258;
y = 532;
},
{
smooth = 0;
x = 253;
y = 504;
},
{
segmentType = curve;
smooth = 1;
x = 244;
y = 477;
},
{
smooth = 0;
x = 227;
y = 423;
},
{
smooth = 0;
x = 205;
y = 368;
},
{
segmentType = curve;
smooth = 1;
x = 176;
y = 317;
},
{
smooth = 0;
x = 138;
y = 250;
},
{
smooth = 0;
x = 94;
y = 202;
},
{
segmentType = curve;
smooth = 1;
x = 87;
y = 122;
},
{
smooth = 0;
x = 86;
y = 108;
},
{
smooth = 0;
x = 81;
y = 86;
},
{
segmentType = curve;
smooth = 0;
x = 84;
y = 69;
},
{
smooth = 0;
x = 87;
y = 59;
},
{
smooth = 0;
x = 104;
y = 49;
},
{
segmentType = curve;
smooth = 1;
x = 110;
y = 42;
},
{
smooth = 0;
x = 152;
y = -1;
},
{
smooth = 0;
x = 185;
y = -15;
},
{
segmentType = curve;
smooth = 1;
x = 245;
y = -9;
},
{
smooth = 0;
x = 269;
y = -7;
},
{
smooth = 0;
x = 295;
y = -8;
},
{
segmentType = curve;
smooth = 1;
x = 318;
y = -2;
},
{
smooth = 0;
x = 387;
y = 16;
},
{
smooth = 0;
x = 467;
y = 89;
},
{
segmentType = curve;
smooth = 1;
x = 517;
y = 138;
},
{
smooth = 0;
x = 539;
y = 160;
},
{
smooth = 0;
x = 575;
y = 183;
},
{
segmentType = curve;
smooth = 0;
x = 583;
y = 214;
},
{
smooth = 0;
x = 586;
y = 230;
},
{
smooth = 0;
x = 567;
y = 233;
},
{
segmentType = curve;
smooth = 0;
x = 560;
y = 220;
},
{
smooth = 0;
x = 553;
y = 194;
},
{
smooth = 0;
x = 498;
y = 150;
},
{
segmentType = curve;
smooth = 1;
x = 477;
y = 131;
},
{
smooth = 0;
x = 388;
y = 48;
},
{
smooth = 0;
x = 316;
y = 3;
},
{
segmentType = curve;
smooth = 0;
x = 195;
y = 12;
},
{
smooth = 0;
x = 167;
y = 15;
},
{
smooth = 0;
x = 146;
y = 46;
},
{
segmentType = curve;
smooth = 0;
x = 108;
y = 74;
},
{
smooth = 0;
x = 99;
y = 147;
},
{
smooth = 0;
x = 133;
y = 210;
},
{
segmentType = curve;
smooth = 1;
x = 171;
y = 267;
},
{
smooth = 0;
x = 189;
y = 294;
},
{
smooth = 0;
x = 235;
y = 378;
},
{
segmentType = curve;
smooth = 1;
x = 256;
y = 438;
},
{
smooth = 0;
x = 270;
y = 476;
},
{
smooth = 0;
x = 277;
y = 516;
},
{
segmentType = curve;
smooth = 1;
x = 291;
y = 552;
},
{
smooth = 0;
x = 306;
y = 588;
},
{
smooth = 0;
x = 332;
y = 616;
},
{
segmentType = curve;
smooth = 0;
x = 337;
y = 655;
},
{
smooth = 0;
x = 340;
y = 671;
},
{
smooth = 0;
x = 321;
y = 674;
}
);
},
{
points = (
{
segmentType = curve;
smooth = 0;
x = 95;
y = 485;
},
{
smooth = 0;
x = 223;
y = 488;
},
{
smooth = 0;
x = 351;
y = 501;
},
{
segmentType = curve;
smooth = 0;
x = 479;
y = 504;
},
{
smooth = 0;
x = 495;
y = 506;
},
{
smooth = 0;
x = 495;
y = 524;
},
{
segmentType = curve;
smooth = 0;
x = 479;
y = 526;
},
{
smooth = 0;
x = 351;
y = 523;
},
{
smooth = 0;
x = 223;
y = 510;
},
{
segmentType = curve;
smooth = 0;
x = 95;
y = 507;
},
{
smooth = 0;
x = 81;
y = 504;
},
{
smooth = 0;
x = 81;
y = 488;
}
);
}
);
lib = {
};
name = t;
unicodes = (
);
width = 485;
};
};
};
width = 485;
}
);
unicode = 0074;
},
{
glyphname = u;
lastChange = "2020-03-15 11:44:38 +0000";
layers = (
{
layerId = master01;
paths = (
{
closed = 1;
nodes = (
"562 482 OFFCURVE",
"525 425 OFFCURVE",
"504 377 CURVE",
"393 184 OFFCURVE",
"262 8 OFFCURVE",
"154 8 CURVE SMOOTH",
"96 8 OFFCURVE",
"58 32 OFFCURVE",
"96 157 CURVE SMOOTH",
"131 272 OFFCURVE",
"198 385 OFFCURVE",
"248 483 CURVE SMOOTH",
"254 495 OFFCURVE",
"251 508 OFFCURVE",
"234 507 CURVE",
"173 505 OFFCURVE",
"114 504 OFFCURVE",
"67 504 CURVE SMOOTH",
"51 504 OFFCURVE",
"51 482 OFFCURVE",
"67 482 CURVE SMOOTH",
"118 482 OFFCURVE",
"179 483 OFFCURVE",
"236 485 CURVE",
"229 495 LINE",
"174 393 OFFCURVE",
"107 282 OFFCURVE",
"70 162 CURVE SMOOTH",
"25 15 OFFCURVE",
"91 -14 OFFCURVE",
"148 -14 CURVE SMOOTH",
"279 -14 OFFCURVE",
"387 145 OFFCURVE",
"526 367 CURVE",
"509 369 LINE",
"457 264 OFFCURVE",
"418 192 OFFCURVE",
"395 115 CURVE SMOOTH",
"373 41 OFFCURVE",
"388 -15 OFFCURVE",
"470 -15 CURVE SMOOTH",
"562 -15 OFFCURVE",
"677 44 OFFCURVE",
"727 161 CURVE SMOOTH",
"736 183 OFFCURVE",
"716 189 OFFCURVE",
"708 172 CURVE SMOOTH",
"650 53 OFFCURVE",
"548 8 OFFCURVE",
"470 8 CURVE SMOOTH",
"408 8 OFFCURVE",
"404 50 OFFCURVE",
"421 111 CURVE SMOOTH",
"451 218 OFFCURVE",
"538 370 OFFCURVE",
"598 493 CURVE SMOOTH",
"607 512 OFFCURVE",
"586 516 OFFCURVE",
"577 503 CURVE SMOOTH"
);
}
);
userData = {
com.typemytype.robofont.layerData = {
background = {
anchors = (
);
components = (
);
contours = (
{
points = (
{
segmentType = curve;
smooth = 0;
x = 73;
y = 492;
},
{
smooth = 0;
x = 109;
y = 503;
},
{
smooth = 0;
x = 152;
y = 499;
},
{
segmentType = curve;
smooth = 1;
x = 178;
y = 500;
},
{
smooth = 0;
x = 195;
y = 500;
},
{
smooth = 0;
x = 212;
y = 503;
},
{
segmentType = curve;
smooth = 0;
x = 228;
y = 503;
},
{
smooth = 0;
x = 233;
y = 504;
},
{
smooth = 0;
x = 245;
y = 499;
},
{
segmentType = curve;
smooth = 1;
x = 243;
y = 503;
},
{
smooth = 0;
x = 241;
y = 507;
},
{
smooth = 0;
x = 239;
y = 511;
},
{
segmentType = curve;
smooth = 1;
x = 236;
y = 515;
},
{
smooth = 0;
x = 233;
y = 519;
},
{
smooth = 0;
x = 233;
y = 507;
},
{
segmentType = curve;
smooth = 1;
x = 230;
y = 503;
},
{
smooth = 0;
x = 225;
y = 493;
},
{
smooth = 0;
x = 220;
y = 482;
},
{
segmentType = curve;
smooth = 1;
x = 213;
y = 472;
},
{
smooth = 0;
x = 195;
y = 442;
},
{
smooth = 0;
x = 183;
y = 420;
},
{
segmentType = curve;
smooth = 0;
x = 165;
y = 387;
},
{
smooth = 0;
x = 123;
y = 305;
},
{
smooth = 0;
x = 85;
y = 215;
},
{
segmentType = curve;
smooth = 1;
x = 62;
y = 125;
},
{
smooth = 0;
x = 42;
y = 47;
},
{
smooth = 0;
x = 56;
y = -1;
},
{
segmentType = curve;
smooth = 1;
x = 136;
y = -11;
},
{
smooth = 0;
x = 155;
y = -13;
},
{
smooth = 0;
x = 177;
y = -18;
},
{
segmentType = curve;
smooth = 1;
x = 194;
y = -11;
},
{
smooth = 0;
x = 251;
y = 12;
},
{
smooth = 0;
x = 290;
y = 41;
},
{
segmentType = curve;
smooth = 1;
x = 328;
y = 90;
},
{
smooth = 0;
x = 374;
y = 148;
},
{
smooth = 0;
x = 407;
y = 214;
},
{
segmentType = curve;
smooth = 1;
x = 449;
y = 273;
},
{
smooth = 0;
x = 500;
y = 346;
},
{
smooth = 0;
x = 568;
y = 414;
},
{
segmentType = curve;
smooth = 0;
x = 599;
y = 497;
},
{
smooth = 0;
x = 602;
y = 513;
},
{
smooth = 0;
x = 583;
y = 516;
},
{
segmentType = curve;
smooth = 0;
x = 576;
y = 502;
},
{
smooth = 0;
x = 522;
y = 377;
},
{
smooth = 0;
x = 376;
y = 158;
},
{
segmentType = curve;
smooth = 1;
x = 390;
y = 34;
},
{
smooth = 0;
x = 397;
y = -31;
},
{
smooth = 0;
x = 495;
y = -14;
},
{
segmentType = curve;
smooth = 0;
x = 530;
y = -8;
},
{
smooth = 0;
x = 611;
y = 9;
},
{
smooth = 0;
x = 706;
y = 92;
},
{
segmentType = curve;
smooth = 0;
x = 731;
y = 169;
},
{
smooth = 0;
x = 734;
y = 185;
},
{
smooth = 0;
x = 715;
y = 188;
},
{
segmentType = curve;
smooth = 0;
x = 708;
y = 175;
},
{
smooth = 0;
x = 682;
y = 95;
},
{
smooth = 0;
x = 600;
y = 37;
},
{
segmentType = curve;
smooth = 1;
x = 521;
y = 13;
},
{
smooth = 0;
x = 482;
y = 1;
},
{
smooth = 0;
x = 434;
y = -3;
},
{
segmentType = curve;
smooth = 1;
x = 413;
y = 41;
},
{
smooth = 0;
x = 401;
y = 68;
},
{
smooth = 0;
x = 434;
y = 147;
},
{
segmentType = curve;
smooth = 1;
x = 442;
y = 168;
},
{
smooth = 0;
x = 488;
y = 282;
},
{
smooth = 0;
x = 557;
y = 384;
},
{
segmentType = curve;
smooth = 0;
x = 599;
y = 497;
},
{
segmentType = line;
smooth = 0;
x = 576;
y = 503;
},
{
smooth = 0;
x = 573;
y = 493;
},
{
smooth = 0;
x = 565;
y = 487;
},
{
segmentType = curve;
smooth = 1;
x = 561;
y = 477;
},
{
smooth = 0;
x = 530;
y = 406;
},
{
smooth = 0;
x = 475;
y = 349;
},
{
segmentType = curve;
smooth = 1;
x = 429;
y = 285;
},
{
smooth = 0;
x = 371;
y = 202;
},
{
smooth = 0;
x = 298;
y = 32;
},
{
segmentType = curve;
smooth = 0;
x = 188;
y = 10;
},
{
smooth = 0;
x = 169;
y = 7;
},
{
smooth = 0;
x = 140;
y = 12;
},
{
segmentType = curve;
smooth = 0;
x = 118;
y = 12;
},
{
smooth = 0;
x = 44;
y = 27;
},
{
smooth = 0;
x = 92;
y = 146;
},
{
segmentType = curve;
smooth = 1;
x = 104;
y = 181;
},
{
smooth = 0;
x = 128;
y = 249;
},
{
smooth = 0;
x = 156;
y = 315;
},
{
segmentType = curve;
smooth = 1;
x = 187;
y = 378;
},
{
smooth = 0;
x = 199;
y = 402;
},
{
smooth = 0;
x = 254;
y = 480;
},
{
segmentType = curve;
smooth = 1;
x = 259;
y = 509;
},
{
smooth = 0;
x = 261;
y = 517;
},
{
smooth = 0;
x = 258;
y = 521;
},
{
segmentType = curve;
smooth = 1;
x = 251;
y = 523;
},
{
smooth = 0;
x = 226;
y = 531;
},
{
smooth = 0;
x = 83;
y = 519;
},
{
segmentType = curve;
smooth = 0;
x = 65;
y = 513;
},
{
smooth = 0;
x = 53;
y = 505;
},
{
smooth = 0;
x = 59;
y = 491;
}
);
}
);
lib = {
};
name = u;
unicodes = (
);
width = 638;
};
};
};
width = 638;
}
);
unicode = 0075;
},
{
color = 0;
glyphname = v;
lastChange = "2020-03-15 11:43:11 +0000";
layers = (
{
layerId = master01;
paths = (
{
closed = 1;
nodes = (
"93 495 OFFCURVE",
"183 494 OFFCURVE",
"201 494 CURVE",
"192 463 OFFCURVE",
"171 429 OFFCURVE",
"157 399 CURVE SMOOTH",
"128 333 OFFCURVE",
"99 266 OFFCURVE",
"78 196 CURVE SMOOTH",
"50 106 OFFCURVE",
"33 22 OFFCURVE",
"132 -18 CURVE SMOOTH",
"205 -47 OFFCURVE",
"315 26 OFFCURVE",
"366 68 CURVE SMOOTH",
"464 147 OFFCURVE",
"516 267 OFFCURVE",
"544 385 CURVE SMOOTH",
"547 397 OFFCURVE",
"541 409 OFFCURVE",
"544 419 CURVE SMOOTH",
"551 450 OFFCURVE",
"554 482 OFFCURVE",
"545 513 CURVE",
"540 534 OFFCURVE",
"526 578 OFFCURVE",
"506 590 CURVE SMOOTH",
"477 608 OFFCURVE",
"425 597 OFFCURVE",
"432 550 CURVE",
"440 505 OFFCURVE",
"523 500 OFFCURVE",
"530 538 CURVE SMOOTH",
"533 554 OFFCURVE",
"514 557 OFFCURVE",
"507 544 CURVE",
"507 543 OFFCURVE",
"507 542 OFFCURVE",
"506 540 CURVE",
"500 536 OFFCURVE",
"488 536 OFFCURVE",
"481 536 CURVE SMOOTH",
"437 534 OFFCURVE",
"465 583 OFFCURVE",
"475 579 CURVE SMOOTH",
"484 575 OFFCURVE",
"486 572 OFFCURVE",
"494 570 CURVE",
"493 572 OFFCURVE",
"492 575 OFFCURVE",
"490 576 CURVE",
"488 579 OFFCURVE",
"492 571 OFFCURVE",
"493 568 CURVE SMOOTH",
"496 563 OFFCURVE",
"500 559 OFFCURVE",
"504 554 CURVE SMOOTH",
"505 553 OFFCURVE",
"505 550 OFFCURVE",
"506 550 CURVE",
"507 552 OFFCURVE",
"504 553 OFFCURVE",
"504 554 CURVE SMOOTH",
"504 559 OFFCURVE",
"508 547 OFFCURVE",
"509 542 CURVE SMOOTH",
"513 531 OFFCURVE",
"519 520 OFFCURVE",
"522 508 CURVE SMOOTH",
"535 459 OFFCURVE",
"521 399 OFFCURVE",
"508 352 CURVE SMOOTH",
"499 319 OFFCURVE",
"493 283 OFFCURVE",
"477 252 CURVE SMOOTH",
"414 132 OFFCURVE",
"306 0 OFFCURVE",
"158 0 CURVE SMOOTH",
"140 0 OFFCURVE",
"130 9 OFFCURVE",
"115 19 CURVE SMOOTH",
"77 45 OFFCURVE",
"75 79 OFFCURVE",
"84 125 CURVE SMOOTH",
"104 219 OFFCURVE",
"143 307 OFFCURVE",
"181 394 CURVE SMOOTH",
"204 446 LINE",
"248 540 OFFCURVE",
"211 513 OFFCURVE",
"131 512 CURVE SMOOTH",
"101 511 OFFCURVE",
"73 511 OFFCURVE",
"45 500 CURVE",
"33 492 OFFCURVE",
"39 478 OFFCURVE",
"53 479 CURVE"
);
}
);
userData = {
com.typemytype.robofont.mark = (
1,
0.5675,
0.4681,
1
);
};
width = 593;
}
);
unicode = 0076;
},
{
color = 0;
glyphname = w;
lastChange = "2020-03-15 11:43:11 +0000";
layers = (
{
layerId = master01;
paths = (
{
closed = 1;
nodes = (
"96 487 OFFCURVE",
"129 489 OFFCURVE",
"162 490 CURVE SMOOTH",
"178 491 OFFCURVE",
"210 488 OFFCURVE",
"227 493 CURVE SMOOTH",
"230 494 OFFCURVE",
"237 493 OFFCURVE",
"236 495 CURVE SMOOTH",
"235 499 OFFCURVE",
"230 496 OFFCURVE",
"226 496 CURVE SMOOTH",
"225 496 OFFCURVE",
"231 494 OFFCURVE",
"230 495 CURVE",
"229 500 OFFCURVE",
"227 505 OFFCURVE",
"223 508 CURVE SMOOTH",
"221 509 OFFCURVE",
"223 503 OFFCURVE",
"222 500 CURVE SMOOTH",
"219 489 OFFCURVE",
"213 479 OFFCURVE",
"208 468 CURVE SMOOTH",
"193 436 OFFCURVE",
"177 405 OFFCURVE",
"161 373 CURVE SMOOTH",
"133 314 OFFCURVE",
"22 99 OFFCURVE",
"66 32 CURVE",
"118 -44 OFFCURVE",
"201 30 OFFCURVE",
"248 71 CURVE SMOOTH",
"319 133 OFFCURVE",
"407 241 OFFCURVE",
"438 330 CURVE SMOOTH",
"453 371 OFFCURVE",
"466 415 OFFCURVE",
"479 456 CURVE SMOOTH",
"484 470 OFFCURVE",
"483 485 OFFCURVE",
"488 498 CURVE",
"465 504 LINE",
"436 398 OFFCURVE",
"381 297 OFFCURVE",
"350 191 CURVE SMOOTH",
"338 151 OFFCURVE",
"324 108 OFFCURVE",
"332 66 CURVE SMOOTH",
"345 1 OFFCURVE",
"434 -19 OFFCURVE",
"484 13 CURVE SMOOTH",
"543 51 OFFCURVE",
"589 99 OFFCURVE",
"625 158 CURVE SMOOTH",
"639 181 OFFCURVE",
"654 212 OFFCURVE",
"669 233 CURVE SMOOTH",
"692 266 OFFCURVE",
"724 289 OFFCURVE",
"742 326 CURVE",
"756 351 OFFCURVE",
"784 463 OFFCURVE",
"770 493 CURVE",
"761 516 OFFCURVE",
"739 574 OFFCURVE",
"701 558 CURVE SMOOTH",
"640 532 OFFCURVE",
"705 456 OFFCURVE",
"748 510 CURVE SMOOTH",
"780 550 OFFCURVE",
"711 575 OFFCURVE",
"703 530 CURVE",
"703 516 OFFCURVE",
"719 514 OFFCURVE",
"726 524 CURVE",
"728 531 OFFCURVE",
"727 530 OFFCURVE",
"732 533 CURVE",
"732 543 OFFCURVE",
"731 527 OFFCURVE",
"729 523 CURVE",
"693 512 OFFCURVE",
"687 529 OFFCURVE",
"710 537 CURVE SMOOTH",
"718 540 OFFCURVE",
"728 527 OFFCURVE",
"730 524 CURVE SMOOTH",
"755 484 OFFCURVE",
"749 442 OFFCURVE",
"741 397 CURVE SMOOTH",
"739 385 OFFCURVE",
"733 364 OFFCURVE",
"728 352 CURVE SMOOTH",
"711 307 OFFCURVE",
"675 282 OFFCURVE",
"647 243 CURVE SMOOTH",
"588 160 OFFCURVE",
"530 5 OFFCURVE",
"401 23 CURVE SMOOTH",
"334 33 OFFCURVE",
"358 134 OFFCURVE",
"373 185 CURVE SMOOTH",
"405 292 OFFCURVE",
"449 394 OFFCURVE",
"488 497 CURVE",
"491 513 OFFCURVE",
"472 516 OFFCURVE",
"465 503 CURVE SMOOTH",
"459 490 OFFCURVE",
"460 476 OFFCURVE",
"456 462 CURVE SMOOTH",
"420 352 LINE",
"395 271 OFFCURVE",
"319 165 OFFCURVE",
"256 108 CURVE SMOOTH",
"230 85 OFFCURVE",
"119 -24 OFFCURVE",
"88 42 CURVE",
"75 73 OFFCURVE",
"87 123 OFFCURVE",
"94 150 CURVE SMOOTH",
"114 226 OFFCURVE",
"151 297 OFFCURVE",
"185 367 CURVE SMOOTH",
"203 405 OFFCURVE",
"240 457 OFFCURVE",
"246 501 CURVE",
"248 509 OFFCURVE",
"245 513 OFFCURVE",
"238 515 CURVE SMOOTH",
"231 518 OFFCURVE",
"227 516 OFFCURVE",
"220 514 CURVE",
"168 514 OFFCURVE",
"115 509 OFFCURVE",
"63 509 CURVE",
"49 506 OFFCURVE",
"49 490 OFFCURVE",
"63 487 CURVE"
);
}
);
userData = {
com.typemytype.robofont.mark = (
1,
0.5675,
0.4681,
1
);
};
width = 808;
}
);
unicode = 0077;
},
{
color = 0;
glyphname = x;
lastChange = "2020-03-15 11:43:11 +0000";
layers = (
{
layerId = master01;
paths = (
{
closed = 1;
nodes = (
"180 495 OFFCURVE",
"355 505 OFFCURVE",
"399 462 CURVE SMOOTH",
"441 421 OFFCURVE",
"398 315 OFFCURVE",
"383 269 CURVE SMOOTH",
"353 178 OFFCURVE",
"310 61 OFFCURVE",
"217 16 CURVE SMOOTH",
"162 -11 OFFCURVE",
"77 34 OFFCURVE",
"61 90 CURVE SMOOTH",
"54 115 OFFCURVE",
"64 124 OFFCURVE",
"73 146 CURVE",
"76 162 OFFCURVE",
"57 165 OFFCURVE",
"50 152 CURVE SMOOTH",
"35 120 LINE",
"13 63 OFFCURVE",
"111 -6 OFFCURVE",
"155 -11 CURVE",
"194 -14 OFFCURVE",
"188 -15 OFFCURVE",
"225 -5 CURVE SMOOTH",
"301 16 OFFCURVE",
"362 146 OFFCURVE",
"387 211 CURVE SMOOTH",
"412 273 OFFCURVE",
"473 415 OFFCURVE",
"417 476 CURVE",
"372 527 OFFCURVE",
"169 528 OFFCURVE",
"139 447 CURVE",
"139 433 OFFCURVE",
"155 431 OFFCURVE",
"162 441 CURVE"
);
},
{
closed = 1;
nodes = (
"695 535 OFFCURVE",
"588 516 OFFCURVE",
"518 473 CURVE SMOOTH",
"436 424 OFFCURVE",
"435 384 OFFCURVE",
"397 301 CURVE SMOOTH",
"358 214 OFFCURVE",
"311 137 OFFCURVE",
"336 39 CURVE SMOOTH",
"350 -15 OFFCURVE",
"421 -14 OFFCURVE",
"462 -14 CURVE SMOOTH",
"512 -13 OFFCURVE",
"640 38 OFFCURVE",
"657 95 CURVE",
"662 109 OFFCURVE",
"665 123 OFFCURVE",
"669 137 CURVE",
"672 153 OFFCURVE",
"653 156 OFFCURVE",
"646 143 CURVE",
"635 104 OFFCURVE",
"639 98 OFFCURVE",
"607 69 CURVE SMOOTH",
"559 27 OFFCURVE",
"399 -37 OFFCURVE",
"359 45 CURVE SMOOTH",
"332 102 OFFCURVE",
"363 173 OFFCURVE",
"386 225 CURVE",
"403 260 OFFCURVE",
"421 294 OFFCURVE",
"435 330 CURVE SMOOTH",
"458 388 OFFCURVE",
"475 421 OFFCURVE",
"530 454 CURVE SMOOTH",
"586 489 OFFCURVE",
"684 514 OFFCURVE",
"730 451 CURVE",
"740 440 OFFCURVE",
"760 449 OFFCURVE",
"750 462 CURVE SMOOTH"
);
}
);
userData = {
com.typemytype.robofont.mark = (
1,
0.5675,
0.4681,
1
);
};
width = 749;
}
);
unicode = 0078;
},
{
color = 0;
glyphname = y;
lastChange = "2020-03-15 11:43:11 +0000";
layers = (
{
layerId = master01;
paths = (
{
closed = 1;
nodes = (
"74 500 LINE",
"60 485 LINE",
"102 489 OFFCURVE",
"139 496 OFFCURVE",
"182 495 CURVE SMOOTH",
"216 495 LINE SMOOTH",
"219 495 OFFCURVE",
"227 491 OFFCURVE",
"226 494 CURVE SMOOTH",
"225 500 OFFCURVE",
"225 513 OFFCURVE",
"220 510 CURVE SMOOTH",
"213 506 OFFCURVE",
"176 414 OFFCURVE",
"168 394 CURVE SMOOTH",
"157 367 OFFCURVE",
"151 339 OFFCURVE",
"140 312 CURVE SMOOTH",
"133 294 OFFCURVE",
"121 278 OFFCURVE",
"111 262 CURVE SMOOTH",
"86 220 OFFCURVE",
"73 161 OFFCURVE",
"65 113 CURVE SMOOTH",
"58 72 OFFCURVE",
"54 15 OFFCURVE",
"100 -5 CURVE SMOOTH",
"153 -28 OFFCURVE",
"212 12 OFFCURVE",
"247 47 CURVE SMOOTH",
"284 84 OFFCURVE",
"321 123 OFFCURVE",
"352 164 CURVE SMOOTH",
"383 206 OFFCURVE",
"404 247 OFFCURVE",
"439 286 CURVE SMOOTH",
"484 334 LINE SMOOTH",
"489 340 OFFCURVE",
"630 493 OFFCURVE",
"577 506 CURVE SMOOTH",
"571 507 OFFCURVE",
"568 506 OFFCURVE",
"563 501 CURVE",
"535 460 OFFCURVE",
"531 407 OFFCURVE",
"513 361 CURVE SMOOTH",
"499 324 OFFCURVE",
"474 291 OFFCURVE",
"455 257 CURVE SMOOTH",
"432 217 OFFCURVE",
"414 173 OFFCURVE",
"396 130 CURVE SMOOTH",
"379 87 OFFCURVE",
"368 43 OFFCURVE",
"353 0 CURVE SMOOTH",
"346 -20 OFFCURVE",
"331 -36 OFFCURVE",
"322 -55 CURVE SMOOTH",
"288 -129 OFFCURVE",
"268 -210 OFFCURVE",
"208 -270 CURVE SMOOTH",
"153 -324 OFFCURVE",
"73 -340 OFFCURVE",
"7 -301 CURVE SMOOTH",
"-19 -285 OFFCURVE",
"-47 -260 OFFCURVE",
"-49 -228 CURVE SMOOTH",
"-50 -217 OFFCURVE",
"-45 -170 OFFCURVE",
"-28 -182 CURVE",
"-28 -185 OFFCURVE",
"-40 -188 OFFCURVE",
"-36 -190 CURVE",
"-33 -190 OFFCURVE",
"-31 -192 OFFCURVE",
"-28 -192 CURVE SMOOTH",
"-26 -192 OFFCURVE",
"-33 -188 OFFCURVE",
"-33 -190 CURVE SMOOTH",
"-32 -192 OFFCURVE",
"-30 -197 OFFCURVE",
"-27 -196 CURVE SMOOTH",
"-25 -195 OFFCURVE",
"-28 -191 OFFCURVE",
"-29 -189 CURVE SMOOTH",
"-36 -178 OFFCURVE",
"-52 -180 OFFCURVE",
"-52 -194 CURVE",
"-42 -238 OFFCURVE",
"18 -186 OFFCURVE",
"-11 -166 CURVE SMOOTH",
"-21 -159 OFFCURVE",
"-31 -152 OFFCURVE",
"-44 -158 CURVE SMOOTH",
"-58 -164 OFFCURVE",
"-67 -184 OFFCURVE",
"-70 -198 CURVE SMOOTH",
"-88 -272 OFFCURVE",
"-4 -343 OFFCURVE",
"66 -344 CURVE SMOOTH",
"234 -347 OFFCURVE",
"289 -205 OFFCURVE",
"341 -70 CURVE SMOOTH",
"349 -50 OFFCURVE",
"363 -33 OFFCURVE",
"372 -15 CURVE",
"389 14 OFFCURVE",
"393 51 OFFCURVE",
"404 82 CURVE SMOOTH",
"424 139 OFFCURVE",
"449 195 OFFCURVE",
"477 248 CURVE SMOOTH",
"500 292 OFFCURVE",
"529 330 OFFCURVE",
"544 376 CURVE SMOOTH",
"553 405 OFFCURVE",
"559 434 OFFCURVE",
"570 461 CURVE SMOOTH",
"579 481 LINE SMOOTH",
"580 485 OFFCURVE",
"587 489 OFFCURVE",
"584 490 CURVE SMOOTH",
"580 491 OFFCURVE",
"576 488 OFFCURVE",
"572 487 CURVE",
"570 489 OFFCURVE",
"568 492 OFFCURVE",
"566 493 CURVE SMOOTH",
"563 496 OFFCURVE",
"566 485 OFFCURVE",
"563 481 CURVE SMOOTH",
"557 469 OFFCURVE",
"549 459 OFFCURVE",
"541 448 CURVE",
"519 412 OFFCURVE",
"495 380 OFFCURVE",
"466 348 CURVE SMOOTH",
"437 317 OFFCURVE",
"403 284 OFFCURVE",
"377 249 CURVE SMOOTH",
"365 232 OFFCURVE",
"358 212 OFFCURVE",
"345 194 CURVE SMOOTH",
"320 158 OFFCURVE",
"291 125 OFFCURVE",
"260 93 CURVE SMOOTH",
"225 56 OFFCURVE",
"182 7 OFFCURVE",
"125 12 CURVE SMOOTH",
"64 18 OFFCURVE",
"87 107 OFFCURVE",
"96 144 CURVE SMOOTH",
"105 180 OFFCURVE",
"114 222 OFFCURVE",
"133 253 CURVE SMOOTH",
"143 271 OFFCURVE",
"156 288 OFFCURVE",
"163 306 CURVE SMOOTH",
"190 372 OFFCURVE",
"212 436 OFFCURVE",
"242 501 CURVE",
"243 507 OFFCURVE",
"242 510 OFFCURVE",
"237 513 CURVE SMOOTH",
"210 530 OFFCURVE",
"99 512 OFFCURVE",
"61 507 CURVE",
"54 505 OFFCURVE",
"50 501 OFFCURVE",
"50 494 CURVE",
"51 493 OFFCURVE",
"51 492 OFFCURVE",
"51 491 CURVE SMOOTH",
"58 478 OFFCURVE",
"77 481 OFFCURVE",
"74 496 CURVE"
);
}
);
userData = {
com.typemytype.robofont.mark = (
1,
0.5675,
0.4681,
1
);
};
width = 601;
}
);
unicode = 0079;
},
{
color = 0;
glyphname = z;
lastChange = "2020-03-15 11:43:11 +0000";
layers = (
{
layerId = master01;
paths = (
{
closed = 1;
nodes = (
"102 453 OFFCURVE",
"111 459 OFFCURVE",
"118 465 CURVE",
"129 472 OFFCURVE",
"139 481 OFFCURVE",
"150 486 CURVE SMOOTH",
"212 515 OFFCURVE",
"321 428 OFFCURVE",
"401 425 CURVE SMOOTH",
"436 424 OFFCURVE",
"517 469 OFFCURVE",
"544 490 CURVE SMOOTH",
"555 498 OFFCURVE",
"566 508 OFFCURVE",
"575 517 CURVE SMOOTH",
"576 519 OFFCURVE",
"569 513 OFFCURVE",
"570 514 CURVE SMOOTH",
"582 526 OFFCURVE",
"566 516 OFFCURVE",
"570 515 CURVE",
"568 522 OFFCURVE",
"566 528 OFFCURVE",
"563 534 CURVE",
"554 525 OFFCURVE",
"549 512 OFFCURVE",
"541 501 CURVE SMOOTH",
"523 477 OFFCURVE",
"503 456 OFFCURVE",
"480 435 CURVE SMOOTH",
"416 377 OFFCURVE",
"343 329 OFFCURVE",
"276 273 CURVE SMOOTH",
"176 189 OFFCURVE",
"80 101 OFFCURVE",
"-13 9 CURVE",
"11 1 LINE",
"48 68 OFFCURVE",
"136 110 OFFCURVE",
"207 75 CURVE SMOOTH",
"263 48 OFFCURVE",
"301 -1 OFFCURVE",
"359 -26 CURVE",
"418 -50 OFFCURVE",
"494 -23 OFFCURVE",
"537 19 CURVE SMOOTH",
"552 34 OFFCURVE",
"563 55 OFFCURVE",
"576 68 CURVE",
"586 82 OFFCURVE",
"566 91 OFFCURVE",
"556 80 CURVE",
"506 17 OFFCURVE",
"459 -32 OFFCURVE",
"366 -5 CURVE SMOOTH",
"309 12 OFFCURVE",
"269 64 OFFCURVE",
"219 94 CURVE SMOOTH",
"140 142 OFFCURVE",
"31 85 OFFCURVE",
"-11 11 CURVE",
"-17 -3 OFFCURVE",
"0 -8 OFFCURVE",
"9 -1 CURVE",
"102 90 OFFCURVE",
"198 178 OFFCURVE",
"297 261 CURVE SMOOTH",
"362 316 OFFCURVE",
"434 363 OFFCURVE",
"497 421 CURVE SMOOTH",
"518 440 OFFCURVE",
"537 459 OFFCURVE",
"554 480 CURVE SMOOTH",
"564 492 OFFCURVE",
"571 510 OFFCURVE",
"581 520 CURVE",
"586 528 OFFCURVE",
"582 534 OFFCURVE",
"574 537 CURVE",
"555 541 OFFCURVE",
"537 512 OFFCURVE",
"523 502 CURVE",
"470 479 OFFCURVE",
"445 438 OFFCURVE",
"377 448 CURVE SMOOTH",
"271 465 OFFCURVE",
"217 557 OFFCURVE",
"108 485 CURVE SMOOTH",
"95 476 OFFCURVE",
"80 465 OFFCURVE",
"76 449 CURVE",
"76 435 OFFCURVE",
"92 433 OFFCURVE",
"99 443 CURVE"
);
}
);
userData = {
com.typemytype.robofont.mark = (
1,
0.5675,
0.4681,
1
);
};
width = 603;
}
);
unicode = 007A;
},
{
color = 0;
glyphname = uni00A0;
lastChange = "2020-03-15 11:43:11 +0000";
layers = (
{
layerId = master01;
paths = (
{
closed = 1;
nodes = (
"228 634 OFFCURVE",
"224 641 OFFCURVE",
"222 637 CURVE SMOOTH",
"221 633 OFFCURVE",
"224 626 OFFCURVE",
"228 623 CURVE SMOOTH",
"231 621 OFFCURVE",
"230 629 OFFCURVE",
"231 631 CURVE",
"242 641 LINE",
"257 651 OFFCURVE",
"290 672 OFFCURVE",
"307 654 CURVE",
"361 601 OFFCURVE",
"230 506 OFFCURVE",
"205 500 CURVE",
"268 490 OFFCURVE",
"285 439 OFFCURVE",
"358 468 CURVE",
"371 474 OFFCURVE",
"380 487 OFFCURVE",
"380 501 CURVE",
"378 516 OFFCURVE",
"356 514 OFFCURVE",
"356 499 CURVE SMOOTH",
"356 501 OFFCURVE",
"355 495 OFFCURVE",
"354 493 CURVE SMOOTH",
"350 489 LINE",
"280 460 OFFCURVE",
"238 543 OFFCURVE",
"180 518 CURVE",
"176 515 OFFCURVE",
"173 512 OFFCURVE",
"173 506 CURVE SMOOTH",
"173 471 OFFCURVE",
"217 478 OFFCURVE",
"237 489 CURVE SMOOTH",
"279 512 OFFCURVE",
"320 550 OFFCURVE",
"335 596 CURVE SMOOTH",
"371 702 OFFCURVE",
"240 705 OFFCURVE",
"205 630 CURVE",
"205 624 OFFCURVE",
"207 621 OFFCURVE",
"212 618 CURVE SMOOTH",
"220 614 LINE",
"233 611 OFFCURVE",
"243 623 OFFCURVE",
"231 633 CURVE"
);
},
{
closed = 1;
nodes = (
"464 517 OFFCURVE",
"514 521 OFFCURVE",
"564 521 CURVE",
"580 523 OFFCURVE",
"580 541 OFFCURVE",
"564 543 CURVE",
"514 543 OFFCURVE",
"464 539 OFFCURVE",
"414 539 CURVE",
"400 536 OFFCURVE",
"400 520 OFFCURVE",
"414 517 CURVE"
);
},
{
closed = 1;
nodes = (
"453 580 OFFCURVE",
"501 606 OFFCURVE",
"543 641 CURVE SMOOTH",
"581 672 OFFCURVE",
"560 643 OFFCURVE",
"550 664 CURVE",
"550 666 OFFCURVE",
"542 658 OFFCURVE",
"537 649 CURVE SMOOTH",
"511 596 LINE",
"495 560 OFFCURVE",
"467 482 OFFCURVE",
"455 465 CURVE",
"448 450 OFFCURVE",
"470 445 OFFCURVE",
"477 456 CURVE SMOOTH",
"504 496 OFFCURVE",
"515 549 OFFCURVE",
"535 591 CURVE SMOOTH",
"544 610 OFFCURVE",
"570 648 OFFCURVE",
"573 661 CURVE SMOOTH",
"574 667 OFFCURVE",
"573 670 OFFCURVE",
"568 673 CURVE SMOOTH",
"567 674 OFFCURVE",
"566 675 OFFCURVE",
"565 675 CURVE SMOOTH",
"561 677 OFFCURVE",
"558 678 OFFCURVE",
"553 676 CURVE SMOOTH",
"506 653 OFFCURVE",
"429 584 OFFCURVE",
"402 540 CURVE",
"395 525 OFFCURVE",
"417 520 OFFCURVE",
"424 531 CURVE SMOOTH"
);
},
{
closed = 1;
nodes = (
"734 644 OFFCURVE",
"682 586 OFFCURVE",
"638 518 CURVE SMOOTH",
"625 498 OFFCURVE",
"605 445 OFFCURVE",
"592 438 CURVE SMOOTH",
"578 429 OFFCURVE",
"589 413 OFFCURVE",
"603 419 CURVE SMOOTH",
"626 430 OFFCURVE",
"646 488 OFFCURVE",
"659 508 CURVE SMOOTH",
"702 576 OFFCURVE",
"756 635 OFFCURVE",
"794 706 CURVE",
"796 720 OFFCURVE",
"781 725 OFFCURVE",
"772 715 CURVE"
);
},
{
closed = 1;
nodes = (
"961 659 OFFCURVE",
"955 665 OFFCURVE",
"947 667 CURVE SMOOTH",
"879 685 OFFCURVE",
"727 525 OFFCURVE",
"832 480 CURVE SMOOTH",
"905 449 OFFCURVE",
"1029 567 OFFCURVE",
"1001 639 CURVE SMOOTH",
"997 650 OFFCURVE",
"984 654 OFFCURVE",
"975 661 CURVE",
"963 666 OFFCURVE",
"952 655 OFFCURVE",
"961 644 CURVE",
"967 639 OFFCURVE",
"974 637 OFFCURVE",
"978 630 CURVE SMOOTH",
"1003 586 OFFCURVE",
"892 473 OFFCURVE",
"843 500 CURVE SMOOTH",
"771 539 OFFCURVE",
"901 670 OFFCURVE",
"956 636 CURVE",
"969 633 OFFCURVE",
"979 645 OFFCURVE",
"967 655 CURVE SMOOTH"
);
},
{
closed = 1;
nodes = (
"406 266 OFFCURVE",
"343 257 OFFCURVE",
"324 230 CURVE SMOOTH",
"267 145 OFFCURVE",
"350 109 OFFCURVE",
"408 191 CURVE",
"387 195 LINE",
"387 158 OFFCURVE",
"355 75 OFFCURVE",
"326 50 CURVE SMOOTH",
"280 10 OFFCURVE",
"236 -9 OFFCURVE",
"225 63 CURVE",
"218 74 OFFCURVE",
"202 72 OFFCURVE",
"202 58 CURVE",
"213 -18 OFFCURVE",
"261 -20 OFFCURVE",
"320 18 CURVE SMOOTH",
"374 52 OFFCURVE",
"384 97 OFFCURVE",
"401 154 CURVE SMOOTH",
"405 168 OFFCURVE",
"414 185 OFFCURVE",
"410 200 CURVE",
"406 208 OFFCURVE",
"399 210 OFFCURVE",
"391 205 CURVE",
"384 197 OFFCURVE",
"379 186 OFFCURVE",
"371 178 CURVE SMOOTH",
"364 172 OFFCURVE",
"359 169 OFFCURVE",
"349 167 CURVE SMOOTH",
"309 159 OFFCURVE",
"337 234 OFFCURVE",
"370 230 CURVE",
"378 230 OFFCURVE",
"379 230 OFFCURVE",
"379 222 CURVE SMOOTH",
"379 207 OFFCURVE",
"401 205 OFFCURVE",
"403 220 CURVE"
);
},
{
closed = 1;
nodes = (
"519 292 OFFCURVE",
"434 184 OFFCURVE",
"482 140 CURVE SMOOTH",
"552 77 OFFCURVE",
"686 174 OFFCURVE",
"592 244 CURVE SMOOTH",
"580 253 OFFCURVE",
"563 250 OFFCURVE",
"548 252 CURVE SMOOTH",
"532 255 OFFCURVE",
"528 235 OFFCURVE",
"544 231 CURVE SMOOTH",
"556 229 OFFCURVE",
"569 229 OFFCURVE",
"580 225 CURVE SMOOTH",
"637 205 OFFCURVE",
"570 110 OFFCURVE",
"498 156 CURVE SMOOTH",
"472 173 OFFCURVE",
"528 257 OFFCURVE",
"555 234 CURVE",
"568 226 OFFCURVE",
"582 240 OFFCURVE",
"569 251 CURVE SMOOTH"
);
},
{
closed = 1;
nodes = (
"786 295 OFFCURVE",
"785 297 OFFCURVE",
"784 300 CURVE SMOOTH",
"781 305 OFFCURVE",
"777 307 OFFCURVE",
"771 307 CURVE SMOOTH",
"745 309 OFFCURVE",
"708 264 OFFCURVE",
"733 241 CURVE",
"759 219 OFFCURVE",
"827 225 OFFCURVE",
"809 270 CURVE SMOOTH",
"804 284 OFFCURVE",
"791 293 OFFCURVE",
"781 303 CURVE SMOOTH",
"770 313 OFFCURVE",
"753 302 OFFCURVE",
"764 289 CURVE SMOOTH",
"776 276 OFFCURVE",
"801 247 OFFCURVE",
"765 247 CURVE",
"742 250 OFFCURVE",
"753 274 OFFCURVE",
"764 284 CURVE SMOOTH",
"766 286 OFFCURVE",
"773 283 OFFCURVE",
"772 285 CURVE SMOOTH",
"769 290 OFFCURVE",
"766 295 OFFCURVE",
"760 295 CURVE",
"758 296 OFFCURVE",
"762 290 OFFCURVE",
"763 287 CURVE SMOOTH",
"770 274 OFFCURVE",
"789 277 OFFCURVE",
"786 292 CURVE SMOOTH"
);
}
);
userData = {
com.typemytype.robofont.mark = (
1,
0.5675,
0.4681,
1
);
};
width = 999;
}
);
unicode = 00A0;
},
{
color = 0;
glyphname = iacute;
lastChange = "2020-03-15 11:43:11 +0000";
layers = (
{
layerId = master01;
paths = (
{
closed = 1;
nodes = (
"85 501 OFFCURVE",
"153 490 OFFCURVE",
"169 489 CURVE",
"195 489 OFFCURVE",
"221 488 OFFCURVE",
"247 489 CURVE",
"264 491 OFFCURVE",
"287 501 OFFCURVE",
"303 498 CURVE",
"292 511 LINE",
"286 483 OFFCURVE",
"260 461 OFFCURVE",
"248 435 CURVE SMOOTH",
"237 412 OFFCURVE",
"233 387 OFFCURVE",
"223 363 CURVE SMOOTH",
"201 310 OFFCURVE",
"165 261 OFFCURVE",
"136 211 CURVE SMOOTH",
"118 178 OFFCURVE",
"86 118 OFFCURVE",
"95 77 CURVE SMOOTH",
"129 -74 OFFCURVE",
"292 -5 OFFCURVE",
"381 56 CURVE SMOOTH",
"414 79 OFFCURVE",
"437 113 OFFCURVE",
"465 141 CURVE SMOOTH",
"489 164 OFFCURVE",
"524 185 OFFCURVE",
"533 218 CURVE",
"536 234 OFFCURVE",
"517 237 OFFCURVE",
"510 224 CURVE",
"507 210 OFFCURVE",
"396 93 OFFCURVE",
"368 74 CURVE SMOOTH",
"336 52 OFFCURVE",
"298 36 OFFCURVE",
"261 22 CURVE SMOOTH",
"216 6 OFFCURVE",
"154 -7 OFFCURVE",
"127 47 CURVE",
"103 98 OFFCURVE",
"135 159 OFFCURVE",
"158 202 CURVE SMOOTH",
"181 244 OFFCURVE",
"208 283 OFFCURVE",
"230 324 CURVE SMOOTH",
"249 358 OFFCURVE",
"256 395 OFFCURVE",
"271 430 CURVE SMOOTH",
"283 456 OFFCURVE",
"309 477 OFFCURVE",
"315 505 CURVE SMOOTH",
"317 513 OFFCURVE",
"314 517 OFFCURVE",
"307 519 CURVE SMOOTH",
"281 525 OFFCURVE",
"248 511 OFFCURVE",
"222 511 CURVE SMOOTH",
"191 511 OFFCURVE",
"80 525 OFFCURVE",
"53 508 CURVE SMOOTH",
"39 499 OFFCURVE",
"50 483 OFFCURVE",
"64 489 CURVE"
);
},
{
closed = 1;
nodes = (
"329 634 OFFCURVE",
"347 641 OFFCURVE",
"361 650 CURVE SMOOTH",
"378 662 OFFCURVE",
"392 677 OFFCURVE",
"409 688 CURVE SMOOTH",
"443 711 OFFCURVE",
"479 726 OFFCURVE",
"505 757 CURVE",
"514 770 OFFCURVE",
"498 779 OFFCURVE",
"488 772 CURVE",
"446 722 OFFCURVE",
"327 671 OFFCURVE",
"297 632 CURVE",
"291 618 OFFCURVE",
"308 613 OFFCURVE",
"317 620 CURVE"
);
}
);
userData = {
com.typemytype.robofont.mark = (
1,
0.5675,
0.4681,
1
);
};
width = 426;
}
);
unicode = 00ED;
},
{
color = 0;
glyphname = dotlessi;
lastChange = "2020-03-15 11:43:11 +0000";
layers = (
{
layerId = master01;
paths = (
{
closed = 1;
nodes = (
"85 501 OFFCURVE",
"153 490 OFFCURVE",
"169 489 CURVE",
"195 489 OFFCURVE",
"221 488 OFFCURVE",
"247 489 CURVE",
"264 491 OFFCURVE",
"287 501 OFFCURVE",
"303 498 CURVE",
"292 511 LINE",
"286 483 OFFCURVE",
"260 461 OFFCURVE",
"248 435 CURVE SMOOTH",
"237 412 OFFCURVE",
"233 387 OFFCURVE",
"223 363 CURVE SMOOTH",
"201 310 OFFCURVE",
"165 261 OFFCURVE",
"136 211 CURVE SMOOTH",
"118 178 OFFCURVE",
"86 118 OFFCURVE",
"95 77 CURVE SMOOTH",
"129 -74 OFFCURVE",
"292 -5 OFFCURVE",
"381 56 CURVE SMOOTH",
"414 79 OFFCURVE",
"437 113 OFFCURVE",
"465 141 CURVE SMOOTH",
"489 164 OFFCURVE",
"524 185 OFFCURVE",
"533 218 CURVE",
"536 234 OFFCURVE",
"517 237 OFFCURVE",
"510 224 CURVE",
"507 210 OFFCURVE",
"396 93 OFFCURVE",
"368 74 CURVE SMOOTH",
"336 52 OFFCURVE",
"298 36 OFFCURVE",
"261 22 CURVE SMOOTH",
"216 6 OFFCURVE",
"154 -7 OFFCURVE",
"127 47 CURVE",
"103 98 OFFCURVE",
"135 159 OFFCURVE",
"158 202 CURVE SMOOTH",
"181 244 OFFCURVE",
"208 283 OFFCURVE",
"230 324 CURVE SMOOTH",
"249 358 OFFCURVE",
"256 395 OFFCURVE",
"271 430 CURVE SMOOTH",
"283 456 OFFCURVE",
"309 477 OFFCURVE",
"315 505 CURVE SMOOTH",
"317 513 OFFCURVE",
"314 517 OFFCURVE",
"307 519 CURVE SMOOTH",
"281 525 OFFCURVE",
"248 511 OFFCURVE",
"222 511 CURVE SMOOTH",
"191 511 OFFCURVE",
"80 525 OFFCURVE",
"53 508 CURVE SMOOTH",
"39 499 OFFCURVE",
"50 483 OFFCURVE",
"64 489 CURVE"
);
}
);
userData = {
com.typemytype.robofont.mark = (
1,
0.5675,
0.4681,
1
);
};
width = 426;
}
);
unicode = 0131;
},
{
color = 0;
glyphname = emdash;
lastChange = "2020-03-15 11:43:11 +0000";
layers = (
{
layerId = master01;
paths = (
{
closed = 1;
nodes = (
"96 304 OFFCURVE",
"118 297 OFFCURVE",
"141 297 CURVE SMOOTH",
"171 297 OFFCURVE",
"201 302 OFFCURVE",
"230 303 CURVE",
"333 309 OFFCURVE",
"439 317 OFFCURVE",
"542 310 CURVE",
"585 308 OFFCURVE",
"622 298 OFFCURVE",
"667 298 CURVE",
"683 300 OFFCURVE",
"683 318 OFFCURVE",
"667 320 CURVE",
"639 320 OFFCURVE",
"612 320 OFFCURVE",
"585 323 CURVE SMOOTH",
"571 325 OFFCURVE",
"557 332 OFFCURVE",
"542 332 CURVE",
"438 337 OFFCURVE",
"334 331 OFFCURVE",
"230 325 CURVE",
"201 324 OFFCURVE",
"171 319 OFFCURVE",
"141 319 CURVE SMOOTH",
"115 319 OFFCURVE",
"92 326 OFFCURVE",
"66 317 CURVE",
"54 309 OFFCURVE",
"60 295 OFFCURVE",
"74 296 CURVE"
);
}
);
userData = {
com.typemytype.robofont.mark = (
1,
0.5675,
0.4681,
1
);
};
width = 685;
}
);
unicode = 2014;
},
{
color = 0;
glyphname = quoteleft;
lastChange = "2020-03-15 11:43:11 +0000";
layers = (
{
layerId = master01;
paths = (
{
closed = 1;
nodes = (
"293 545 OFFCURVE",
"289 543 OFFCURVE",
"288 541 CURVE",
"288 538 OFFCURVE",
"293 543 OFFCURVE",
"296 544 CURVE SMOOTH",
"300 545 OFFCURVE",
"325 551 OFFCURVE",
"323 539 CURVE SMOOTH",
"317 512 OFFCURVE",
"279 516 OFFCURVE",
"280 559 CURVE SMOOTH",
"281 620 OFFCURVE",
"350 670 OFFCURVE",
"394 702 CURVE SMOOTH",
"413 716 OFFCURVE",
"429 725 OFFCURVE",
"451 734 CURVE SMOOTH",
"458 737 OFFCURVE",
"482 740 OFFCURVE",
"479 741 CURVE",
"477 744 OFFCURVE",
"468 744 OFFCURVE",
"470 742 CURVE SMOOTH",
"483 734 OFFCURVE",
"497 748 OFFCURVE",
"484 759 CURVE SMOOTH",
"465 774 OFFCURVE",
"416 745 OFFCURVE",
"401 734 CURVE SMOOTH",
"332 686 OFFCURVE",
"241 622 OFFCURVE",
"261 527 CURVE SMOOTH",
"269 487 OFFCURVE",
"345 498 OFFCURVE",
"347 537 CURVE SMOOTH",
"349 577 OFFCURVE",
"283 578 OFFCURVE",
"269 549 CURVE",
"269 535 OFFCURVE",
"285 533 OFFCURVE",
"292 543 CURVE SMOOTH"
);
}
);
userData = {
com.typemytype.robofont.mark = (
1,
0.5675,
0.4681,
1
);
};
width = 361;
}
);
unicode = 2018;
},
{
color = 0;
glyphname = quoteright;
lastChange = "2020-03-15 11:43:11 +0000";
layers = (
{
layerId = master01;
paths = (
{
closed = 1;
nodes = (
"385 694 OFFCURVE",
"370 731 OFFCURVE",
"381 735 CURVE SMOOTH",
"420 751 OFFCURVE",
"431 695 OFFCURVE",
"422 669 CURVE SMOOTH",
"402 608 OFFCURVE",
"364 535 OFFCURVE",
"302 506 CURVE",
"285 499 OFFCURVE",
"227 493 OFFCURVE",
"221 487 CURVE SMOOTH",
"210 474 OFFCURVE",
"227 463 OFFCURVE",
"238 472 CURVE SMOOTH",
"241 475 OFFCURVE",
"231 472 OFFCURVE",
"229 470 CURVE SMOOTH",
"227 468 OFFCURVE",
"234 470 OFFCURVE",
"236 470 CURVE SMOOTH",
"245 470 OFFCURVE",
"253 471 OFFCURVE",
"261 471 CURVE",
"279 474 OFFCURVE",
"298 479 OFFCURVE",
"313 487 CURVE SMOOTH",
"381 526 OFFCURVE",
"471 638 OFFCURVE",
"443 722 CURVE SMOOTH",
"430 760 OFFCURVE",
"360 780 OFFCURVE",
"354 738 CURVE",
"349 695 OFFCURVE",
"393 672 OFFCURVE",
"427 693 CURVE",
"439 703 OFFCURVE",
"429 715 OFFCURVE",
"416 712 CURVE"
);
}
);
userData = {
com.typemytype.robofont.mark = (
1,
0.5675,
0.4681,
1
);
};
width = 361;
}
);
unicode = 2019;
},
{
color = 0;
glyphname = quotesinglbase;
lastChange = "2020-03-15 11:43:11 +0000";
layers = (
{
layerId = master01;
paths = (
{
closed = 1;
nodes = (
"166 23 OFFCURVE",
"116 28 OFFCURVE",
"115 33 CURVE SMOOTH",
"111 50 OFFCURVE",
"173 77 OFFCURVE",
"185 51 CURVE SMOOTH",
"213 -7 OFFCURVE",
"124 -134 OFFCURVE",
"80 -160 CURVE",
"45 -179 OFFCURVE",
"8 -181 OFFCURVE",
"-31 -184 CURVE",
"-45 -187 OFFCURVE",
"-45 -203 OFFCURVE",
"-31 -206 CURVE",
"81 -199 OFFCURVE",
"141 -164 OFFCURVE",
"188 -60 CURVE SMOOTH",
"202 -28 OFFCURVE",
"232 35 OFFCURVE",
"201 68 CURVE",
"188 84 OFFCURVE",
"171 84 OFFCURVE",
"152 83 CURVE SMOOTH",
"144 83 OFFCURVE",
"136 80 OFFCURVE",
"128 76 CURVE SMOOTH",
"13 22 OFFCURVE",
"178 -28 OFFCURVE",
"191 26 CURVE",
"194 42 OFFCURVE",
"175 45 OFFCURVE",
"168 32 CURVE"
);
}
);
userData = {
com.typemytype.robofont.mark = (
1,
0.5675,
0.4681,
1
);
};
width = 361;
}
);
unicode = 201A;
},
{
glyphname = t_s;
lastChange = "2020-03-15 11:44:54 +0000";
layers = (
{
layerId = master01;
paths = (
{
closed = 1;
nodes = (
"222 478 OFFCURVE",
"372 486 OFFCURVE",
"518 490 CURVE",
"534 490 OFFCURVE",
"534 511 OFFCURVE",
"518 511 CURVE SMOOTH",
"372 510 OFFCURVE",
"212 501 OFFCURVE",
"81 490 CURVE",
"64 489 OFFCURVE",
"67 466 OFFCURVE",
"81 467 CURVE SMOOTH"
);
},
{
closed = 1;
nodes = (
"547 240 OFFCURVE",
"547 193 CURVE SMOOTH",
"547 60 OFFCURVE",
"608 -28 OFFCURVE",
"726 -28 CURVE SMOOTH",
"834 -28 OFFCURVE",
"876 39 OFFCURVE",
"876 118 CURVE SMOOTH",
"876 261 OFFCURVE",
"769 313 OFFCURVE",
"769 416 CURVE SMOOTH",
"769 469 OFFCURVE",
"813 515 OFFCURVE",
"905 515 CURVE SMOOTH",
"985 515 OFFCURVE",
"1010 481 OFFCURVE",
"1004 410 CURVE SMOOTH",
"1002 392 OFFCURVE",
"1025 391 OFFCURVE",
"1027 410 CURVE SMOOTH",
"1037 504 OFFCURVE",
"989 537 OFFCURVE",
"905 537 CURVE SMOOTH",
"803 537 OFFCURVE",
"746 484 OFFCURVE",
"746 416 CURVE SMOOTH",
"746 301 OFFCURVE",
"853 248 OFFCURVE",
"853 119 CURVE SMOOTH",
"853 51 OFFCURVE",
"815 -6 OFFCURVE",
"725 -6 CURVE SMOOTH",
"618 -6 OFFCURVE",
"571 80 OFFCURVE",
"571 195 CURVE",
"584 211 LINE",
"589 236 LINE",
"500 115 OFFCURVE",
"356 12 OFFCURVE",
"237 12 CURVE SMOOTH",
"121 12 OFFCURVE",
"95 74 OFFCURVE",
"144 210 CURVE SMOOTH",
"197 358 OFFCURVE",
"268 504 OFFCURVE",
"337 652 CURVE SMOOTH",
"345 669 OFFCURVE",
"323 675 OFFCURVE",
"315 658 CURVE SMOOTH",
"247 513 OFFCURVE",
"175 365 OFFCURVE",
"121 217 CURVE SMOOTH",
"65 63 OFFCURVE",
"106 -10 OFFCURVE",
"234 -10 CURVE SMOOTH",
"343 -10 OFFCURVE",
"456 55 OFFCURVE",
"558 164 CURVE",
"566 167 LINE",
"630 221 OFFCURVE",
"632 282 OFFCURVE",
"591 282 CURVE SMOOTH",
"561 282 OFFCURVE"
);
}
);
userData = {
com.typemytype.robofont.layerData = {
background = {
anchors = (
);
components = (
);
contours = (
{
points = (
{
segmentType = curve;
smooth = 1;
x = 81;
y = 467;
},
{
smooth = 0;
x = 222;
y = 478;
},
{
smooth = 0;
x = 372.01485;
y = 486.18339;
},
{
segmentType = curve;
smooth = 1;
x = 518;
y = 490;
},
{
smooth = 0;
x = 534;
y = 491;
},
{
smooth = 0;
x = 534;
y = 511;
},
{
segmentType = curve;
smooth = 1;
x = 518;
y = 511;
},
{
smooth = 0;
x = 372.01528;
y = 510.04585;
},
{
smooth = 0;
x = 212;
y = 501;
},
{
segmentType = curve;
smooth = 1;
x = 81;
y = 490;
},
{
smooth = 0;
x = 64;
y = 488;
},
{
smooth = 0;
x = 67;
y = 466;
}
);
},
{
points = (
{
segmentType = curve;
smooth = 1;
x = 234;
y = -10;
},
{
smooth = 0;
x = 361;
y = -10;
},
{
smooth = 0;
x = 497;
y = 79;
},
{
segmentType = curve;
smooth = 1;
x = 606;
y = 225;
},
{
smooth = 0;
x = 616;
y = 238;
},
{
smooth = 0;
x = 598;
y = 249;
},
{
segmentType = curve;
smooth = 1;
x = 589;
y = 236;
},
{
smooth = 0;
x = 500;
y = 115;
},
{
smooth = 0;
x = 356;
y = 12;
},
{
segmentType = curve;
smooth = 1;
x = 237;
y = 12;
},
{
smooth = 0;
x = 121;
y = 12;
},
{
smooth = 0;
x = 95;
y = 74;
},
{
segmentType = curve;
smooth = 1;
x = 144;
y = 210;
},
{
smooth = 0;
x = 197;
y = 358;
},
{
smooth = 0;
x = 268;
y = 504;
},
{
segmentType = curve;
smooth = 1;
x = 337;
y = 652;
},
{
smooth = 0;
x = 345;
y = 669;
},
{
smooth = 0;
x = 323;
y = 675;
},
{
segmentType = curve;
smooth = 1;
x = 315;
y = 658;
},
{
smooth = 0;
x = 247;
y = 513;
},
{
smooth = 0;
x = 175;
y = 365;
},
{
segmentType = curve;
smooth = 1;
x = 121;
y = 217;
},
{
smooth = 0;
x = 65;
y = 63;
},
{
smooth = 0;
x = 106;
y = -10;
}
);
},
{
points = (
{
segmentType = curve;
smooth = 1;
x = 726;
y = -28;
},
{
smooth = 0;
x = 834;
y = -28;
},
{
smooth = 0;
x = 876;
y = 39;
},
{
segmentType = curve;
smooth = 1;
x = 876;
y = 118;
},
{
smooth = 0;
x = 876;
y = 261;
},
{
smooth = 0;
x = 769;
y = 313;
},
{
segmentType = curve;
smooth = 1;
x = 769;
y = 416;
},
{
smooth = 0;
x = 769;
y = 469;
},
{
smooth = 0;
x = 813;
y = 515;
},
{
segmentType = curve;
smooth = 1;
x = 905;
y = 515;
},
{
smooth = 0;
x = 985;
y = 515;
},
{
smooth = 0;
x = 1010;
y = 481;
},
{
segmentType = curve;
smooth = 1;
x = 1004;
y = 410;
},
{
smooth = 0;
x = 1002;
y = 392;
},
{
smooth = 0;
x = 1025;
y = 391;
},
{
segmentType = curve;
smooth = 1;
x = 1027;
y = 410;
},
{
smooth = 0;
x = 1037;
y = 504;
},
{
smooth = 0;
x = 989;
y = 537;
},
{
segmentType = curve;
smooth = 1;
x = 905;
y = 537;
},
{
smooth = 0;
x = 803;
y = 537;
},
{
smooth = 0;
x = 746;
y = 484;
},
{
segmentType = curve;
smooth = 1;
x = 746;
y = 416;
},
{
smooth = 0;
x = 746;
y = 301;
},
{
smooth = 0;
x = 853;
y = 248;
},
{
segmentType = curve;
smooth = 1;
x = 853;
y = 119;
},
{
smooth = 0;
x = 853;
y = 51;
},
{
smooth = 0;
x = 815;
y = -6;
},
{
segmentType = curve;
smooth = 1;
x = 725;
y = -6;
},
{
smooth = 0;
x = 597;
y = -6;
},
{
smooth = 0;
x = 555;
y = 116;
},
{
segmentType = curve;
smooth = 1;
x = 576;
y = 264;
},
{
smooth = 0;
x = 578;
y = 280;
},
{
smooth = 0;
x = 554;
y = 282;
},
{
segmentType = curve;
smooth = 1;
x = 552;
y = 265;
},
{
smooth = 0;
x = 527;
y = 93;
},
{
smooth = 0;
x = 588;
y = -28;
}
);
}
);
lib = {
};
name = t_s;
unicodes = (
);
width = 1055;
};
};
};
width = 1055;
}
);
},
{
glyphname = n.Lx;
lastChange = "2020-03-15 11:44:57 +0000";
layers = (
{
layerId = master01;
paths = (
{
closed = 1;
nodes = (
"153 331 OFFCURVE",
"77 189 OFFCURVE",
"-5 15 CURVE SMOOTH",
"-14 -5 OFFCURVE",
"13 -17 OFFCURVE",
"22 14 CURVE",
"184 312 OFFCURVE",
"417 488 OFFCURVE",
"516 488 CURVE SMOOTH",
"546 488 OFFCURVE",
"562 479 OFFCURVE",
"562 452 CURVE SMOOTH",
"562 390 OFFCURVE",
"441 232 OFFCURVE",
"398 117 CURVE SMOOTH",
"370 42 OFFCURVE",
"401 -15 OFFCURVE",
"499 -15 CURVE SMOOTH",
"610 -15 OFFCURVE",
"669 34 OFFCURVE",
"717 144 CURVE SMOOTH",
"727 166 OFFCURVE",
"705 172 OFFCURVE",
"697 155 CURVE SMOOTH",
"649 52 OFFCURVE",
"606 8 OFFCURVE",
"501 8 CURVE SMOOTH",
"420 8 OFFCURVE",
"403 51 OFFCURVE",
"424 113 CURVE SMOOTH",
"460 218 OFFCURVE",
"587 380 OFFCURVE",
"587 452 CURVE SMOOTH",
"587 492 OFFCURVE",
"563 511 OFFCURVE",
"518 511 CURVE SMOOTH",
"405 511 OFFCURVE",
"182 330 OFFCURVE",
"30 69 CURVE",
"38 66 LINE",
"116 207 OFFCURVE",
"188 341 OFFCURVE",
"261 483 CURVE SMOOTH",
"267 495 OFFCURVE",
"266 507 OFFCURVE",
"256 507 CURVE SMOOTH",
"249 507 OFFCURVE",
"245 502 OFFCURVE",
"241 495 CURVE"
);
}
);
userData = {
com.typemytype.robofont.mark = (
0.968,
0.969,
0.8747,
1
);
};
width = 630;
}
);
},
{
glyphname = o.Rn;
lastChange = "2020-03-15 11:45:00 +0000";
layers = (
{
layerId = master01;
paths = (
{
closed = 1;
nodes = (
"318 10 OFFCURVE",
"449 125 OFFCURVE",
"485 260 CURVE SMOOTH",
"529 425 OFFCURVE",
"436 512 OFFCURVE",
"328 512 CURVE SMOOTH",
"221 512 OFFCURVE",
"96 389 OFFCURVE",
"72 240 CURVE SMOOTH",
"49 96 OFFCURVE",
"104 10 OFFCURVE",
"207 10 CURVE SMOOTH"
);
},
{
closed = 1;
nodes = (
"120 32 OFFCURVE",
"77 113 OFFCURVE",
"96 237 CURVE SMOOTH",
"118 378 OFFCURVE",
"234 490 OFFCURVE",
"328 490 CURVE SMOOTH",
"419 490 OFFCURVE",
"501 417 OFFCURVE",
"461 266 CURVE SMOOTH",
"430 149 OFFCURVE",
"314 32 OFFCURVE",
"207 32 CURVE SMOOTH"
);
}
);
userData = {
com.typemytype.robofont.layerData = {
background = {
anchors = (
);
components = (
);
contours = (
{
points = (
{
segmentType = curve;
smooth = 0;
x = 397;
y = 490;
},
{
smooth = 0;
x = 376;
y = 490;
},
{
smooth = 0;
x = 362;
y = 516;
},
{
segmentType = curve;
smooth = 1;
x = 315;
y = 511;
},
{
smooth = 0;
x = 236;
y = 504;
},
{
smooth = 0;
x = 192;
y = 449;
},
{
segmentType = curve;
smooth = 1;
x = 145;
y = 390;
},
{
smooth = 0;
x = 130;
y = 371;
},
{
smooth = 0;
x = 112;
y = 354;
},
{
segmentType = curve;
smooth = 1;
x = 99;
y = 333;
},
{
smooth = 0;
x = 83;
y = 306;
},
{
smooth = 0;
x = 77;
y = 265;
},
{
segmentType = curve;
smooth = 1;
x = 72;
y = 234;
},
{
smooth = 0;
x = 67;
y = 202;
},
{
smooth = 0;
x = 62;
y = 165;
},
{
segmentType = curve;
smooth = 1;
x = 68;
y = 132;
},
{
smooth = 0;
x = 76;
y = 87;
},
{
smooth = 0;
x = 126;
y = 34;
},
{
segmentType = curve;
smooth = 1;
x = 168;
y = 16;
},
{
smooth = 0;
x = 191;
y = 6;
},
{
smooth = 0;
x = 218;
y = 13;
},
{
segmentType = curve;
smooth = 1;
x = 243;
y = 12;
},
{
smooth = 0;
x = 351;
y = 10;
},
{
smooth = 0;
x = 522;
y = 254;
},
{
segmentType = curve;
smooth = 1;
x = 497;
y = 353;
},
{
smooth = 0;
x = 491;
y = 377;
},
{
smooth = 0;
x = 486;
y = 400;
},
{
segmentType = curve;
smooth = 0;
x = 479;
y = 423;
},
{
smooth = 0;
x = 466;
y = 473;
},
{
smooth = 0;
x = 383;
y = 509;
},
{
segmentType = curve;
smooth = 1;
x = 343;
y = 474;
},
{
smooth = 0;
x = 309;
y = 444;
},
{
smooth = 0;
x = 317;
y = 380;
},
{
segmentType = curve;
smooth = 0;
x = 360;
y = 361;
},
{
smooth = 0;
x = 393;
y = 348;
},
{
smooth = 0;
x = 402;
y = 344;
},
{
segmentType = curve;
smooth = 0;
x = 438;
y = 339;
},
{
smooth = 0;
x = 550;
y = 326;
},
{
smooth = 0;
x = 646;
y = 368;
},
{
segmentType = curve;
smooth = 0;
x = 737;
y = 426;
},
{
smooth = 0;
x = 762;
y = 443;
},
{
smooth = 0;
x = 806;
y = 465;
},
{
segmentType = curve;
smooth = 1;
x = 813;
y = 497;
},
{
smooth = 0;
x = 816;
y = 513;
},
{
smooth = 0;
x = 797;
y = 516;
},
{
segmentType = curve;
smooth = 0;
x = 790;
y = 503;
},
{
smooth = 0;
x = 786;
y = 483;
},
{
smooth = 0;
x = 762;
y = 473;
},
{
segmentType = curve;
smooth = 1;
x = 748;
y = 460;
},
{
smooth = 0;
x = 692;
y = 412;
},
{
smooth = 0;
x = 575;
y = 359;
},
{
segmentType = curve;
smooth = 1;
x = 481;
y = 359;
},
{
smooth = 0;
x = 412;
y = 359;
},
{
smooth = 0;
x = 327;
y = 370;
},
{
segmentType = curve;
smooth = 1;
x = 355;
y = 453;
},
{
smooth = 0;
x = 370;
y = 497;
},
{
smooth = 0;
x = 470;
y = 440;
},
{
segmentType = curve;
smooth = 1;
x = 473;
y = 349;
},
{
smooth = 0;
x = 476;
y = 231;
},
{
smooth = 0;
x = 362;
y = 60;
},
{
segmentType = curve;
smooth = 1;
x = 242;
y = 35;
},
{
smooth = 0;
x = 178;
y = 21;
},
{
smooth = 0;
x = 145;
y = 48;
},
{
segmentType = curve;
smooth = 1;
x = 113;
y = 96;
},
{
smooth = 0;
x = 102;
y = 112;
},
{
smooth = 0;
x = 95;
y = 119;
},
{
segmentType = curve;
smooth = 1;
x = 91;
y = 138;
},
{
smooth = 0;
x = 81;
y = 195;
},
{
smooth = 0;
x = 98;
y = 273;
},
{
segmentType = curve;
smooth = 1;
x = 121;
y = 324;
},
{
smooth = 0;
x = 131;
y = 345;
},
{
smooth = 0;
x = 151;
y = 361;
},
{
segmentType = curve;
smooth = 1;
x = 165;
y = 378;
},
{
smooth = 0;
x = 210;
y = 435;
},
{
smooth = 0;
x = 252;
y = 488;
},
{
segmentType = curve;
smooth = 1;
x = 328;
y = 490;
},
{
smooth = 0;
x = 355;
y = 491;
},
{
smooth = 0;
x = 376;
y = 464;
},
{
segmentType = curve;
smooth = 0;
x = 401;
y = 468;
},
{
smooth = 0;
x = 415;
y = 474;
},
{
smooth = 0;
x = 411;
y = 488;
}
);
}
);
lib = {
};
name = o.Rn;
unicodes = (
);
width = 575;
};
};
};
width = 575;
}
);
},
{
glyphname = o.Rr;
lastChange = "2020-03-15 11:45:02 +0000";
layers = (
{
layerId = master01;
paths = (
{
closed = 1;
nodes = (
"382 502 OFFCURVE",
"357 512 OFFCURVE",
"328 512 CURVE SMOOTH",
"221 512 OFFCURVE",
"96 389 OFFCURVE",
"72 240 CURVE SMOOTH",
"49 96 OFFCURVE",
"104 10 OFFCURVE",
"207 10 CURVE SMOOTH",
"318 10 OFFCURVE",
"446 132 OFFCURVE",
"485 260 CURVE SMOOTH",
"524 388 OFFCURVE",
"471 482 OFFCURVE",
"386 482 CURVE SMOOTH",
"345 482 OFFCURVE",
"318 452 OFFCURVE",
"318 414 CURVE SMOOTH",
"318 343 OFFCURVE",
"387 301 OFFCURVE",
"491 301 CURVE SMOOTH",
"605 301 OFFCURVE",
"714 374 OFFCURVE",
"789 436 CURVE SMOOTH",
"805 449 OFFCURVE",
"790 464 OFFCURVE",
"777 454 CURVE SMOOTH",
"702 394 OFFCURVE",
"596 323 OFFCURVE",
"491 323 CURVE SMOOTH",
"390 323 OFFCURVE",
"343 364 OFFCURVE",
"343 414 CURVE SMOOTH",
"343 437 OFFCURVE",
"358 460 OFFCURVE",
"386 460 CURVE SMOOTH",
"458 460 OFFCURVE",
"496 368 OFFCURVE",
"461 266 CURVE SMOOTH",
"423 154 OFFCURVE",
"314 32 OFFCURVE",
"207 32 CURVE SMOOTH",
"120 32 OFFCURVE",
"77 113 OFFCURVE",
"96 237 CURVE SMOOTH",
"118 378 OFFCURVE",
"234 490 OFFCURVE",
"328 490 CURVE SMOOTH",
"352 490 OFFCURVE",
"376 479 OFFCURVE",
"393 470 CURVE SMOOTH",
"406 463 OFFCURVE",
"417 479 OFFCURVE",
"403 488 CURVE SMOOTH"
);
}
);
userData = {
com.typemytype.robofont.layerData = {
background = {
anchors = (
);
components = (
);
contours = (
{
points = (
{
segmentType = curve;
smooth = 0;
x = 397;
y = 490;
},
{
smooth = 0;
x = 376;
y = 490;
},
{
smooth = 0;
x = 362;
y = 516;
},
{
segmentType = curve;
smooth = 1;
x = 315;
y = 511;
},
{
smooth = 0;
x = 236;
y = 504;
},
{
smooth = 0;
x = 192;
y = 449;
},
{
segmentType = curve;
smooth = 1;
x = 145;
y = 390;
},
{
smooth = 0;
x = 130;
y = 371;
},
{
smooth = 0;
x = 112;
y = 354;
},
{
segmentType = curve;
smooth = 1;
x = 99;
y = 333;
},
{
smooth = 0;
x = 83;
y = 306;
},
{
smooth = 0;
x = 77;
y = 265;
},
{
segmentType = curve;
smooth = 1;
x = 72;
y = 234;
},
{
smooth = 0;
x = 67;
y = 202;
},
{
smooth = 0;
x = 62;
y = 165;
},
{
segmentType = curve;
smooth = 1;
x = 68;
y = 132;
},
{
smooth = 0;
x = 76;
y = 87;
},
{
smooth = 0;
x = 126;
y = 34;
},
{
segmentType = curve;
smooth = 1;
x = 168;
y = 16;
},
{
smooth = 0;
x = 191;
y = 6;
},
{
smooth = 0;
x = 218;
y = 13;
},
{
segmentType = curve;
smooth = 1;
x = 243;
y = 12;
},
{
smooth = 0;
x = 351;
y = 10;
},
{
smooth = 0;
x = 522;
y = 254;
},
{
segmentType = curve;
smooth = 1;
x = 497;
y = 353;
},
{
smooth = 0;
x = 491;
y = 377;
},
{
smooth = 0;
x = 486;
y = 400;
},
{
segmentType = curve;
smooth = 0;
x = 479;
y = 423;
},
{
smooth = 0;
x = 466;
y = 473;
},
{
smooth = 0;
x = 383;
y = 509;
},
{
segmentType = curve;
smooth = 1;
x = 343;
y = 474;
},
{
smooth = 0;
x = 309;
y = 444;
},
{
smooth = 0;
x = 317;
y = 380;
},
{
segmentType = curve;
smooth = 0;
x = 360;
y = 361;
},
{
smooth = 0;
x = 393;
y = 348;
},
{
smooth = 0;
x = 402;
y = 344;
},
{
segmentType = curve;
smooth = 0;
x = 438;
y = 339;
},
{
smooth = 0;
x = 550;
y = 326;
},
{
smooth = 0;
x = 646;
y = 368;
},
{
segmentType = curve;
smooth = 0;
x = 737;
y = 426;
},
{
smooth = 0;
x = 762;
y = 443;
},
{
smooth = 0;
x = 806;
y = 465;
},
{
segmentType = curve;
smooth = 1;
x = 813;
y = 497;
},
{
smooth = 0;
x = 816;
y = 513;
},
{
smooth = 0;
x = 797;
y = 516;
},
{
segmentType = curve;
smooth = 0;
x = 790;
y = 503;
},
{
smooth = 0;
x = 786;
y = 483;
},
{
smooth = 0;
x = 762;
y = 473;
},
{
segmentType = curve;
smooth = 1;
x = 748;
y = 460;
},
{
smooth = 0;
x = 692;
y = 412;
},
{
smooth = 0;
x = 575;
y = 359;
},
{
segmentType = curve;
smooth = 1;
x = 481;
y = 359;
},
{
smooth = 0;
x = 412;
y = 359;
},
{
smooth = 0;
x = 327;
y = 370;
},
{
segmentType = curve;
smooth = 1;
x = 355;
y = 453;
},
{
smooth = 0;
x = 370;
y = 497;
},
{
smooth = 0;
x = 470;
y = 440;
},
{
segmentType = curve;
smooth = 1;
x = 473;
y = 349;
},
{
smooth = 0;
x = 476;
y = 231;
},
{
smooth = 0;
x = 362;
y = 60;
},
{
segmentType = curve;
smooth = 1;
x = 242;
y = 35;
},
{
smooth = 0;
x = 178;
y = 21;
},
{
smooth = 0;
x = 145;
y = 48;
},
{
segmentType = curve;
smooth = 1;
x = 113;
y = 96;
},
{
smooth = 0;
x = 102;
y = 112;
},
{
smooth = 0;
x = 95;
y = 119;
},
{
segmentType = curve;
smooth = 1;
x = 91;
y = 138;
},
{
smooth = 0;
x = 81;
y = 195;
},
{
smooth = 0;
x = 98;
y = 273;
},
{
segmentType = curve;
smooth = 1;
x = 121;
y = 324;
},
{
smooth = 0;
x = 131;
y = 345;
},
{
smooth = 0;
x = 151;
y = 361;
},
{
segmentType = curve;
smooth = 1;
x = 165;
y = 378;
},
{
smooth = 0;
x = 210;
y = 435;
},
{
smooth = 0;
x = 252;
y = 488;
},
{
segmentType = curve;
smooth = 1;
x = 328;
y = 490;
},
{
smooth = 0;
x = 355;
y = 491;
},
{
smooth = 0;
x = 376;
y = 464;
},
{
segmentType = curve;
smooth = 0;
x = 401;
y = 468;
},
{
smooth = 0;
x = 415;
y = 474;
},
{
smooth = 0;
x = 411;
y = 488;
}
);
},
{
points = (
{
segmentType = curve;
smooth = 1;
x = 988;
y = 488;
},
{
smooth = 0;
x = 967;
y = 502;
},
{
smooth = 0;
x = 942;
y = 512;
},
{
segmentType = curve;
smooth = 1;
x = 913;
y = 512;
},
{
smooth = 0;
x = 806;
y = 512;
},
{
smooth = 0;
x = 681;
y = 389;
},
{
segmentType = curve;
smooth = 1;
x = 657;
y = 240;
},
{
smooth = 0;
x = 634;
y = 96;
},
{
smooth = 0;
x = 689;
y = 10;
},
{
segmentType = curve;
smooth = 1;
x = 792;
y = 10;
},
{
smooth = 0;
x = 903;
y = 10;
},
{
smooth = 0;
x = 1031;
y = 132;
},
{
segmentType = curve;
smooth = 1;
x = 1070;
y = 260;
},
{
smooth = 0;
x = 1110;
y = 391;
},
{
smooth = 0;
x = 1056;
y = 487;
},
{
segmentType = curve;
smooth = 1;
x = 969;
y = 487;
},
{
smooth = 0;
x = 931;
y = 487;
},
{
smooth = 0;
x = 907;
y = 461;
},
{
segmentType = curve;
smooth = 1;
x = 907;
y = 428;
},
{
smooth = 0;
x = 907;
y = 363;
},
{
smooth = 0;
x = 964;
y = 336;
},
{
segmentType = curve;
smooth = 1;
x = 1063;
y = 336;
},
{
smooth = 0;
x = 1181;
y = 336;
},
{
smooth = 0;
x = 1308;
y = 401;
},
{
segmentType = curve;
smooth = 0;
x = 1376;
y = 465;
},
{
segmentType = line;
smooth = 0;
x = 1361;
y = 483;
},
{
smooth = 0;
x = 1293;
y = 418;
},
{
smooth = 0;
x = 1168;
y = 358;
},
{
segmentType = curve;
smooth = 1;
x = 1062;
y = 358;
},
{
smooth = 0;
x = 968;
y = 358;
},
{
smooth = 0;
x = 932;
y = 386;
},
{
segmentType = curve;
smooth = 1;
x = 932;
y = 428;
},
{
smooth = 0;
x = 932;
y = 447;
},
{
smooth = 0;
x = 945;
y = 465;
},
{
segmentType = curve;
smooth = 1;
x = 969;
y = 465;
},
{
smooth = 0;
x = 1043;
y = 465;
},
{
smooth = 0;
x = 1082;
y = 371;
},
{
segmentType = curve;
smooth = 1;
x = 1046;
y = 266;
},
{
smooth = 0;
x = 1008;
y = 154;
},
{
smooth = 0;
x = 899;
y = 32;
},
{
segmentType = curve;
smooth = 1;
x = 792;
y = 32;
},
{
smooth = 0;
x = 705;
y = 32;
},
{
smooth = 0;
x = 662;
y = 113;
},
{
segmentType = curve;
smooth = 1;
x = 681;
y = 237;
},
{
smooth = 0;
x = 703;
y = 378;
},
{
smooth = 0;
x = 819;
y = 490;
},
{
segmentType = curve;
smooth = 1;
x = 913;
y = 490;
},
{
smooth = 0;
x = 937;
y = 490;
},
{
smooth = 0;
x = 961;
y = 479;
},
{
segmentType = curve;
smooth = 1;
x = 978;
y = 470;
},
{
smooth = 0;
x = 991;
y = 463;
},
{
smooth = 0;
x = 1002;
y = 479;
}
);
}
);
lib = {
};
name = o.Rr;
unicodes = (
);
width = 585;
};
};
};
width = 585;
}
);
},
{
glyphname = o.Rx;
lastChange = "2020-03-15 11:45:05 +0000";
layers = (
{
layerId = master01;
paths = (
{
closed = 1;
nodes = (
"382 502 OFFCURVE",
"357 512 OFFCURVE",
"328 512 CURVE SMOOTH",
"221 512 OFFCURVE",
"96 389 OFFCURVE",
"72 240 CURVE SMOOTH",
"49 96 OFFCURVE",
"104 10 OFFCURVE",
"207 10 CURVE SMOOTH",
"318 10 OFFCURVE",
"446 132 OFFCURVE",
"485 260 CURVE SMOOTH",
"525 391 OFFCURVE",
"471 487 OFFCURVE",
"384 487 CURVE SMOOTH",
"343.548 487 OFFCURVE",
"318 458 OFFCURVE",
"318 422 CURVE SMOOTH",
"318 357 OFFCURVE",
"382 317 OFFCURVE",
"486 317 CURVE SMOOTH",
"631 317 OFFCURVE",
"751.698 393.881 OFFCURVE",
"827 465 CURVE SMOOTH",
"835 473 OFFCURVE",
"844 482 OFFCURVE",
"848 492 CURVE SMOOTH",
"853 505 OFFCURVE",
"840 512 OFFCURVE",
"829 500 CURVE SMOOTH",
"824 494 OFFCURVE",
"819 489 OFFCURVE",
"812 483 CURVE SMOOTH",
"736.502 410.648 OFFCURVE",
"618 339 OFFCURVE",
"486 339 CURVE SMOOTH",
"386 339 OFFCURVE",
"343 376 OFFCURVE",
"343 422 CURVE SMOOTH",
"343 444 OFFCURVE",
"357.405 465 OFFCURVE",
"384 465 CURVE SMOOTH",
"458 465 OFFCURVE",
"497 371 OFFCURVE",
"461 266 CURVE SMOOTH",
"423 154 OFFCURVE",
"314 32 OFFCURVE",
"207 32 CURVE SMOOTH",
"120 32 OFFCURVE",
"77 113 OFFCURVE",
"96 237 CURVE SMOOTH",
"118 378 OFFCURVE",
"234 490 OFFCURVE",
"328 490 CURVE SMOOTH",
"352 490 OFFCURVE",
"376 479 OFFCURVE",
"393 470 CURVE SMOOTH",
"406 463 OFFCURVE",
"417 479 OFFCURVE",
"403 488 CURVE SMOOTH"
);
}
);
userData = {
com.typemytype.robofont.layerData = {
background = {
anchors = (
);
components = (
);
contours = (
{
points = (
{
segmentType = curve;
smooth = 0;
x = 826;
y = 495;
},
{
smooth = 0;
x = 738;
y = 331;
},
{
smooth = 0;
x = 662;
y = 189;
},
{
segmentType = curve;
smooth = 1;
x = 580;
y = 15;
},
{
smooth = 0;
x = 571;
y = -5;
},
{
smooth = 0;
x = 598;
y = -17;
},
{
segmentType = curve;
smooth = 0;
x = 607;
y = 14;
},
{
smooth = 0;
x = 769;
y = 312;
},
{
smooth = 0;
x = 1002;
y = 488;
},
{
segmentType = curve;
smooth = 1;
x = 1101;
y = 488;
},
{
smooth = 0;
x = 1131;
y = 488;
},
{
smooth = 0;
x = 1147;
y = 479;
},
{
segmentType = curve;
smooth = 1;
x = 1147;
y = 452;
},
{
smooth = 0;
x = 1147;
y = 390;
},
{
smooth = 0;
x = 1026;
y = 232;
},
{
segmentType = curve;
smooth = 1;
x = 983;
y = 117;
},
{
smooth = 0;
x = 955;
y = 42;
},
{
smooth = 0;
x = 986;
y = -15;
},
{
segmentType = curve;
smooth = 1;
x = 1084;
y = -15;
},
{
smooth = 0;
x = 1195;
y = -15;
},
{
smooth = 0;
x = 1254;
y = 34;
},
{
segmentType = curve;
smooth = 1;
x = 1302;
y = 144;
},
{
smooth = 0;
x = 1312;
y = 166;
},
{
smooth = 0;
x = 1290;
y = 172;
},
{
segmentType = curve;
smooth = 1;
x = 1282;
y = 155;
},
{
smooth = 0;
x = 1234;
y = 52;
},
{
smooth = 0;
x = 1191;
y = 8;
},
{
segmentType = curve;
smooth = 1;
x = 1086;
y = 8;
},
{
smooth = 0;
x = 1005;
y = 8;
},
{
smooth = 0;
x = 988;
y = 51;
},
{
segmentType = curve;
smooth = 1;
x = 1009;
y = 113;
},
{
smooth = 0;
x = 1045;
y = 218;
},
{
smooth = 0;
x = 1172;
y = 380;
},
{
segmentType = curve;
smooth = 1;
x = 1172;
y = 452;
},
{
smooth = 0;
x = 1172;
y = 492;
},
{
smooth = 0;
x = 1148;
y = 511;
},
{
segmentType = curve;
smooth = 1;
x = 1103;
y = 511;
},
{
smooth = 0;
x = 990;
y = 511;
},
{
smooth = 0;
x = 767;
y = 330;
},
{
segmentType = curve;
smooth = 0;
x = 615;
y = 69;
},
{
segmentType = line;
smooth = 0;
x = 623;
y = 66;
},
{
smooth = 0;
x = 701;
y = 207;
},
{
smooth = 0;
x = 773;
y = 341;
},
{
segmentType = curve;
smooth = 1;
x = 846;
y = 483;
},
{
smooth = 0;
x = 852;
y = 495;
},
{
smooth = 0;
x = 851;
y = 507;
},
{
segmentType = curve;
smooth = 1;
x = 841;
y = 507;
},
{
smooth = 0;
x = 834;
y = 507;
},
{
smooth = 0;
x = 830;
y = 502;
}
);
},
{
points = (
{
segmentType = curve;
smooth = 1;
x = 403;
y = 488;
},
{
smooth = 0;
x = 382;
y = 502;
},
{
smooth = 0;
x = 357;
y = 512;
},
{
segmentType = curve;
smooth = 1;
x = 328;
y = 512;
},
{
smooth = 0;
x = 221;
y = 512;
},
{
smooth = 0;
x = 96;
y = 389;
},
{
segmentType = curve;
smooth = 1;
x = 72;
y = 240;
},
{
smooth = 0;
x = 49;
y = 96;
},
{
smooth = 0;
x = 104;
y = 10;
},
{
segmentType = curve;
smooth = 1;
x = 207;
y = 10;
},
{
smooth = 0;
x = 318;
y = 10;
},
{
smooth = 0;
x = 446;
y = 132;
},
{
segmentType = curve;
smooth = 1;
x = 485;
y = 260;
},
{
smooth = 0;
x = 525;
y = 391;
},
{
smooth = 0;
x = 471;
y = 487;
},
{
segmentType = curve;
smooth = 1;
x = 384;
y = 487;
},
{
smooth = 0;
x = 346;
y = 487;
},
{
smooth = 0;
x = 322;
y = 461;
},
{
segmentType = curve;
smooth = 1;
x = 322;
y = 428;
},
{
smooth = 0;
x = 322;
y = 363;
},
{
smooth = 0;
x = 379;
y = 336;
},
{
segmentType = curve;
smooth = 1;
x = 478;
y = 336;
},
{
smooth = 0;
x = 596;
y = 336;
},
{
smooth = 0;
x = 723;
y = 401;
},
{
segmentType = curve;
smooth = 1;
x = 791;
y = 465;
},
{
smooth = 0;
x = 799;
y = 473;
},
{
smooth = 0;
x = 808;
y = 482;
},
{
segmentType = curve;
smooth = 1;
x = 812;
y = 492;
},
{
smooth = 0;
x = 817;
y = 505;
},
{
smooth = 0;
x = 804;
y = 512;
},
{
segmentType = curve;
smooth = 1;
x = 793;
y = 500;
},
{
smooth = 0;
x = 788;
y = 494;
},
{
smooth = 0;
x = 783;
y = 489;
},
{
segmentType = curve;
smooth = 1;
x = 776;
y = 483;
},
{
smooth = 0;
x = 708;
y = 418;
},
{
smooth = 0;
x = 583;
y = 358;
},
{
segmentType = curve;
smooth = 1;
x = 477;
y = 358;
},
{
smooth = 0;
x = 383;
y = 358;
},
{
smooth = 0;
x = 347;
y = 386;
},
{
segmentType = curve;
smooth = 1;
x = 347;
y = 428;
},
{
smooth = 0;
x = 347;
y = 447;
},
{
smooth = 0;
x = 360;
y = 465;
},
{
segmentType = curve;
smooth = 1;
x = 384;
y = 465;
},
{
smooth = 0;
x = 458;
y = 465;
},
{
smooth = 0;
x = 497;
y = 371;
},
{
segmentType = curve;
smooth = 1;
x = 461;
y = 266;
},
{
smooth = 0;
x = 423;
y = 154;
},
{
smooth = 0;
x = 314;
y = 32;
},
{
segmentType = curve;
smooth = 1;
x = 207;
y = 32;
},
{
smooth = 0;
x = 120;
y = 32;
},
{
smooth = 0;
x = 77;
y = 113;
},
{
segmentType = curve;
smooth = 1;
x = 96;
y = 237;
},
{
smooth = 0;
x = 118;
y = 378;
},
{
smooth = 0;
x = 234;
y = 490;
},
{
segmentType = curve;
smooth = 1;
x = 328;
y = 490;
},
{
smooth = 0;
x = 352;
y = 490;
},
{
smooth = 0;
x = 376;
y = 479;
},
{
segmentType = curve;
smooth = 1;
x = 393;
y = 470;
},
{
smooth = 0;
x = 406;
y = 463;
},
{
smooth = 0;
x = 417;
y = 479;
}
);
}
);
lib = {
};
name = o.Rx;
unicodes = (
);
width = 585;
};
};
com.typemytype.robofont.mark = (
0.968,
0.969,
0.8747,
1
);
};
width = 585;
}
);
},
{
color = 0;
glyphname = zero.alt001;
lastChange = "2020-03-15 11:43:11 +0000";
layers = (
{
layerId = master01;
paths = (
{
closed = 1;
nodes = (
"623 754 OFFCURVE",
"566 756 OFFCURVE",
"475 715 CURVE SMOOTH",
"425 693 OFFCURVE",
"381 668 OFFCURVE",
"342 628 CURVE SMOOTH",
"291 576 OFFCURVE",
"246 478 OFFCURVE",
"217 409 CURVE SMOOTH",
"196 359 OFFCURVE",
"179 310 OFFCURVE",
"169 257 CURVE",
"157 182 OFFCURVE",
"154 70 OFFCURVE",
"224 20 CURVE SMOOTH",
"316 -45 OFFCURVE",
"428 -4 OFFCURVE",
"497 74 CURVE SMOOTH",
"551 135 OFFCURVE",
"594 217 OFFCURVE",
"631 288 CURVE SMOOTH",
"658 338 OFFCURVE",
"691 405 OFFCURVE",
"708 459 CURVE SMOOTH",
"735 546 OFFCURVE",
"750 673 OFFCURVE",
"641 700 CURVE SMOOTH",
"579 716 OFFCURVE",
"503 654 OFFCURVE",
"545 590 CURVE SMOOTH",
"623 473 OFFCURVE",
"802 520 OFFCURVE",
"889 600 CURVE SMOOTH",
"898 608 OFFCURVE",
"899 622 OFFCURVE",
"903 633 CURVE",
"906 649 OFFCURVE",
"887 652 OFFCURVE",
"880 639 CURVE SMOOTH",
"876 630 OFFCURVE",
"875 620 OFFCURVE",
"869 612 CURVE SMOOTH",
"813 538 OFFCURVE",
"622 509 OFFCURVE",
"567 599 CURVE SMOOTH",
"530 661 OFFCURVE",
"610 695 OFFCURVE",
"658 673 CURVE SMOOTH",
"733 639 OFFCURVE",
"702 520 OFFCURVE",
"684 465 CURVE SMOOTH",
"675 436 OFFCURVE",
"663 407 OFFCURVE",
"650 379 CURVE SMOOTH",
"623 318 OFFCURVE",
"598 274 OFFCURVE",
"563 217 CURVE SMOOTH",
"539 177 OFFCURVE",
"511 123 OFFCURVE",
"479 88 CURVE SMOOTH",
"407 8 OFFCURVE",
"317 -16 OFFCURVE",
"238 37 CURVE SMOOTH",
"177 78 OFFCURVE",
"182 190 OFFCURVE",
"193 251 CURVE SMOOTH",
"202 305 OFFCURVE",
"219 354 OFFCURVE",
"240 403 CURVE SMOOTH",
"271 475 OFFCURVE",
"309 554 OFFCURVE",
"359 613 CURVE SMOOTH",
"406 667 OFFCURVE",
"532 734 OFFCURVE",
"604 718 CURVE",
"635 712 OFFCURVE",
"658 693 OFFCURVE",
"681 672 CURVE",
"691 665 OFFCURVE",
"707 674 OFFCURVE",
"698 686 CURVE"
);
}
);
userData = {
com.typemytype.robofont.mark = (
1,
0.5675,
0.4681,
1
);
};
width = 762;
}
);
},
{
color = 0;
glyphname = G.alt001;
lastChange = "2020-03-15 11:43:11 +0000";
layers = (
{
layerId = master01;
paths = (
{
closed = 1;
nodes = (
"636 635 OFFCURVE",
"613 567 OFFCURVE",
"673 562 CURVE SMOOTH",
"718 558 OFFCURVE",
"710 652 OFFCURVE",
"702 676 CURVE",
"699 689 OFFCURVE",
"682 702 OFFCURVE",
"671 708 CURVE SMOOTH",
"512 803 OFFCURVE",
"322 687 OFFCURVE",
"234 545 CURVE SMOOTH",
"215 515 OFFCURVE",
"197 484 OFFCURVE",
"178 453 CURVE SMOOTH",
"98 323 OFFCURVE",
"70 86 OFFCURVE",
"235 10 CURVE SMOOTH",
"276 -8 OFFCURVE",
"292 -8 OFFCURVE",
"333 -2 CURVE SMOOTH",
"374 4 OFFCURVE",
"415 50 OFFCURVE",
"441 79 CURVE SMOOTH",
"489 131 OFFCURVE",
"541 186 OFFCURVE",
"575 249 CURVE",
"593 280 OFFCURVE",
"603 316 OFFCURVE",
"618 347 CURVE",
"608 337 OFFCURVE",
"602 349 OFFCURVE",
"607 347 CURVE SMOOTH",
"620 344 OFFCURVE",
"630 356 OFFCURVE",
"618 366 CURVE",
"618 366 OFFCURVE",
"618 366 OFFCURVE",
"617 366 CURVE SMOOTH",
"610 370 OFFCURVE",
"605 368 OFFCURVE",
"600 362 CURVE SMOOTH",
"593 352 OFFCURVE",
"595 342 OFFCURVE",
"589 331 CURVE SMOOTH",
"579 311 OFFCURVE",
"570 289 OFFCURVE",
"559 268 CURVE SMOOTH",
"542 234 OFFCURVE",
"487 170 OFFCURVE",
"446 120 CURVE SMOOTH",
"442 115 OFFCURVE",
"461 138 OFFCURVE",
"457 133 CURVE SMOOTH",
"421 91 OFFCURVE",
"382 36 OFFCURVE",
"325 19 CURVE SMOOTH",
"297 10 OFFCURVE",
"273 18 OFFCURVE",
"247 29 CURVE",
"158 70 OFFCURVE",
"135 146 OFFCURVE",
"141 249 CURVE",
"152 411 OFFCURVE",
"259 585 OFFCURVE",
"394 672 CURVE SMOOTH",
"418 687 OFFCURVE",
"445 697 OFFCURVE",
"471 709 CURVE SMOOTH",
"520 731 OFFCURVE",
"658 721 OFFCURVE",
"679 669 CURVE SMOOTH",
"685 655 OFFCURVE",
"687 584 OFFCURVE",
"672 584 CURVE SMOOTH",
"660 584 OFFCURVE",
"657 590 OFFCURVE",
"662 601 CURVE",
"664 603 OFFCURVE",
"672 606 OFFCURVE",
"669 606 CURVE SMOOTH",
"665 607 OFFCURVE",
"660 607 OFFCURVE",
"656 605 CURVE",
"655 605 OFFCURVE",
"660 604 OFFCURVE",
"662 604 CURVE SMOOTH",
"677 600 OFFCURVE",
"686 618 OFFCURVE",
"670 624 CURVE SMOOTH"
);
},
{
closed = 1;
nodes = (
"540 341 OFFCURVE",
"672 356 OFFCURVE",
"780 357 CURVE",
"796 359 OFFCURVE",
"796 377 OFFCURVE",
"780 379 CURVE",
"673 378 OFFCURVE",
"543 363 OFFCURVE",
"439 386 CURVE SMOOTH",
"423 389 OFFCURVE",
"419 369 OFFCURVE",
"435 365 CURVE SMOOTH"
);
},
{
closed = 1;
nodes = (
"591 263 OFFCURVE",
"542 168 OFFCURVE",
"502 76 CURVE",
"489 43 OFFCURVE",
"469 15 OFFCURVE",
"465 -21 CURVE",
"465 -36 OFFCURVE",
"487 -38 OFFCURVE",
"489 -23 CURVE SMOOTH",
"493 11 OFFCURVE",
"513 40 OFFCURVE",
"526 70 CURVE SMOOTH",
"566 164 OFFCURVE",
"615 260 OFFCURVE",
"624 362 CURVE",
"622 376 OFFCURVE",
"606 375 OFFCURVE",
"600 364 CURVE"
);
}
);
userData = {
com.typemytype.robofont.mark = (
1,
0.5675,
0.4681,
1
);
};
width = 700;
}
);
},
{
glyphname = e.Rstraight;
lastChange = "2020-03-15 11:45:09 +0000";
layers = (
{
layerId = master01;
paths = (
{
closed = 1;
nodes = (
"428 -11 OFFCURVE",
"585.159 91.26 OFFCURVE",
"665 247 CURVE SMOOTH",
"672 261 OFFCURVE",
"653 272 OFFCURVE",
"645 257 CURVE SMOOTH",
"563.357 105.517 OFFCURVE",
"415 11 OFFCURVE",
"274 11 CURVE SMOOTH",
"124 11 OFFCURVE",
"78.946 92.568 OFFCURVE",
"95 222 CURVE SMOOTH",
"115 379 OFFCURVE",
"232 474 OFFCURVE",
"348 474 CURVE SMOOTH",
"437 474 OFFCURVE",
"471 430 OFFCURVE",
"466 381 CURVE SMOOTH",
"461 328 OFFCURVE",
"397 288 OFFCURVE",
"313 288 CURVE SMOOTH",
"243 288 OFFCURVE",
"186 319 OFFCURVE",
"142 370 CURVE",
"129 357 LINE",
"175 301 OFFCURVE",
"235 267 OFFCURVE",
"314 267 CURVE SMOOTH",
"395 267 OFFCURVE",
"485 305 OFFCURVE",
"492 379 CURVE SMOOTH",
"499 454 OFFCURVE",
"436 496 OFFCURVE",
"348 496 CURVE SMOOTH",
"226 496 OFFCURVE",
"95 399 OFFCURVE",
"70 227 CURVE SMOOTH",
"47.915 73.41 OFFCURVE",
"119 -11 OFFCURVE",
"271 -11 CURVE SMOOTH"
);
}
